<svg width="16" height="17" viewBox="0 0 16 17" fill="none" xmlns="http://www.w3.org/2000/svg">
<path d="M15.4533 13.3088L12.7505 10.6022L10.6716 9.74203C11.3638 8.75623 11.7346 7.58018 11.7333 6.37506C11.7333 3.13553 9.10155 0.5 5.86665 0.5C2.63176 0.5 0 3.13553 0 6.37506C0 9.61458 2.63176 12.2501 5.86665 12.2501C7.08053 12.2515 8.26461 11.8737 9.25395 11.1693L10.1106 13.2456L12.8133 15.9524C12.9866 16.126 13.1924 16.2637 13.4189 16.3577C13.6454 16.4516 13.8881 16.5 14.1332 16.5C14.3784 16.5 14.6211 16.4517 14.8476 16.3577C15.0741 16.2638 15.2799 16.1261 15.4532 15.9525C15.6266 15.7789 15.7641 15.5729 15.8579 15.3461C15.9517 15.1193 16 14.8762 16 14.6307C16 14.3852 15.9517 14.1421 15.8579 13.9153C15.7641 13.6885 15.6266 13.4824 15.4533 13.3088ZM1.06666 6.37506C1.06666 3.7246 3.21999 1.56819 5.86665 1.56819C8.51331 1.56819 10.6666 3.7246 10.6666 6.37506C10.6666 9.02551 8.51331 11.1819 5.86665 11.1819C3.21999 11.1819 1.06666 9.02551 1.06666 6.37506ZM14.699 15.1971C14.5488 15.3471 14.3454 15.4314 14.1333 15.4314C13.9212 15.4314 13.7178 15.3471 13.5676 15.1971L11.0152 12.6411L10.2187 10.7105L12.1466 11.5081L14.6991 14.0641C14.8489 14.2145 14.933 14.4182 14.933 14.6306C14.9329 14.843 14.8488 15.0468 14.699 15.1971Z" fill="#232323"/>
</svg>
