<svg width="88" height="120" viewBox="0 0 88 120" fill="none" xmlns="http://www.w3.org/2000/svg">
<path fill-rule="evenodd" clip-rule="evenodd" d="M45.3817 28.5762C26.5104 28.5716 16.4559 28.5692 11.6353 28.568C9.52482 28.5674 7.82906 30.272 7.82803 32.3825L7.78735 116.129C7.78633 118.256 9.49934 119.986 11.6259 119.987C20.9386 119.989 45.5275 119.995 66.8368 120C93.5248 120.006 98.824 30.0962 59.4185 28.5981L57.0216 43.7272C77.7855 51.7663 77.9917 103.945 58.9511 103.95C44.1336 103.954 30.9139 103.952 24.6402 103.951C22.5143 103.951 20.7864 102.221 20.7864 100.096V46.5149C20.7864 44.4016 22.4892 42.6941 24.6023 42.6948C27.7804 42.6956 33.4144 42.6962 43.145 42.6944L45.3817 28.5762Z" fill="url(#paint0_linear_210_6791)"/>
<mask id="mask0_210_6791" style="mask-type:luminance" maskUnits="userSpaceOnUse" x="7" y="28" width="81" height="92">
<path fill-rule="evenodd" clip-rule="evenodd" d="M45.3817 28.5762C26.5104 28.5716 16.4559 28.5692 11.6353 28.568C9.52482 28.5674 7.82906 30.272 7.82803 32.3825L7.78735 116.129C7.78633 118.256 9.49934 119.986 11.6259 119.987C20.9386 119.989 45.5275 119.995 66.8368 120C93.5248 120.006 98.824 30.0962 59.4185 28.5981L57.0216 43.7272C77.7855 51.7663 77.9917 103.945 58.9511 103.95C44.1336 103.954 30.9139 103.952 24.6402 103.951C22.5143 103.951 20.7864 102.221 20.7864 100.096V46.5149C20.7864 44.4016 22.4892 42.6941 24.6023 42.6948C27.7804 42.6956 33.4144 42.6962 43.145 42.6944L45.3817 28.5762Z" fill="white"/>
</mask>
<g mask="url(#mask0_210_6791)">
<path d="M45.3817 28.5762L47.1037 28.8489L47.4231 26.8331L45.382 26.8325L45.3817 28.5762ZM59.4185 28.5981L59.4848 26.8559L57.9383 26.797L57.6963 28.3254L59.4185 28.5981ZM57.0215 43.7272L55.2996 43.4543L55.0792 44.8448L56.3919 45.3531L57.0215 43.7272ZM43.145 42.6944L43.1451 44.438L44.634 44.4377L44.8671 42.9671L43.145 42.6944ZM45.382 26.8325C26.5107 26.828 16.4564 26.8256 11.6358 26.8243L11.6348 30.3116C16.4554 30.3128 26.5098 30.3152 45.3812 30.3198L45.382 26.8325ZM11.6358 26.8243C8.55646 26.8236 6.08586 29.3144 6.08438 32.3818L9.57163 32.3834C9.57219 31.2296 10.4931 30.3114 11.6348 30.3116L11.6358 26.8243ZM6.08438 32.3818L6.0437 116.128L9.53094 116.13L9.57163 32.3834L6.08438 32.3818ZM6.0437 116.128C6.0422 119.209 8.52618 121.73 11.6253 121.73L11.6263 118.243C10.4724 118.243 9.53038 117.303 9.53094 116.13L6.0437 116.128ZM11.6253 121.73C20.9381 121.733 45.5269 121.739 66.8364 121.744L66.8372 118.256C45.528 118.251 20.9391 118.245 11.6263 118.243L11.6253 121.73ZM66.8364 121.744C74.6181 121.746 80.3825 115.219 84.0799 106.621C87.8323 97.8937 89.7907 86.3557 89.6561 74.8427C89.5217 63.3357 87.2939 51.6547 82.4918 42.6894C77.6669 33.6811 70.1323 27.2606 59.4848 26.8559L59.3521 30.3405C68.4074 30.6847 74.9874 36.0648 79.4176 44.336C83.8708 52.65 86.0387 63.7268 86.1691 74.8837C86.2995 86.0348 84.392 97.0667 80.8762 105.243C77.3052 113.548 72.3994 118.258 66.8372 118.256L66.8364 121.744ZM57.6963 28.3254L55.2996 43.4543L58.7437 43.9999L61.1405 28.871L57.6963 28.3254ZM58.9514 105.694C64.6762 105.692 68.7081 101.726 71.1832 96.404C73.6632 91.0716 74.793 84.0129 74.6563 76.8182C74.5193 69.6089 73.108 62.0984 70.3573 55.8273C67.6175 49.5817 63.4442 44.344 57.6512 42.1011L56.3919 45.3531C60.981 47.1298 64.6199 51.4292 67.1637 57.2283C69.6963 63.0018 71.0397 70.0438 71.1696 76.8847C71.2999 83.7402 70.2089 90.2296 68.0212 94.9336C65.8287 99.6478 62.7462 102.205 58.9507 102.207L58.9514 105.694ZM24.6396 105.695C30.9135 105.696 44.1336 105.697 58.9514 105.694L58.9507 102.207C44.1336 102.21 30.9142 102.209 24.6405 102.207L24.6396 105.695ZM19.0428 100.096C19.0428 103.184 21.5506 105.694 24.6396 105.695L24.6405 102.207C23.4782 102.207 22.53 101.259 22.53 100.096L19.0428 100.096ZM19.0428 46.5149V100.096L22.53 100.096V46.5147L19.0428 46.5149ZM24.6028 40.9511C21.5234 40.9503 19.0428 43.4417 19.0428 46.5149L22.53 46.5147C22.53 45.3616 23.455 44.438 24.6016 44.4384L24.6028 40.9511ZM43.1446 40.9508C33.4144 40.9525 27.7807 40.952 24.6028 40.9511L24.6016 44.4384C27.7802 44.4393 33.4144 44.4398 43.1451 44.438L43.1446 40.9508ZM44.8671 42.9671L47.1037 28.8489L43.6595 28.3035L41.4228 42.4217L44.8671 42.9671Z" fill="#232323"/>
</g>
<mask id="mask1_210_6791" style="mask-type:luminance" maskUnits="userSpaceOnUse" x="0" y="32" width="33" height="86">
<path d="M32.173 34.6339L8.74402 32.3443L0.638265 115.244L24.0672 117.534L32.173 34.6339Z" fill="white"/>
</mask>
<g mask="url(#mask1_210_6791)">
<path d="M8.60291 33.787L13.5168 33.0463C14.0405 32.9673 14.529 33.3279 14.6079 33.8516C14.6869 34.3753 14.3263 34.8638 13.8025 34.9428L8.88868 35.6835L8.60291 33.787Z" fill="#232323"/>
<path d="M8.19751 39.7236L14.3763 39.3526C14.905 39.3209 15.3593 39.7238 15.391 40.2525C15.4227 40.7811 15.0198 41.2354 14.4912 41.2671L8.3124 41.6381L8.19751 39.7236Z" fill="#232323"/>
<path d="M8.20715 43.5378L12.3228 42.7805C12.7963 42.6934 13.2508 43.0067 13.338 43.4801C13.4251 43.9537 13.1118 44.4082 12.6383 44.4954L8.52261 45.2526L8.20715 43.5378Z" fill="#232323"/>
<path d="M7.99048 47.2167L12.7275 46.4261C13.1509 46.3555 13.5513 46.6414 13.6219 47.0648C13.6925 47.4881 13.4066 47.8887 12.9832 47.9593L8.24622 48.7496L7.99048 47.2167Z" fill="#232323"/>
<path d="M8.53601 51.0896L15.1373 50.5201C15.713 50.4704 16.2199 50.8967 16.2695 51.4725C16.3191 52.0481 15.8927 52.5549 15.3171 52.6046L8.71578 53.1743L8.53601 51.0896Z" fill="#232323"/>
<path d="M8.10693 54.9853L11.5656 54.5397C12.0432 54.4783 12.4801 54.8155 12.5417 55.2929C12.6032 55.7705 12.2659 56.2076 11.7884 56.269L8.32968 56.7147L8.10693 54.9853Z" fill="#232323"/>
<path d="M7.88171 59.0794L13.2825 58.8607C13.8598 58.8373 14.3468 59.2865 14.3701 59.8636C14.3935 60.441 13.9444 60.9279 13.3671 60.9513L7.96624 61.17L7.88171 59.0794Z" fill="#232323"/>
<path d="M8.21558 62.8311L13.1295 62.0904C13.6532 62.0114 14.1417 62.372 14.2206 62.8958C14.2995 63.4194 13.939 63.908 13.4152 63.987L8.50136 64.7276L8.21558 62.8311Z" fill="#232323"/>
<path d="M8.53052 66.7781L14.6791 66.0641C15.2052 66.0031 15.6812 66.3801 15.7423 66.9061C15.8033 67.4322 15.4264 67.9082 14.9002 67.9694L8.75164 68.6832L8.53052 66.7781Z" fill="#232323"/>
<path d="M8.2196 69.9588L12.3353 69.2016C12.8088 69.1144 13.2633 69.4277 13.3504 69.9013C13.4375 70.3747 13.1243 70.8293 12.6507 70.9164L8.53508 71.6737L8.2196 69.9588Z" fill="#232323"/>
<path d="M8.25878 73.1416L13.9618 73.3687C14.3907 73.3857 14.7245 73.7472 14.7074 74.176C14.6903 74.6049 14.3288 74.9386 13.8999 74.9217L8.1969 74.6947L8.25878 73.1416Z" fill="#232323"/>
<path d="M8.40796 76.9903L12.1654 76.6662C12.7411 76.6165 13.248 77.043 13.2976 77.6186C13.3472 78.1943 12.9208 78.7012 12.3452 78.7509L8.58773 79.075L8.40796 76.9903Z" fill="#232323"/>
<path d="M8.06104 82.3302L13.1511 81.6744C13.6287 81.6128 14.0657 81.9501 14.1272 82.4276C14.1887 82.9052 13.8514 83.3422 13.3739 83.4037L8.28378 84.0595L8.06104 82.3302Z" fill="#232323"/>
<path d="M7.70459 85.9766L16.3866 85.6253C16.964 85.6017 17.4509 86.0509 17.4742 86.6282C17.4976 87.2055 17.0484 87.6925 16.4712 87.7159L7.78912 88.0672L7.70459 85.9766Z" fill="#232323"/>
<path d="M7.96436 90.4868L12.8782 89.7463C13.4019 89.6673 13.8905 90.0279 13.9694 90.5515C14.0483 91.0753 13.6877 91.5638 13.164 91.6428L8.25012 92.3833L7.96436 90.4868Z" fill="#232323"/>
<path d="M8.16028 95.6486L14.3089 94.9348C14.835 94.8736 15.311 95.2506 15.372 95.7768C15.4331 96.3028 15.0561 96.7788 14.53 96.8399L8.38139 97.5539L8.16028 95.6486Z" fill="#232323"/>
<path d="M8.16113 99.2241L14.3091 99.3529C14.7905 99.3631 15.1725 99.7615 15.1624 100.243C15.1523 100.724 14.7539 101.106 14.2725 101.096L8.12451 100.967L8.16113 99.2241Z" fill="#232323"/>
<path d="M8.39319 104.042L13.1302 103.251C13.5536 103.181 13.954 103.466 14.0246 103.89C14.0952 104.313 13.8093 104.714 13.386 104.784L8.64893 105.575L8.39319 104.042Z" fill="#232323"/>
<path d="M7.89746 107.79L14.4987 107.22C15.0744 107.17 15.5813 107.597 15.6309 108.172C15.6806 108.748 15.2542 109.255 14.6785 109.305L8.07723 109.874L7.89746 107.79Z" fill="#232323"/>
<path d="M8.35291 111.597L11.8116 111.151C12.2891 111.089 12.7261 111.427 12.7876 111.904C12.8491 112.382 12.5119 112.819 12.0343 112.88L8.57564 113.326L8.35291 111.597Z" fill="#232323"/>
</g>
<path d="M36.3662 59.4605L33.6498 58.9816L32.4962 65.5233L35.2126 66.0022L36.3662 59.4605Z" fill="white"/>
<path d="M57.6043 57.3866L55.3013 56.9806L54.4868 61.5992L56.7898 62.0053L57.6043 57.3866Z" fill="white"/>
<path d="M54.9144 55.9678L41.521 53.6065L38.0676 73.1892L51.461 75.5506L54.9144 55.9678Z" fill="white"/>
<path d="M53.5676 69.3695L70.0759 76.2418V79.9135L58.9983 77.8574L51.4401 74.57L53.5676 69.3695Z" fill="white"/>
<path d="M40.1846 74.7775L38.1716 74.1144L36.0626 76.065L25.2538 73.0072L26.6774 75.3269L30.867 78.6157L39.7007 80.1243L40.1846 74.7775Z" fill="white"/>
<path d="M40.1846 74.7775L38.1716 74.1144L36.0626 76.065L25.2538 73.0072L26.6774 75.3269L30.867 78.6157L39.7007 80.1243L40.1846 74.7775Z" fill="white"/>
<path d="M49.5876 74.9469L41.1543 73.46L37.5358 93.9791L45.9691 95.466L49.5876 74.9469Z" fill="white"/>
<path d="M22.9867 88.8232L27.4683 86.187L33.9535 85.922L37.8026 87.3455L54.2002 89.8232L56.362 89.35L67.0125 91.194L63.3745 95.4657L48.7694 96.0969L32.6882 92.8818L31.7918 89.35L22.9867 88.8232Z" fill="white"/>
<path d="M59.0119 15.7911L50.5306 14.448L44.361 53.3965L52.8423 54.7397L59.0119 15.7911Z" fill="white"/>
<path d="M54.0525 14.7901L56.4181 0.365448C56.5806 0.22887 56.7173 0.131855 56.8358 0.0719968C56.96 0.00941835 57.0569 -0.00899434 57.139 0.00385613C57.2203 0.0165671 57.3012 0.0621979 57.3889 0.156632C57.4733 0.247736 57.5593 0.379606 57.6531 0.557839L55.2868 14.9857L54.0525 14.7901Z" fill="#232323"/>
<path d="M50.6908 15.4434L44.6392 52.9361L43.4053 52.7404L49.5888 15.1496C49.7051 14.441 50.3869 13.9594 51.1117 14.0743L58.6808 15.2736C59.4054 15.3885 59.8989 16.0561 59.7827 16.7649L53.5348 54.2985L52.2499 54.0989L58.479 16.6772L58.4931 16.5918L58.4056 16.5778L54.5801 15.9717L50.7926 15.3716L50.7048 15.3576L50.6908 15.4434Z" fill="#232323"/>
<path d="M41.2231 53.7315L38.2135 74.361L36.8712 74.1552L39.797 53.4456C39.9131 52.737 40.5951 52.2554 41.3197 52.3703L44.9628 52.9476C45.6876 53.0623 46.1809 53.7299 46.0648 54.4387L42.8818 73.8475C42.7655 74.5561 42.0838 75.0377 41.3589 74.9227L41.3364 74.9191L44.7201 54.2856L44.7342 54.2L44.6467 54.1862L42.5326 53.8513L41.3246 53.6597L41.2372 53.6459L41.2231 53.7315Z" fill="#232323"/>
<path d="M51.1151 76.4659L54.4984 55.835L54.5125 55.7494L54.425 55.7356L52.1966 55.3825L50.9383 55.1831L50.8507 55.1693L50.8368 55.2547L47.4529 75.8884L47.3801 75.8769C46.6552 75.762 46.1618 75.0943 46.2781 74.3855L49.6713 53.6935L54.6267 54.4787C55.3517 54.5936 55.845 55.2612 55.7287 55.97L52.5452 75.3829C52.4339 76.0605 51.8041 76.5297 51.1151 76.4659Z" fill="#232323"/>
<path d="M51.9841 16.5942L52.9923 16.7539C53.2901 16.8012 53.5398 16.9938 53.5542 17.2514C53.5609 17.3682 53.5438 17.473 53.5011 17.5792C53.408 17.8111 53.1164 17.9108 52.8247 17.8646L51.7829 17.6996C51.5083 17.6561 51.2741 17.4916 51.2426 17.2583C51.2241 17.1206 51.244 16.9977 51.3083 16.8648C51.4164 16.642 51.701 16.5494 51.9841 16.5942Z" fill="#232323"/>
<path d="M56.0046 17.2313L57.0128 17.391C57.3104 17.4381 57.5603 17.6311 57.5746 17.8883C57.5812 18.0051 57.5643 18.1099 57.5215 18.2165C57.4283 18.4482 57.1369 18.5479 56.845 18.5017L55.8034 18.3366C55.5286 18.2932 55.2944 18.1286 55.263 17.8954C55.2444 17.7575 55.2643 17.6346 55.3288 17.5017C55.4371 17.2791 55.7214 17.1865 56.0046 17.2313Z" fill="#232323"/>
<path d="M41.7449 57.9417L42.0817 55.8877C42.1225 55.6387 42.272 55.4232 42.496 55.3609C42.6174 55.3271 42.7209 55.3191 42.817 55.3341C42.9127 55.3494 43.0067 55.3887 43.1075 55.4577C43.2913 55.5838 43.3582 55.827 43.3185 56.0688L42.976 58.1566C42.9394 58.38 42.8161 58.5767 42.6221 58.6539C42.4876 58.7076 42.3754 58.7238 42.2711 58.7076C42.1665 58.6914 42.0603 58.6414 41.9405 58.5462C41.7686 58.41 41.7067 58.175 41.7449 57.9417Z" fill="#232323"/>
<path d="M51.5098 59.4889L51.8466 57.435C51.8874 57.186 52.0369 56.9705 52.2609 56.9082C52.3823 56.8742 52.4858 56.8662 52.5817 56.8814C52.6776 56.8965 52.7714 56.9359 52.8722 57.0048C53.0562 57.131 53.123 57.3741 53.0832 57.6161L52.7409 59.7038C52.7041 59.9273 52.581 60.1238 52.387 60.2012C52.2522 60.2547 52.1401 60.271 52.0358 60.2547C51.9312 60.2387 51.8252 60.1883 51.7052 60.0933C51.5335 59.9571 51.4716 59.7221 51.5098 59.4889Z" fill="#232323"/>
<path d="M50.4282 66.0837L50.7651 64.0295C50.806 63.7807 50.9555 63.5652 51.1795 63.5027C51.3007 63.4691 51.4045 63.4609 51.5004 63.4761C51.5963 63.4912 51.6902 63.5305 51.7908 63.5995C51.9748 63.7256 52.0416 63.9688 52.002 64.2107L51.6595 66.2985C51.6229 66.522 51.4997 66.7185 51.3056 66.7959C51.171 66.8496 51.0587 66.8657 50.9546 66.8496C50.85 66.8334 50.7438 66.7832 50.6238 66.6882C50.4521 66.552 50.39 66.3168 50.4282 66.0837Z" fill="#232323"/>
<path d="M49.3305 72.7767L49.6674 70.7227C49.7084 70.4737 49.8578 70.2582 50.0817 70.1958C50.203 70.162 50.3068 70.154 50.4027 70.1691C50.4986 70.1845 50.5926 70.2237 50.6932 70.2928C50.8771 70.4188 50.9439 70.6619 50.9043 70.9039L50.5619 72.9915C50.5253 73.2151 50.402 73.4117 50.2079 73.489C50.0733 73.5425 49.961 73.5587 49.8569 73.5425C49.7523 73.5265 49.6461 73.4762 49.5262 73.381C49.3544 73.2449 49.2924 73.0098 49.3305 72.7767Z" fill="#232323"/>
<path d="M40.5631 64.5205L40.8998 62.4663C40.9406 62.2175 41.0902 62.0018 41.3142 61.9394C41.4354 61.9058 41.539 61.8976 41.635 61.9129C41.7308 61.9279 41.8247 61.9673 41.9254 62.0364C42.1093 62.1624 42.1763 62.4055 42.1365 62.6475L41.7941 64.7351C41.7574 64.9587 41.6342 65.1552 41.4401 65.2328C41.3057 65.2863 41.1936 65.3023 41.0891 65.2863C40.9845 65.2701 40.8785 65.2199 40.7585 65.1248C40.5866 64.9887 40.5247 64.7535 40.5631 64.5205Z" fill="#232323"/>
<path d="M39.5658 71.2296L39.9027 69.1754C39.9435 68.9266 40.0929 68.7109 40.3169 68.6485C40.4383 68.6149 40.5417 68.6067 40.6378 68.622C40.7337 68.637 40.8275 68.6764 40.9283 68.7455C41.112 68.8715 41.179 69.1148 41.1392 69.3566L40.7968 71.4444C40.7602 71.6678 40.6372 71.8643 40.4428 71.9419C40.3084 71.9954 40.1963 72.0114 40.0918 71.9954C39.9872 71.9792 39.8812 71.929 39.7613 71.8339C39.5895 71.6978 39.5276 71.4627 39.5658 71.2296Z" fill="#232323"/>
<path d="M53.1698 26.6725L56.875 27.2596L56.6449 28.6633L52.9458 28.0771C52.6169 28.025 52.3177 27.8547 52.2131 27.5746C52.1674 27.4519 52.1526 27.3446 52.1688 27.2425C52.1849 27.1405 52.233 27.036 52.3254 26.9209C52.5111 26.6896 52.8445 26.621 53.1698 26.6725Z" fill="#232323"/>
<path d="M53.6306 31.2845L56.0974 31.6753L55.8671 33.0791L53.4067 32.6892C53.0137 32.6269 52.6606 32.3929 52.6273 32.0498C52.614 31.9131 52.6341 31.7846 52.6965 31.6479C52.8395 31.3358 53.2419 31.223 53.6306 31.2845Z" fill="#232323"/>
<path d="M51.8512 35.6657L55.4242 36.2319L55.1941 37.6355L51.6271 37.0704C51.2922 37.0174 50.9878 36.8416 50.8891 36.5548C50.8488 36.4378 50.8364 36.3344 50.8523 36.2354C50.8678 36.1365 50.9128 36.0354 50.9973 35.9248C51.1799 35.6856 51.5199 35.6132 51.8512 35.6657Z" fill="#232323"/>
<path d="M52.1003 40.4938L54.4652 40.8685L54.2349 42.2723L51.8764 41.8984C51.6819 41.8678 51.4901 41.7921 51.3453 41.6794C51.2015 41.5673 51.1072 41.4216 51.0939 41.2465C51.0843 41.1182 51.1035 40.9968 51.1591 40.8683C51.2974 40.5492 51.7059 40.4312 52.1003 40.4938Z" fill="#232323"/>
<path d="M50.1455 44.6441L53.8507 45.2314L53.6206 46.6352L49.9215 46.0491C49.5926 45.997 49.2932 45.8265 49.189 45.5464C49.1429 45.4235 49.1283 45.3163 49.1443 45.2143C49.1604 45.1123 49.2087 45.0078 49.3011 44.8928C49.4868 44.6616 49.8202 44.5927 50.1455 44.6441Z" fill="#232323"/>
<path d="M50.5808 49.2799L53.0477 49.6706L52.8173 51.0744L50.3569 50.6845C49.9639 50.6221 49.6108 50.3883 49.5775 50.0452C49.5643 49.9083 49.5841 49.78 49.6467 49.6434C49.7897 49.3311 50.1921 49.2182 50.5808 49.2799Z" fill="#232323"/>
<path d="M48.8228 53.6611L49.8341 53.8213L49.6041 55.2249L48.598 55.0657C48.364 55.0286 48.1386 54.9224 47.9827 54.7719C47.8279 54.6225 47.7447 54.4333 47.779 54.2223C47.7799 54.2168 47.7808 54.2112 47.7818 54.2054C47.819 53.9957 47.9581 53.8426 48.1508 53.7493C48.3452 53.6551 48.5904 53.6241 48.8228 53.6611Z" fill="#232323"/>
<path d="M47.2122 62.8142L48.3982 62.9807L48.1375 64.3801L46.9578 64.2143C46.6835 64.1758 46.4187 64.0684 46.2347 63.9172C46.0525 63.7671 45.9536 63.5777 45.9925 63.3674C45.9936 63.362 45.9946 63.3563 45.9958 63.3509C46.038 63.1415 46.1998 62.9898 46.4253 62.8979C46.6525 62.8053 46.9395 62.776 47.2122 62.8142Z" fill="#232323"/>
<path d="M45.7466 71.7042L46.7579 71.8643L46.5278 73.2681L45.5217 73.1089C45.2879 73.0717 45.0624 72.9654 44.9064 72.8149C44.7517 72.6656 44.6684 72.4765 44.7027 72.2655C44.7036 72.2599 44.7047 72.2543 44.7057 72.2486C44.7428 72.0388 44.8818 71.8859 45.0747 71.7924C45.2691 71.6983 45.5142 71.6672 45.7466 71.7042Z" fill="#232323"/>
<path d="M48.4027 58.2621L49.0372 58.3488L48.7851 59.6631L48.1555 59.5772C47.8924 59.5412 47.6495 59.4457 47.4832 59.3109C47.3189 59.1779 47.23 59.0077 47.2635 58.8121C47.2968 58.6177 47.4479 58.4635 47.6612 58.3652C47.8751 58.2663 48.1463 58.2271 48.4027 58.2621Z" fill="#232323"/>
<path d="M46.9758 67.349L47.6188 67.436L47.3637 68.7502L46.7256 68.6637C46.4586 68.6276 46.2123 68.532 46.0436 68.3973C45.8771 68.2641 45.7868 68.0939 45.8206 67.8982C45.8546 67.704 46.0076 67.55 46.2236 67.4517C46.4408 67.353 46.7156 67.3138 46.9758 67.349Z" fill="#232323"/>
<path d="M37.77 73.4461L41.7654 73.6553L41.6389 74.9534L37.6438 74.7439L37.77 73.4461Z" fill="#232323"/>
<path d="M51.3253 75.2638L47.6338 74.6837L47.4537 75.8913L51.1274 76.4706L51.3253 75.2638Z" fill="#232323"/>
<path fill-rule="evenodd" clip-rule="evenodd" d="M55.4545 68.7964C55.3629 68.7584 55.2672 68.7315 55.1692 68.7162L53.2288 68.4086L51.9373 76.2828L56.5564 77.1919C56.9658 77.2725 57.3182 77.5253 57.5201 77.8829L57.6005 78.0257C57.7834 78.3498 58.1076 78.5749 58.4807 78.6368L70.5017 80.6338C70.8564 80.6927 71.2182 80.5846 71.4783 80.3421C71.6785 80.1554 71.7529 79.8727 71.6659 79.6154C70.9849 77.6004 70.3378 76.3618 68.7726 74.4576C68.646 74.3036 68.4814 74.1835 68.2954 74.1067L55.4545 68.7964ZM55.6689 70.3955C55.454 70.3046 55.2283 70.2403 54.9975 70.2037L53.5225 69.97L52.6914 75.0391L57.4903 75.9264C57.8708 75.9967 58.2052 76.2158 58.4167 76.5333L58.5764 76.7729C58.7949 77.1011 59.1447 77.3237 59.5394 77.3863L69.2005 78.9172C69.4693 78.9598 69.6841 78.702 69.582 78.455C69.2034 77.5411 68.8458 76.8808 68.2143 76.0048C67.9986 75.7058 67.6978 75.476 67.3543 75.3309L55.6689 70.3955Z" fill="#232323"/>
<mask id="mask2_210_6791" style="mask-type:luminance" maskUnits="userSpaceOnUse" x="51" y="68" width="21" height="13">
<path fill-rule="evenodd" clip-rule="evenodd" d="M55.4545 68.7964C55.3629 68.7584 55.2672 68.7315 55.1692 68.7162L53.2288 68.4086L51.9373 76.2828L56.5564 77.1919C56.9658 77.2725 57.3182 77.5253 57.5201 77.8829L57.6005 78.0257C57.7834 78.3498 58.1076 78.5749 58.4807 78.6368L70.5017 80.6338C70.8564 80.6927 71.2182 80.5846 71.4783 80.3421C71.6785 80.1554 71.7529 79.8727 71.6659 79.6154C70.9849 77.6004 70.3378 76.3618 68.7726 74.4576C68.646 74.3036 68.4814 74.1835 68.2954 74.1067L55.4545 68.7964ZM55.6689 70.3955C55.454 70.3046 55.2283 70.2403 54.9975 70.2037L53.5225 69.97L52.6914 75.0391L57.4903 75.9264C57.8708 75.9967 58.2052 76.2158 58.4167 76.5333L58.5764 76.7729C58.7949 77.1011 59.1447 77.3237 59.5394 77.3863L69.2005 78.9172C69.4693 78.9598 69.6841 78.702 69.582 78.455C69.2034 77.5411 68.8458 76.8808 68.2143 76.0048C67.9986 75.7058 67.6978 75.476 67.3543 75.3309L55.6689 70.3955Z" fill="white"/>
</mask>
<g mask="url(#mask2_210_6791)">
<path d="M53.2288 68.4084L53.2569 68.2374L53.0818 68.2098L53.0538 68.3807L53.2288 68.4084ZM51.9373 76.2828L51.7624 76.2549L51.7352 76.4198L51.9028 76.4526L51.9373 76.2828ZM53.5226 69.9698L53.5509 69.7988L53.376 69.7709L53.3477 69.9421L53.5226 69.9698ZM52.6914 75.039L52.5164 75.0112L52.4892 75.1778L52.6588 75.2092L52.6914 75.039ZM55.1412 68.887C55.2254 68.9005 55.3074 68.9235 55.3857 68.9559L55.5234 68.6367C55.419 68.5934 55.3093 68.5626 55.1974 68.5449L55.1412 68.887ZM53.2007 68.5795L55.1412 68.887L55.1974 68.5449L53.2569 68.2374L53.2007 68.5795ZM52.1124 76.3105L53.4037 68.4363L53.0538 68.3807L51.7624 76.2549L52.1124 76.3105ZM56.5912 77.0221L51.972 76.1128L51.9028 76.4526L56.5218 77.3617L56.5912 77.0221ZM57.6752 77.7994C57.4482 77.3969 57.0517 77.1126 56.5912 77.0221L56.5218 77.3617C56.8799 77.4323 57.1886 77.6534 57.365 77.9664L57.6752 77.7994ZM57.7558 77.942L57.6752 77.7994L57.365 77.9664L57.4456 78.109L57.7558 77.942ZM58.5102 78.4661C58.1903 78.413 57.9125 78.2199 57.7558 77.942L57.4456 78.109C57.6545 78.4797 58.025 78.7369 58.4515 78.8079L58.5102 78.4661ZM70.5313 80.4629L58.5102 78.4661L58.4515 78.8079L70.4723 80.8047L70.5313 80.4629ZM71.356 80.2165C71.1363 80.4214 70.8306 80.5126 70.5313 80.4629L70.4723 80.8047C70.8822 80.8727 71.3004 80.7478 71.6008 80.4675L71.356 80.2165ZM71.4979 79.6696C71.563 79.8621 71.5077 80.075 71.356 80.2165L71.6008 80.4675C71.8496 80.2354 71.9434 79.8832 71.8343 79.5611L71.4979 79.6696ZM68.6344 74.5662C70.1862 76.4536 70.8233 77.6738 71.4979 79.6696L71.8343 79.5611C71.1468 77.527 70.4894 76.2697 68.9106 74.3491L68.6344 74.5662ZM68.2267 74.2663C68.3863 74.3324 68.527 74.4351 68.6344 74.5662L68.9106 74.3491C68.7653 74.1723 68.5765 74.0347 68.3643 73.947L68.2267 74.2663ZM55.3857 68.9559L68.2267 74.2663L68.3643 73.947L55.5234 68.6367L55.3857 68.9559ZM54.9695 70.3745C55.1859 70.4089 55.3975 70.4694 55.5989 70.5546L55.7391 70.2363C55.5107 70.1398 55.2709 70.0713 55.0256 70.0324L54.9695 70.3745ZM53.4945 70.1409L54.9695 70.3745L55.0256 70.0324L53.5509 69.7988L53.4945 70.1409ZM52.8663 75.0666L53.6978 69.9977L53.3477 69.9421L52.5164 75.0112L52.8663 75.0666ZM57.523 75.756L52.7242 74.8687L52.6588 75.2092L57.4576 76.0967L57.523 75.756ZM58.5653 76.439C58.3275 76.0819 57.9509 75.835 57.523 75.756L57.4576 76.0967C57.7906 76.1581 58.0834 76.3501 58.2684 76.6278L58.5653 76.439ZM58.725 76.6786L58.5653 76.439L58.2684 76.6278L58.4281 76.8674L58.725 76.6786ZM59.5676 77.2153C59.222 77.1605 58.916 76.9656 58.725 76.6786L58.4281 76.8674C58.6738 77.2364 59.0673 77.4871 59.5116 77.5574L59.5676 77.2153ZM69.2286 78.746L59.5676 77.2153L59.5116 77.5574L69.1725 79.0883L69.2286 78.746ZM69.418 78.5197C69.4668 78.6381 69.365 78.7676 69.2286 78.746L69.1725 79.0883C69.574 79.1519 69.9018 78.7657 69.7463 78.3899L69.418 78.5197ZM68.0696 76.1046C68.693 76.9692 69.0443 77.6179 69.418 78.5197L69.7463 78.3899C69.3629 77.4646 68.999 76.7924 68.3591 75.9051L68.0696 76.1046ZM67.2843 75.4901C67.6002 75.6233 67.8742 75.8336 68.0696 76.1046L68.3591 75.9051C68.1231 75.5778 67.7957 75.3287 67.4245 75.1719L67.2843 75.4901ZM55.5989 70.5546L67.2843 75.4901L67.4245 75.1719L55.7391 70.2363L55.5989 70.5546Z" fill="#232323"/>
</g>
<path d="M55.6389 55.8151L55.874 55.8845C56.2091 55.9834 56.5327 56.1157 56.8399 56.2798C57.0689 56.402 57.2819 56.553 57.4575 56.7415C57.551 56.8421 57.6284 56.9331 57.7197 57.0484C57.8709 57.2428 57.9607 57.3793 58.057 57.534C58.1853 57.7401 58.2932 57.9594 58.356 58.1929C58.4165 58.417 58.4449 58.6105 58.4407 58.8846C58.4594 59.3168 58.4414 59.5784 58.3476 60.0818C58.2299 60.5995 58.133 60.8617 57.8941 61.2723C57.6671 61.567 57.5159 61.7326 57.2115 61.972L56.7524 62.2732C56.4827 62.45 56.1782 62.5703 55.8584 62.6257C55.4755 62.6923 55.0841 62.6953 54.7003 62.6344L54.5253 62.6069L54.735 61.3272L55.0869 61.3829C55.3507 61.4247 55.621 61.3956 55.8691 61.2988C55.9836 61.254 56.0909 61.1932 56.1873 61.1178L56.301 61.0294C56.5205 60.858 56.701 60.6439 56.8312 60.4003C56.898 60.275 56.9438 60.1398 56.9667 60L57.0129 59.7188L57.1055 59.1536C57.1297 59.0067 57.1273 58.8565 57.0987 58.7104L57.0751 58.5905C57.0448 58.437 56.9859 58.29 56.9009 58.1575C56.7953 57.9924 56.6675 57.8416 56.5214 57.7089L56.5065 57.6953C56.3941 57.5933 56.2682 57.5063 56.1322 57.4369L55.9083 57.3221L55.4211 57.144L55.6389 55.8151Z" fill="#232323"/>
<path d="M38.5369 62.6703L36.8322 62.4247L36.6195 63.8992L38.3243 64.1448L38.5369 62.6703Z" fill="#232323"/>
<path fill-rule="evenodd" clip-rule="evenodd" d="M35.1966 58.134C33.9276 57.9396 32.7412 58.8105 32.5466 60.0795L31.8206 64.8147C31.6262 66.0835 32.4971 67.2697 33.7659 67.4641C35.0348 67.6585 36.2211 66.7874 36.4157 65.5185L37.1418 60.7834C37.3364 59.5144 36.4654 58.3282 35.1966 58.134ZM35.0132 59.6333C34.5337 59.5599 34.0854 59.8891 34.0118 60.3686L33.3151 64.9135C33.2415 65.393 33.5705 65.8411 34.05 65.9147C34.5295 65.9881 34.9779 65.6589 35.0513 65.1794L35.7483 60.6345C35.8217 60.155 35.4927 59.7069 35.0132 59.6333Z" fill="#232323"/>
<path fill-rule="evenodd" clip-rule="evenodd" d="M41.3593 74.8908L36.9817 73.9317C36.6238 74.7909 35.6707 75.2364 34.7816 74.9602L25.7741 72.1617C24.9713 71.9122 24.3004 72.8095 24.7666 73.509C27.6837 77.8853 32.5249 80.5947 37.7807 80.7926L40.3997 80.8913L41.3593 74.8908ZM39.7353 75.1595L37.9977 74.8741C37.7467 76.1694 36.4267 76.9602 35.1661 76.5705L26.9041 74.0166C29.7813 77.8407 34.4613 79.8884 39.2212 79.3927L39.7353 75.1595Z" fill="#232323"/>
<path fill-rule="evenodd" clip-rule="evenodd" d="M42.2959 74.7573L40.9404 74.4795L39.9516 80.7463L38.3766 80.687L37.7071 85.7389C37.6584 86.1061 37.2635 86.317 36.9313 86.1531C35.7157 85.5534 34.387 85.2169 33.0324 85.166L32.8214 85.158C28.967 85.0129 25.1825 86.2157 22.1189 88.5594L21.4825 89.0464C20.995 89.4194 21.2663 90.1983 21.8801 90.1876L29.5752 90.054C30.3558 90.0406 30.9669 90.7227 30.8677 91.4972L30.6853 92.9234C30.6119 93.4974 31.0112 94.0246 31.5836 94.1095L40.8794 95.4891C46.7739 96.3639 52.7501 96.5489 58.6875 96.0406L61.6811 95.7841C63.4448 95.6331 65.0897 94.8331 66.2975 93.539L68.0355 91.6768C68.5109 91.1675 68.2266 90.3342 67.5391 90.2216L55.9111 88.3171C55.3434 88.2239 54.7663 88.4175 54.3692 88.834C54.0418 89.1774 53.5647 89.3348 53.0973 89.2539L49.0681 88.5566C48.1274 88.3938 47.4502 87.5425 47.9546 86.7318C48.0901 86.5138 48.1386 86.3551 48.1792 86.1016L49.6254 77.1023L49.8773 76.2563L48.4558 76.0195L48.4127 76.0108C48.4905 76.1279 48.5332 76.2695 48.5276 76.4193C48.5201 76.6176 48.3466 76.7684 48.1492 76.7481L46.5486 76.5844C45.9861 76.5271 45.1973 76.5764 45.1706 77.1412C45.1488 77.599 45.7205 77.8468 46.1734 77.9178L47.9036 78.1889C48.0901 78.2182 48.2197 78.3906 48.1954 78.5779L47.8802 81.0282C47.8682 81.1218 47.7836 81.189 47.6894 81.1794L44.3082 80.8338C43.9105 80.7932 43.4579 80.8069 43.2978 81.1733C43.0746 81.6845 43.7942 82.1098 44.348 82.1764L47.4178 82.5455C47.5142 82.5572 47.5826 82.6452 47.5698 82.7415L47.2584 85.0954C47.2283 85.3238 47.091 85.5219 46.9543 85.7194C46.8093 85.9288 46.6647 86.1375 46.6483 86.3813L46.3397 89.0581C46.3725 89.3984 46.4848 89.5219 46.8314 89.6387L53.6094 90.6338C54.4906 90.7634 55.3835 90.4893 56.0405 89.8877L66.0365 91.4812C66.2727 91.5189 66.376 91.8012 66.2197 91.9823C64.8918 93.5223 63.0143 94.482 60.9882 94.6562L56.0534 95.0807C52.1106 95.4197 48.1409 95.2659 44.236 94.6225L34.8514 93.0763C33.5919 92.8688 32.705 91.726 32.8165 90.4544L32.8642 89.91C32.9276 89.1866 32.3493 88.5681 31.6232 88.5831L25.0175 88.7197L25.3955 88.4925C27.4947 87.2306 29.8784 86.5192 32.3257 86.4238C33.8538 86.3642 35.3716 86.6978 36.7339 87.3924L36.9594 87.5073C38.0802 87.941 39.3173 87.2385 39.519 86.0538L41.181 76.2925C41.3071 75.5529 41.7078 75.0166 42.2959 74.7573Z" fill="#232323"/>
<defs>
<linearGradient id="paint0_linear_210_6791" x1="48.6128" y1="27.7521" x2="39.3103" y2="122.94" gradientUnits="userSpaceOnUse">
<stop stop-color="#FBB83E"/>
<stop offset="1" stop-color="#E7581A"/>
</linearGradient>
</defs>
</svg>
