<svg width="80" height="24" viewBox="0 0 80 24" fill="none" xmlns="http://www.w3.org/2000/svg">
<path d="M21.8172 12.9732L21.9276 9.24396H21.762L19.2767 15.8716L16.7915 9.24396H16.6259L16.7363 12.9732V18.9363H14.6377V6.05011H17.5095L19.2952 10.7947H19.424L21.2281 6.05011H23.9158V18.9363H21.8172V12.9732ZM33.8127 18.9363C33.2357 18.9363 32.7878 18.7947 32.4688 18.5116C32.1619 18.2163 31.9778 17.8101 31.9165 17.2932H31.8245C31.6525 17.884 31.3151 18.3455 30.812 18.6778C30.3086 18.9978 29.6891 19.1578 28.9527 19.1578C27.9954 19.1578 27.2344 18.9055 26.67 18.4009C26.1054 17.8963 25.8231 17.1947 25.8231 16.2963C25.8231 14.3763 27.2283 13.4163 30.0388 13.4163H31.714V12.7886C31.714 12.1855 31.5668 11.7301 31.2722 11.4224C30.9777 11.1147 30.4991 10.9609 29.8363 10.9609C29.2349 10.9609 28.7502 11.0778 28.382 11.3116C28.0138 11.5455 27.7009 11.847 27.4432 12.2163L26.0993 11.0716C26.3939 10.5424 26.8662 10.0993 27.5168 9.74242C28.1795 9.37319 29.0324 9.18857 30.0756 9.18857C31.3275 9.18857 32.3031 9.48396 33.0027 10.0747C33.7143 10.6532 34.0704 11.5209 34.0704 12.6778V17.164H35.1933V18.9363H33.8127ZM29.7443 17.5332C30.3086 17.5332 30.7752 17.404 31.1434 17.1455C31.5236 16.8747 31.714 16.5117 31.714 16.0563V14.7824H30.0941C28.8054 14.7824 28.1611 15.1886 28.1611 16.0009V16.3701C28.1611 16.7517 28.3021 17.0409 28.5845 17.2378C28.8667 17.4347 29.2533 17.5332 29.7443 17.5332ZM41.3161 19.1578C40.2731 19.1578 39.3711 18.9978 38.61 18.6778C37.8492 18.3455 37.2541 17.9024 36.8244 17.3486L38.205 16.0932C38.5979 16.5239 39.0458 16.8563 39.5489 17.0901C40.0643 17.324 40.6597 17.4409 41.3346 17.4409C41.9236 17.4409 42.3962 17.3424 42.752 17.1455C43.1081 16.9486 43.2859 16.647 43.2859 16.2409C43.2859 15.8963 43.1633 15.6624 42.9177 15.5393C42.6847 15.4163 42.3718 15.3239 41.9789 15.2624L40.4509 15.0224C40.0583 14.9609 39.6717 14.8747 39.2912 14.764C38.923 14.6409 38.5916 14.4747 38.2971 14.2655C38.0149 14.0563 37.7879 13.7916 37.6159 13.4716C37.4442 13.1393 37.3582 12.7393 37.3582 12.2716C37.3582 11.2747 37.7264 10.5117 38.4628 9.98242C39.2115 9.45318 40.2363 9.18857 41.5371 9.18857C42.4575 9.18857 43.237 9.3178 43.875 9.57626C44.5256 9.83473 45.0595 10.1978 45.4766 10.6655L44.2432 12.0316C43.9733 11.7363 43.6112 11.4778 43.157 11.2563C42.7152 11.0224 42.1509 10.9055 41.4634 10.9055C40.2608 10.9055 39.6593 11.2809 39.6593 12.0316C39.6593 12.3763 39.7822 12.6163 40.0275 12.7516C40.2731 12.8747 40.5921 12.967 40.9848 13.0286L42.4943 13.2686C42.8993 13.3301 43.2859 13.4224 43.6541 13.5455C44.0346 13.6563 44.366 13.8163 44.6482 14.0255C44.9427 14.2347 45.176 14.4993 45.3477 14.8193C45.5197 15.1393 45.6054 15.5332 45.6054 16.0009C45.6054 16.9855 45.2251 17.7609 44.4641 18.327C43.7156 18.8809 42.6663 19.1578 41.3161 19.1578ZM53.0355 18.9363C52.1275 18.9363 51.4584 18.6963 51.029 18.2163C50.5995 17.7363 50.3847 17.1147 50.3847 16.3516V11.2747H47.6233V9.41011H49.501C49.8816 9.41011 50.1514 9.33626 50.311 9.18857C50.4706 9.02856 50.5503 8.75164 50.5503 8.3578V6.05011H52.741V9.41011H56.6069V11.2747H52.741V17.0716H56.6069V18.9363H53.0355ZM63.6504 19.1578C62.8893 19.1578 62.2145 19.0409 61.6254 18.807C61.0363 18.5732 60.5393 18.2409 60.1343 17.8101C59.7414 17.3793 59.4408 16.8624 59.2323 16.2593C59.0234 15.644 58.9193 14.9547 58.9193 14.1916C58.9193 13.4163 59.0234 12.7209 59.2323 12.1055C59.4532 11.4901 59.7598 10.967 60.1527 10.5363C60.5453 10.1055 61.0179 9.7732 61.5702 9.53934C62.1345 9.30549 62.7668 9.18857 63.4663 9.18857C64.1535 9.18857 64.7733 9.30549 65.3256 9.53934C65.8779 9.76088 66.3442 10.0809 66.7247 10.4993C67.1173 10.9178 67.4179 11.4224 67.6267 12.0132C67.8353 12.604 67.9397 13.2563 67.9397 13.9701V14.7455H61.2756V14.9855C61.2756 15.6747 61.4902 16.2347 61.92 16.6655C62.3494 17.084 62.9509 17.2932 63.724 17.2932C64.3131 17.2932 64.8162 17.1763 65.2336 16.9424C65.663 16.6963 66.0188 16.3763 66.3013 15.9824L67.6451 17.3301C67.3014 17.8347 66.7983 18.2655 66.1356 18.6224C65.485 18.9793 64.6566 19.1578 63.6504 19.1578ZM63.4847 10.924C62.822 10.924 62.2881 11.1332 61.8831 11.5516C61.4781 11.9701 61.2756 12.524 61.2756 13.2132V13.3424H65.5833V13.1763C65.5833 12.487 65.3929 11.9393 65.0127 11.5332C64.6445 11.127 64.1351 10.924 63.4847 10.924ZM70.3255 17.0716H72.6818V11.2747H70.3255V9.41011H75.0382V12.0132H75.1854C75.2714 11.6809 75.3879 11.3609 75.5352 11.0532C75.6948 10.7332 75.8913 10.4563 76.1243 10.2224C76.3699 9.97627 76.6645 9.77934 77.0079 9.63165C77.3516 9.48396 77.7627 9.41011 78.2413 9.41011H79.2722V11.6255H77.3209C76.6092 11.6255 76.0507 11.8347 75.6457 12.2532C75.2407 12.6717 75.0382 13.207 75.0382 13.8593V17.0716H78.3334V18.9363H70.3255V17.0716Z" fill="#232323"/>
<path fill-rule="evenodd" clip-rule="evenodd" d="M6.95283 5.27979C4.10073 5.2791 2.58174 5.27873 1.85385 5.27855C1.53553 5.27847 1.27974 5.5363 1.27959 5.85555L1.27344 18.5469C1.27328 18.8686 1.53163 19.1303 1.85236 19.1304C3.25852 19.1307 6.97413 19.1316 10.1941 19.1324C14.2258 19.1333 15.0264 5.51014 9.07338 5.28314L8.7113 7.57548C11.8481 8.79357 11.8792 16.6998 9.00277 16.7005C6.76358 16.7011 4.76592 16.7008 3.8185 16.7006C3.49789 16.7006 3.23722 16.439 3.23722 16.1175V7.99688C3.23722 7.67723 3.494 7.41895 3.81274 7.41906C4.29268 7.41919 5.14396 7.41927 6.61494 7.41901L6.95283 5.27979Z" fill="url(#paint0_linear_200_4224)"/>
<mask id="mask0_200_4224" style="mask-type:luminance" maskUnits="userSpaceOnUse" x="1" y="5" width="13" height="15">
<path fill-rule="evenodd" clip-rule="evenodd" d="M6.95283 5.27979C4.10073 5.2791 2.58174 5.27873 1.85385 5.27855C1.53553 5.27847 1.27974 5.5363 1.27959 5.85555L1.27344 18.5469C1.27328 18.8686 1.53163 19.1303 1.85236 19.1304C3.25852 19.1307 6.97413 19.1316 10.1941 19.1324C14.2258 19.1333 15.0264 5.51014 9.07338 5.28314L8.7113 7.57548C11.8481 8.79357 11.8792 16.6998 9.00277 16.7005C6.76358 16.7011 4.76592 16.7008 3.8185 16.7006C3.49789 16.7006 3.23722 16.439 3.23722 16.1175V7.99688C3.23722 7.67723 3.494 7.41895 3.81274 7.41906C4.29268 7.41919 5.14396 7.41927 6.61494 7.41901L6.95283 5.27979Z" fill="white"/>
</mask>
<g mask="url(#mask0_200_4224)">
<path d="M6.95263 5.27979L7.21238 5.32103L7.26056 5.01613L6.95271 5.01605L6.95263 5.27979ZM9.07318 5.28314L9.0832 5.01958L8.84996 5.0107L8.81343 5.24189L9.07318 5.28314ZM8.7111 7.57548L8.45135 7.53423L8.41814 7.74453L8.61614 7.82141L8.7111 7.57548ZM6.61475 7.419L6.61477 7.68274L6.83936 7.68269L6.8745 7.46025L6.61475 7.419ZM6.95271 5.01605C4.10061 5.01536 2.58161 5.015 1.85372 5.01481L1.85358 5.54228C2.58147 5.54247 4.10048 5.54284 6.95258 5.54352L6.95271 5.01605ZM1.85372 5.01481C1.38929 5.01471 1.01663 5.39145 1.0164 5.85542L1.54237 5.85565C1.54246 5.68117 1.68137 5.54226 1.85358 5.54228L1.85372 5.01481ZM1.0164 5.85542L1.01025 18.5468L1.53622 18.547L1.54237 5.85565L1.0164 5.85542ZM1.01025 18.5468C1.01003 19.0126 1.38464 19.394 1.85209 19.3941L1.85224 18.8666C1.67821 18.8666 1.53614 18.7245 1.53622 18.547L1.01025 18.5468ZM1.85209 19.3941C3.25824 19.3944 6.97388 19.3953 10.1938 19.3961L10.1939 18.8686C6.97401 18.8679 3.2584 18.867 1.85224 18.8666L1.85209 19.3941ZM10.1938 19.3961C11.3692 19.3964 12.2399 18.4077 12.7984 17.1049C13.3653 15.7827 13.6611 14.0345 13.6408 12.2902C13.6205 10.5467 13.2839 8.7768 12.5585 7.41845C11.8297 6.05364 10.6915 5.0809 9.0832 5.01958L9.06319 5.54669C10.4313 5.59885 11.4255 6.41414 12.0949 7.6675C12.7676 8.92731 13.0952 10.6058 13.1149 12.2963C13.1346 13.986 12.8464 15.6576 12.3152 16.8966C11.7757 18.155 11.0345 18.8688 10.1939 18.8686L10.1938 19.3961ZM8.81343 5.24189L8.45135 7.53423L8.97085 7.61673L9.33293 5.32438L8.81343 5.24189ZM9.00265 16.9642C9.86726 16.964 10.4763 16.3632 10.8501 15.5569C11.2247 14.749 11.3954 13.6796 11.3748 12.5895C11.3541 11.4972 11.1409 10.3592 10.7253 9.40911C10.3115 8.46282 9.68107 7.66932 8.80607 7.32954L8.61614 7.82141C9.30952 8.09069 9.85932 8.74225 10.2436 9.62099C10.6263 10.4959 10.8292 11.5629 10.8489 12.5995C10.8686 13.6383 10.7037 14.6217 10.3732 15.3345C10.0419 16.0489 9.57614 16.4366 9.00252 16.4368L9.00265 16.9642ZM3.81824 16.9644C4.76567 16.9645 6.76338 16.9648 9.00265 16.9642L9.00252 16.4368C6.76338 16.4373 4.76575 16.4371 3.81835 16.4369L3.81824 16.9644ZM2.97404 16.1175C2.97404 16.5846 3.35237 16.9643 3.81824 16.9644L3.81835 16.4369C3.64302 16.4369 3.50001 16.2934 3.50001 16.1175H2.97404ZM2.97404 7.99688V16.1175H3.50001V7.99685L2.97404 7.99688ZM3.81262 7.15532C3.34813 7.15516 2.97404 7.53204 2.97404 7.99688L3.50001 7.99685C3.50001 7.82241 3.63949 7.68274 3.81243 7.68279L3.81262 7.15532ZM6.61469 7.15527C5.14374 7.15553 4.29251 7.15545 3.81262 7.15532L3.81243 7.68279C4.29246 7.68292 5.14377 7.683 6.61477 7.68274L6.61469 7.15527ZM6.8745 7.46025L7.21238 5.32103L6.69288 5.23854L6.355 7.37776L6.8745 7.46025Z" fill="#232323"/>
</g>
<mask id="mask1_200_4224" style="mask-type:luminance" maskUnits="userSpaceOnUse" x="0" y="5" width="5" height="14">
<path d="M4.95742 6.19768L1.41797 5.85075L0.193426 18.4118L3.73288 18.7587L4.95742 6.19768Z" fill="white"/>
</mask>
<g mask="url(#mask1_200_4224)">
<path d="M1.39648 6.06897L2.13763 5.95693C2.21662 5.94501 2.2903 5.99955 2.30221 6.07875C2.31411 6.15798 2.25972 6.23188 2.18073 6.2438L1.43959 6.35584L1.39648 6.06897Z" fill="#232323"/>
<path d="M1.33545 6.96694L2.26737 6.91084C2.34711 6.90604 2.41563 6.96696 2.42042 7.04693C2.42521 7.12689 2.36444 7.19562 2.2847 7.20042L1.35278 7.25652L1.33545 6.96694Z" fill="#232323"/>
<path d="M1.33691 7.54386L1.95766 7.42932C2.02909 7.41613 2.09764 7.46353 2.11078 7.53516C2.12392 7.60679 2.07667 7.67552 2.00525 7.6887L1.3845 7.80324L1.33691 7.54386Z" fill="#232323"/>
<path d="M1.3042 8.10032L2.01867 7.98077C2.08252 7.97009 2.14292 8.01331 2.15357 8.07735C2.16422 8.14138 2.12109 8.20197 2.05724 8.21265L1.34277 8.3322L1.3042 8.10032Z" fill="#232323"/>
<path d="M1.38672 8.68613L2.38237 8.59999C2.46919 8.59247 2.54565 8.65698 2.55313 8.74404C2.56062 8.83113 2.49631 8.9078 2.40948 8.91531L1.41384 9.00145L1.38672 8.68613Z" fill="#232323"/>
<path d="M1.32178 9.27542L1.84344 9.20801C1.91546 9.1987 1.98137 9.24971 1.99065 9.32195C1.99993 9.39418 1.94906 9.46028 1.87704 9.46959L1.35537 9.53697L1.32178 9.27542Z" fill="#232323"/>
<path d="M1.28809 9.89465L2.10268 9.8616C2.18975 9.85807 2.26319 9.92598 2.26671 10.0133C2.27024 10.1006 2.2025 10.1743 2.11543 10.1778L1.30084 10.2109L1.28809 9.89465Z" fill="#232323"/>
<path d="M1.33838 10.4621L2.07952 10.3501C2.15851 10.3382 2.2322 10.3927 2.2441 10.4719C2.256 10.5511 2.20162 10.625 2.12263 10.637L1.38148 10.749L1.33838 10.4621Z" fill="#232323"/>
<path d="M1.38574 11.0591L2.31312 10.9512C2.39247 10.9419 2.46426 10.999 2.47347 11.0785C2.48268 11.1581 2.42582 11.2301 2.34647 11.2393L1.4191 11.3473L1.38574 11.0591Z" fill="#232323"/>
<path d="M1.33887 11.5403L1.95961 11.4257C2.03104 11.4126 2.09959 11.4599 2.11273 11.5316C2.12587 11.6032 2.07862 11.6719 2.0072 11.6851L1.38645 11.7997L1.33887 11.5403Z" fill="#232323"/>
<path d="M1.34478 12.0217L2.20495 12.056C2.26963 12.0586 2.31998 12.1133 2.31741 12.1782C2.31483 12.243 2.2603 12.2935 2.19562 12.2909L1.33545 12.2566L1.34478 12.0217Z" fill="#232323"/>
<path d="M1.36719 12.6039L1.93391 12.5548C2.02074 12.5473 2.09719 12.6118 2.10468 12.6989C2.11217 12.7859 2.04785 12.8626 1.96103 12.8701L1.39431 12.9192L1.36719 12.6039Z" fill="#232323"/>
<path d="M1.31494 13.4115L2.08267 13.3124C2.15469 13.303 2.2206 13.354 2.22988 13.4263C2.23916 13.4985 2.18829 13.5646 2.11626 13.5739L1.34854 13.6731L1.31494 13.4115Z" fill="#232323"/>
<path d="M1.26123 13.9631L2.57072 13.91C2.65779 13.9064 2.73124 13.9743 2.73476 14.0617C2.73828 14.149 2.67054 14.2226 2.58347 14.2262L1.27399 14.2793L1.26123 13.9631Z" fill="#232323"/>
<path d="M1.30029 14.6453L2.04143 14.5333C2.12043 14.5213 2.19411 14.5759 2.20602 14.6551C2.21792 14.7343 2.16353 14.8082 2.08454 14.8202L1.3434 14.9322L1.30029 14.6453Z" fill="#232323"/>
<path d="M1.33008 15.4261L2.25745 15.3181C2.3368 15.3089 2.40859 15.3659 2.4178 15.4455C2.42702 15.525 2.37016 15.597 2.2908 15.6063L1.36343 15.7142L1.33008 15.4261Z" fill="#232323"/>
<path d="M1.33023 15.9669L2.25751 15.9864C2.33011 15.9879 2.38773 16.0482 2.38621 16.121C2.38469 16.1938 2.32459 16.2516 2.25199 16.2501L1.32471 16.2306L1.33023 15.9669Z" fill="#232323"/>
<path d="M1.36523 16.6956L2.0797 16.576C2.14355 16.5653 2.20395 16.6086 2.2146 16.6726C2.22526 16.7367 2.18213 16.7972 2.11828 16.8079L1.40381 16.9275L1.36523 16.6956Z" fill="#232323"/>
<path d="M1.29053 17.2625L2.28618 17.1763C2.373 17.1688 2.44945 17.2333 2.45694 17.3204C2.46443 17.4075 2.40012 17.4841 2.31329 17.4917L1.31764 17.5778L1.29053 17.2625Z" fill="#232323"/>
<path d="M1.35889 17.8383L1.88055 17.7709C1.95257 17.7616 2.01848 17.8126 2.02776 17.8849C2.03704 17.9571 1.98617 18.0232 1.91415 18.0325L1.39249 18.0999L1.35889 17.8383Z" fill="#232323"/>
</g>
<path d="M8.2627 3.19094L8.62007 1.00531C8.64463 0.984613 8.66527 0.969912 8.68318 0.960845C8.70193 0.951364 8.71658 0.948573 8.72899 0.95052C8.74128 0.952445 8.7535 0.95936 8.76673 0.973668C8.77946 0.987472 8.79248 1.00745 8.80665 1.03446L8.44918 3.22059L8.2627 3.19094Z" fill="#232323"/>
<path d="M7.75494 3.28992L6.84073 8.97083L6.6543 8.94119L7.58847 3.24541C7.60604 3.13801 7.70902 3.06506 7.81853 3.08247L8.96199 3.26418C9.07147 3.28159 9.14603 3.38276 9.12846 3.49015L8.18458 9.17728L7.99047 9.14703L8.93151 3.47686L8.93364 3.46391L8.92041 3.4618L8.3425 3.36997L7.7703 3.27903L7.75705 3.27692L7.75494 3.28992Z" fill="#232323"/>
<path d="M6.32443 9.09136L5.86978 12.2171L5.66699 12.186L6.10899 9.04803C6.12653 8.94066 6.22954 8.86768 6.33905 8.88509L6.8894 8.97257C6.99888 8.98998 7.07341 9.09112 7.05587 9.19851L6.57503 12.1393C6.55746 12.2467 6.45445 12.3197 6.34494 12.3023L6.34155 12.3017L6.85274 9.1753L6.85484 9.16236L6.84164 9.16024L6.52227 9.1095L6.33976 9.08046L6.32656 9.07838L6.32443 9.09136Z" fill="#232323"/>
<path d="M7.81874 12.5361L8.32988 9.41008L8.33199 9.39711L8.31878 9.39502L7.98214 9.34151L7.79203 9.31129L7.77882 9.3092L7.77669 9.32215L7.2655 12.4486L7.25448 12.4468C7.14498 12.4294 7.07045 12.3282 7.08801 12.2209L7.60065 9.08561L8.34924 9.20458C8.45877 9.22199 8.53327 9.32313 8.51571 9.43052L8.03479 12.372C8.01798 12.4746 7.92283 12.5457 7.81874 12.5361Z" fill="#232323"/>
<path d="M7.95043 3.46428L8.10272 3.4885C8.14772 3.49564 8.18543 3.52486 8.18761 3.56387C8.18861 3.58157 8.18604 3.59744 8.17959 3.61356C8.16552 3.64869 8.1215 3.6638 8.07742 3.65679L7.92003 3.63178C7.87853 3.62519 7.84316 3.60027 7.8384 3.56493C7.83561 3.54406 7.83861 3.52542 7.84834 3.50529C7.86467 3.47154 7.90767 3.45751 7.95043 3.46428Z" fill="#232323"/>
<path d="M8.55737 3.56084L8.70967 3.58502C8.75466 3.59217 8.79238 3.62142 8.79456 3.66037C8.79556 3.67809 8.79301 3.69397 8.78654 3.71009C8.77247 3.74519 8.72842 3.76033 8.68434 3.75334L8.52697 3.72831C8.48547 3.72172 8.4501 3.69679 8.44534 3.66148C8.44253 3.64056 8.44555 3.62195 8.45528 3.60182C8.47164 3.56806 8.51459 3.55403 8.55737 3.56084Z" fill="#232323"/>
<path d="M6.40349 9.72929L6.45438 9.41805C6.46056 9.38034 6.48312 9.34769 6.51697 9.33824C6.5353 9.33313 6.55095 9.33189 6.56547 9.33418C6.57993 9.3365 6.59413 9.34244 6.60936 9.35291C6.6371 9.372 6.64723 9.40887 6.6412 9.44551L6.58948 9.76186C6.58395 9.79569 6.56533 9.8255 6.53601 9.83721C6.51571 9.84536 6.49875 9.84778 6.48299 9.84536C6.46719 9.84288 6.45115 9.83528 6.43305 9.82088C6.40707 9.80026 6.39773 9.76463 6.40349 9.72929Z" fill="#232323"/>
<path d="M7.87859 9.96372L7.92948 9.65248C7.93566 9.61477 7.95822 9.58212 7.99207 9.57268C8.0104 9.56753 8.02605 9.56632 8.04054 9.56862C8.05503 9.57094 8.06923 9.57687 8.08443 9.58734C8.1122 9.60644 8.12233 9.64328 8.1163 9.67994L8.06457 9.99626C8.05905 10.0301 8.04043 10.0599 8.01111 10.0716C7.99075 10.0798 7.97382 10.0822 7.95806 10.0798C7.94229 10.0773 7.92624 10.0697 7.90815 10.0553C7.88217 10.0347 7.87283 9.99903 7.87859 9.96372Z" fill="#232323"/>
<path d="M7.71502 10.9629L7.76591 10.6517C7.77209 10.614 7.79468 10.5813 7.82853 10.5719C7.84683 10.5668 7.86248 10.5656 7.87697 10.5678C7.89146 10.5702 7.90566 10.5761 7.92086 10.5866C7.94866 10.6057 7.95873 10.6425 7.95276 10.6792L7.90103 10.9955C7.89548 11.0294 7.87689 11.0592 7.84757 11.0709C7.82721 11.079 7.81028 11.0814 7.79452 11.079C7.77872 11.0766 7.7627 11.069 7.74456 11.0545C7.71863 11.0339 7.70924 10.9983 7.71502 10.9629Z" fill="#232323"/>
<path d="M7.5495 11.9771L7.60038 11.6659C7.60656 11.6282 7.62913 11.5955 7.66295 11.586C7.6813 11.5809 7.69695 11.5797 7.71144 11.582C7.72593 11.5843 7.74013 11.5903 7.75533 11.6007C7.78313 11.6198 7.7932 11.6566 7.78721 11.6933L7.73551 12.0096C7.72996 12.0435 7.71134 12.0733 7.68201 12.085C7.66169 12.0931 7.64472 12.0956 7.629 12.0931C7.61319 12.0907 7.59715 12.0831 7.57903 12.0687C7.5531 12.048 7.54371 12.0124 7.5495 11.9771Z" fill="#232323"/>
<path d="M6.22479 10.7261L6.27568 10.4148C6.28183 10.3771 6.30442 10.3445 6.33827 10.335C6.3566 10.3299 6.37222 10.3287 6.38674 10.331C6.4012 10.3333 6.4154 10.3393 6.4306 10.3497C6.4584 10.3688 6.4685 10.4056 6.4625 10.4423L6.41078 10.7586C6.40523 10.7925 6.38663 10.8223 6.35731 10.834C6.33698 10.8421 6.32005 10.8446 6.30427 10.8421C6.28846 10.8397 6.27244 10.8321 6.25433 10.8177C6.22837 10.797 6.21901 10.7614 6.22479 10.7261Z" fill="#232323"/>
<path d="M6.0744 11.7427L6.12529 11.4314C6.13144 11.3937 6.15403 11.361 6.18788 11.3516C6.20621 11.3465 6.22183 11.3452 6.23635 11.3476C6.25081 11.3498 6.26501 11.3558 6.28024 11.3663C6.30801 11.3854 6.31811 11.4222 6.31209 11.4589L6.26038 11.7752C6.25484 11.8091 6.23624 11.8388 6.20689 11.8506C6.18659 11.8587 6.16963 11.8611 6.15388 11.8587C6.13807 11.8562 6.12205 11.8486 6.10393 11.8342C6.07798 11.8136 6.06862 11.778 6.0744 11.7427Z" fill="#232323"/>
<path d="M8.12924 4.99134L8.68897 5.08032L8.65421 5.29303L8.09536 5.20417C8.04571 5.19629 8.00051 5.17049 7.9847 5.12806C7.97781 5.10944 7.97557 5.09319 7.97799 5.07774C7.98044 5.06226 7.9877 5.04646 8.00166 5.029C8.02972 4.99395 8.08008 4.98356 8.12924 4.99134Z" fill="#232323"/>
<path d="M8.19902 5.69016L8.57169 5.74937L8.5369 5.96208L8.1652 5.90303C8.10582 5.89358 8.05251 5.85814 8.04746 5.80613C8.04546 5.7854 8.04849 5.76594 8.05793 5.74523C8.07952 5.69795 8.14032 5.68083 8.19902 5.69016Z" fill="#232323"/>
<path d="M7.93025 6.35401L8.47003 6.43978L8.43524 6.65248L7.89641 6.56685C7.84581 6.5588 7.79981 6.53219 7.7849 6.48873C7.77883 6.471 7.77693 6.45531 7.77932 6.44031C7.78169 6.42535 7.78848 6.41003 7.80123 6.39326C7.82882 6.35702 7.88021 6.34605 7.93025 6.35401Z" fill="#232323"/>
<path d="M7.96782 7.08556L8.32508 7.14235L8.29029 7.35505L7.934 7.2984C7.9046 7.29376 7.87564 7.28229 7.85376 7.26522C7.83204 7.24824 7.81778 7.22614 7.81579 7.19963C7.81434 7.18017 7.81723 7.16178 7.82562 7.14232C7.8465 7.09398 7.90825 7.0761 7.96782 7.08556Z" fill="#232323"/>
<path d="M7.67223 7.71445L8.23197 7.8034L8.1972 8.01611L7.63836 7.92731C7.58871 7.91942 7.54347 7.89358 7.52769 7.85114C7.52078 7.83252 7.51854 7.81628 7.52096 7.80082C7.52341 7.78537 7.53069 7.76954 7.54466 7.75208C7.57272 7.71706 7.62308 7.70664 7.67223 7.71445Z" fill="#232323"/>
<path d="M7.73811 8.41683L8.11076 8.47604L8.07599 8.68874L7.70426 8.62966C7.64491 8.62022 7.59158 8.58477 7.58653 8.53279C7.58453 8.51206 7.58753 8.4926 7.59699 8.47192C7.61861 8.42461 7.67939 8.40749 7.73811 8.41683Z" fill="#232323"/>
<path d="M7.47282 9.08068L7.62558 9.10497L7.59082 9.31765L7.43887 9.29351C7.40352 9.2879 7.36944 9.27181 7.3459 9.249C7.3225 9.22634 7.30992 9.1977 7.31513 9.16573C7.31526 9.16489 7.31539 9.16402 7.31555 9.16318C7.32115 9.13137 7.34217 9.10819 7.37131 9.09405C7.40065 9.07978 7.43771 9.07509 7.47282 9.08068Z" fill="#232323"/>
<path d="M7.22944 10.4676L7.40861 10.4928L7.36924 10.7048L7.19102 10.6797C7.1496 10.6739 7.10957 10.6576 7.0818 10.6347C7.05427 10.6119 7.03933 10.5833 7.04522 10.5514C7.04535 10.5506 7.04551 10.5497 7.04572 10.5489C7.05208 10.5171 7.07654 10.4942 7.1106 10.4802C7.14489 10.4662 7.18826 10.4618 7.22944 10.4676Z" fill="#232323"/>
<path d="M7.00799 11.8146L7.16078 11.8388L7.12599 12.0515L6.97401 12.0274C6.93869 12.0218 6.90464 12.0057 6.88105 11.9829C6.85767 11.9603 6.8451 11.9316 6.85028 11.8996C6.85044 11.8988 6.85059 11.8979 6.85072 11.8971C6.85635 11.8653 6.87734 11.8421 6.90648 11.8279C6.93585 11.8137 6.97288 11.809 7.00799 11.8146Z" fill="#232323"/>
<path d="M7.40902 9.77784L7.50488 9.79097L7.46677 9.99012L7.37167 9.97709C7.33191 9.97163 7.2952 9.95718 7.27008 9.93674C7.24526 9.91659 7.23185 9.8908 7.23689 9.86118C7.24192 9.83172 7.26477 9.80835 7.29696 9.79345C7.32931 9.77847 7.37025 9.77254 7.40902 9.77784Z" fill="#232323"/>
<path d="M7.19362 11.1547L7.29079 11.1679L7.25226 11.367L7.15583 11.3539C7.11551 11.3484 7.0783 11.3339 7.05282 11.3135C7.02767 11.2933 7.01402 11.2675 7.01913 11.2379C7.02425 11.2085 7.04737 11.1851 7.08001 11.1702C7.1128 11.1553 7.15433 11.1493 7.19362 11.1547Z" fill="#232323"/>
<path d="M5.80278 12.0785L6.40633 12.1102L6.38724 12.3069L5.78369 12.2752L5.80278 12.0785Z" fill="#232323"/>
<path d="M7.85053 12.3539L7.29284 12.2661L7.26562 12.449L7.82063 12.5368L7.85053 12.3539Z" fill="#232323"/>
<path fill-rule="evenodd" clip-rule="evenodd" d="M8.47423 11.374C8.4604 11.3682 8.44596 11.3642 8.43115 11.3618L8.13798 11.3152L7.94287 12.5083L8.64073 12.6461C8.70256 12.6583 8.75581 12.6966 8.78629 12.7508L8.79844 12.7724C8.82608 12.8215 8.87502 12.8556 8.9314 12.865L10.7474 13.1676C10.801 13.1765 10.8557 13.1601 10.895 13.1234C10.9252 13.0951 10.9365 13.0523 10.9233 13.0133C10.8204 12.708 10.7227 12.5203 10.4862 12.2318C10.4671 12.2085 10.4422 12.1902 10.4141 12.1786L8.47423 11.374ZM8.50663 11.6163C8.47418 11.6025 8.44007 11.5928 8.40517 11.5872L8.1824 11.5518L8.05682 12.3199L8.78179 12.4543C8.83925 12.465 8.8898 12.4982 8.92175 12.5463L8.94587 12.5826C8.97887 12.6323 9.03171 12.6661 9.09135 12.6755L10.5508 12.9075C10.5915 12.914 10.6239 12.8749 10.6085 12.8374C10.5513 12.699 10.4973 12.5989 10.4019 12.4662C10.3693 12.4209 10.3239 12.3861 10.2719 12.3641L8.50663 11.6163Z" fill="#232323"/>
<mask id="mask2_200_4224" style="mask-type:luminance" maskUnits="userSpaceOnUse" x="7" y="11" width="4" height="3">
<path fill-rule="evenodd" clip-rule="evenodd" d="M8.47423 11.374C8.4604 11.3682 8.44596 11.3642 8.43115 11.3618L8.13798 11.3152L7.94287 12.5083L8.64073 12.6461C8.70256 12.6583 8.75581 12.6966 8.78629 12.7508L8.79844 12.7724C8.82608 12.8215 8.87502 12.8556 8.9314 12.865L10.7474 13.1676C10.801 13.1765 10.8557 13.1601 10.895 13.1234C10.9252 13.0951 10.9365 13.0523 10.9233 13.0133C10.8204 12.708 10.7227 12.5203 10.4862 12.2318C10.4671 12.2085 10.4422 12.1902 10.4141 12.1786L8.47423 11.374ZM8.50663 11.6163C8.47418 11.6025 8.44007 11.5928 8.40517 11.5872L8.1824 11.5518L8.05682 12.3199L8.78179 12.4543C8.83925 12.465 8.8898 12.4982 8.92175 12.5463L8.94587 12.5826C8.97887 12.6323 9.03171 12.6661 9.09135 12.6755L10.5508 12.9075C10.5915 12.914 10.6239 12.8749 10.6085 12.8374C10.5513 12.699 10.4973 12.5989 10.4019 12.4662C10.3693 12.4209 10.3239 12.3861 10.2719 12.3641L8.50663 11.6163Z" fill="white"/>
</mask>
<g mask="url(#mask2_200_4224)">
<path d="M8.13821 11.3152L8.14247 11.2893L8.11602 11.2851L8.11176 11.311L8.13821 11.3152ZM7.94313 12.5083L7.9167 12.5041L7.9126 12.5291L7.9379 12.5341L7.94313 12.5083ZM8.18263 11.5518L8.18686 11.5259L8.16043 11.5217L8.1562 11.5476L8.18263 11.5518ZM8.05705 12.3199L8.0306 12.3157L8.0265 12.3409L8.05211 12.3457L8.05705 12.3199ZM8.42715 11.3877C8.43986 11.3898 8.45222 11.3932 8.46408 11.3982L8.48485 11.3498C8.46907 11.3432 8.45253 11.3386 8.43562 11.3359L8.42715 11.3877ZM8.13398 11.3411L8.42715 11.3877L8.43562 11.3359L8.14247 11.2893L8.13398 11.3411ZM7.96956 12.5125L8.16464 11.3194L8.11176 11.311L7.9167 12.5041L7.96956 12.5125ZM8.64619 12.6203L7.94836 12.4826L7.9379 12.5341L8.6357 12.6718L8.64619 12.6203ZM8.80995 12.7381C8.77566 12.6772 8.71575 12.634 8.64619 12.6203L8.6357 12.6718C8.6898 12.6825 8.73642 12.716 8.76309 12.7634L8.80995 12.7381ZM8.82213 12.7597L8.80995 12.7381L8.76309 12.7634L8.77524 12.7851L8.82213 12.7597ZM8.93611 12.8392C8.88777 12.8311 8.8458 12.8019 8.82213 12.7597L8.77524 12.7851C8.80682 12.8412 8.86276 12.8802 8.92722 12.8909L8.93611 12.8392ZM10.7521 13.1417L8.93611 12.8392L8.92722 12.8909L10.7432 13.1935L10.7521 13.1417ZM10.8767 13.1044C10.8435 13.1354 10.7974 13.1492 10.7521 13.1417L10.7432 13.1935C10.8051 13.2038 10.8683 13.1849 10.9137 13.1424L10.8767 13.1044ZM10.8982 13.0215C10.908 13.0507 10.8996 13.0829 10.8767 13.1044L10.9137 13.1424C10.9513 13.1072 10.9655 13.0539 10.949 13.0051L10.8982 13.0215ZM10.4656 12.2482C10.7 12.5342 10.7963 12.7191 10.8982 13.0215L10.949 13.0051C10.8451 12.6969 10.7458 12.5063 10.5073 12.2153L10.4656 12.2482ZM10.404 12.2028C10.4281 12.2128 10.4493 12.2284 10.4656 12.2482L10.5073 12.2153C10.4853 12.1885 10.4568 12.1677 10.4247 12.1544L10.404 12.2028ZM8.46408 11.3982L10.404 12.2028L10.4247 12.1544L8.48485 11.3498L8.46408 11.3982ZM8.40117 11.6131C8.43389 11.6183 8.46586 11.6275 8.49629 11.6404L8.51744 11.5922C8.48296 11.5775 8.44675 11.5672 8.40967 11.5613L8.40117 11.6131ZM8.17837 11.5777L8.40117 11.6131L8.40967 11.5613L8.18686 11.5259L8.17837 11.5777ZM8.08346 12.324L8.20906 11.556L8.1562 11.5476L8.0306 12.3157L8.08346 12.324ZM8.78694 12.4285L8.06197 12.2941L8.05211 12.3457L8.77708 12.4801L8.78694 12.4285ZM8.94442 12.532C8.90849 12.4779 8.85158 12.4405 8.78694 12.4285L8.77708 12.4801C8.82736 12.4894 8.87162 12.5185 8.89955 12.5606L8.94442 12.532ZM8.96853 12.5683L8.94442 12.532L8.89955 12.5606L8.92367 12.5969L8.96853 12.5683ZM9.09582 12.6496C9.04362 12.6413 8.99738 12.6118 8.96853 12.5683L8.92367 12.5969C8.9608 12.6528 9.02026 12.6908 9.08738 12.7015L9.09582 12.6496ZM10.5553 12.8816L9.09582 12.6496L9.08738 12.7015L10.5468 12.9334L10.5553 12.8816ZM10.5839 12.8473C10.5913 12.8652 10.5759 12.8848 10.5553 12.8816L10.5468 12.9334C10.6075 12.9431 10.657 12.8845 10.6335 12.8276L10.5839 12.8473ZM10.3802 12.4813C10.4744 12.6123 10.5275 12.7106 10.5839 12.8473L10.6335 12.8276C10.5756 12.6874 10.5206 12.5855 10.424 12.4511L10.3802 12.4813ZM10.2616 12.3882C10.3093 12.4084 10.3507 12.4403 10.3802 12.4813L10.424 12.4511C10.3883 12.4015 10.3389 12.3638 10.2828 12.34L10.2616 12.3882ZM8.49629 11.6404L10.2616 12.3882L10.2828 12.34L8.51744 11.5922L8.49629 11.6404Z" fill="#232323"/>
</g>
<path d="M8.50224 9.40707L8.53775 9.4176C8.58837 9.43255 8.63726 9.45262 8.68368 9.47747C8.71826 9.49601 8.75045 9.51887 8.77696 9.54743C8.7911 9.56265 8.80281 9.57645 8.81659 9.59393C8.83944 9.62339 8.85298 9.64409 8.86753 9.66749C8.88691 9.69874 8.90322 9.73197 8.91271 9.76734C8.92183 9.80131 8.92615 9.83061 8.92549 9.87215C8.9283 9.93766 8.92562 9.97727 8.91145 10.0535C8.89367 10.132 8.87902 10.1717 8.84294 10.2339C8.80862 10.2786 8.78579 10.3037 8.7398 10.34L8.67045 10.3856C8.62968 10.4124 8.58369 10.4306 8.5354 10.439C8.47757 10.4491 8.41843 10.4495 8.36044 10.4403L8.33398 10.4361L8.36567 10.2422L8.41885 10.2507C8.45869 10.257 8.49953 10.2526 8.53701 10.2379C8.55431 10.2312 8.57051 10.2219 8.58508 10.2105L8.60226 10.1971C8.63542 10.1712 8.66269 10.1387 8.68236 10.1018C8.69243 10.0828 8.69938 10.0623 8.70282 10.0411L8.70982 9.99856L8.72378 9.91289C8.72744 9.89063 8.72709 9.8679 8.72276 9.84577L8.7192 9.82758C8.71463 9.80431 8.70571 9.78208 8.69288 9.76198C8.67692 9.73696 8.65764 9.71412 8.63555 9.69399L8.63331 9.69196C8.6163 9.67648 8.59728 9.66332 8.57677 9.65277L8.54293 9.63539L8.46932 9.60841L8.50224 9.40707Z" fill="#232323"/>
<path d="M5.91867 10.4458L5.66113 10.4085L5.62901 10.632L5.88655 10.6692L5.91867 10.4458Z" fill="#232323"/>
<path fill-rule="evenodd" clip-rule="evenodd" d="M5.41399 9.7584C5.2223 9.72894 5.04308 9.86091 5.0137 10.0532L4.90401 10.7707C4.87461 10.9629 5.00618 11.1426 5.19787 11.1721C5.38956 11.2016 5.56878 11.0696 5.59819 10.8774L5.70788 10.1598C5.73725 9.96757 5.60568 9.78786 5.41399 9.7584ZM5.3863 9.98561C5.31385 9.97448 5.24613 10.0244 5.23503 10.097L5.12976 10.7857C5.11863 10.8583 5.16836 10.9262 5.24079 10.9374C5.31324 10.9485 5.38096 10.8986 5.39206 10.826L5.49736 10.1373C5.50845 10.0647 5.45872 9.99674 5.3863 9.98561Z" fill="#232323"/>
<path fill-rule="evenodd" clip-rule="evenodd" d="M6.3453 12.2974L5.68397 12.1521C5.62988 12.2823 5.48589 12.3498 5.35159 12.3079L3.99082 11.8839C3.86956 11.8461 3.76818 11.982 3.83861 12.088C4.27932 12.7511 5.01073 13.1617 5.80479 13.1917L6.20032 13.2066L6.3453 12.2974ZM6.09996 12.3381L5.83745 12.2949C5.79953 12.4912 5.60011 12.611 5.40965 12.5519L4.16155 12.1649C4.59616 12.7443 5.30322 13.0547 6.0223 12.9795L6.09996 12.3381Z" fill="#232323"/>
<path fill-rule="evenodd" clip-rule="evenodd" d="M6.48642 12.2772L6.28164 12.2351L6.13226 13.1846L5.89434 13.1756L5.79319 13.9411C5.78583 13.9968 5.72616 14.0287 5.67598 14.0039C5.49234 13.913 5.29163 13.862 5.08697 13.8543L5.05513 13.8531C4.47283 13.8311 3.9011 14.0133 3.43832 14.3685L3.3421 14.4423C3.26846 14.4988 3.30946 14.6168 3.40216 14.6152L4.56469 14.595C4.68264 14.5929 4.77494 14.6963 4.75998 14.8136L4.73242 15.0297C4.72132 15.1167 4.78165 15.1966 4.86812 15.2094L6.27443 15.4188C7.16358 15.5511 8.06507 15.5791 8.96069 15.5022L9.4156 15.4631C9.68164 15.4403 9.92974 15.3193 10.1119 15.1235L10.3752 14.8405C10.4469 14.7635 10.404 14.6374 10.3004 14.6204L8.54331 14.3317C8.45752 14.3177 8.37034 14.347 8.31035 14.4101C8.26089 14.4621 8.18883 14.486 8.11819 14.4737L7.50954 14.3681C7.3674 14.3434 7.26509 14.2144 7.34128 14.0915C7.36177 14.0585 7.36908 14.0345 7.37523 13.9961L7.59369 12.6325L7.63175 12.5043L7.41699 12.4684L7.41047 12.4671C7.42225 12.4849 7.4287 12.5063 7.42783 12.529C7.42673 12.559 7.40051 12.5819 7.37068 12.5788L7.1289 12.554C7.04392 12.5453 6.92474 12.5528 6.92069 12.6384C6.91743 12.7077 7.00379 12.7453 7.0722 12.7561L7.33368 12.7971C7.36182 12.8016 7.38133 12.8277 7.37771 12.856L7.33005 13.2274C7.32821 13.2416 7.31546 13.2517 7.30128 13.2502L6.79043 13.1979C6.73034 13.1917 6.66197 13.1938 6.6378 13.2493C6.60408 13.3268 6.71277 13.3912 6.79643 13.4013L7.26023 13.4572C7.27477 13.459 7.28508 13.4723 7.28316 13.4869L7.23611 13.8436C7.23156 13.8782 7.21084 13.9082 7.19017 13.9381C7.16826 13.9699 7.14641 14.0015 7.14396 14.0384L7.09734 14.444C7.10228 14.4956 7.11924 14.5143 7.1716 14.532L8.19554 14.6828C8.32868 14.7024 8.4636 14.6609 8.56285 14.5697L10.0729 14.8112C10.1086 14.8169 10.1242 14.8597 10.1006 14.8871C9.89999 15.1204 9.61634 15.2659 9.31025 15.2923L8.56345 15.3567C7.96868 15.408 7.36987 15.3847 6.78086 15.2874L5.36122 15.0528C5.17126 15.0214 5.03748 14.8485 5.05431 14.6562L5.06162 14.5728C5.07117 14.4634 4.98394 14.3698 4.87443 14.3721L3.87619 14.3927L3.93331 14.3583C4.25042 14.1671 4.6105 14.0593 4.98023 14.0449C5.21108 14.0359 5.44037 14.0864 5.64619 14.1916L5.68024 14.2091C5.84955 14.2748 6.03643 14.1684 6.06691 13.9889L6.31801 12.5098C6.33705 12.3977 6.39759 12.3165 6.48642 12.2772Z" fill="#232323"/>
<defs>
<linearGradient id="paint0_linear_200_4224" x1="7.44093" y1="5.15491" x2="6.02728" y2="19.5772" gradientUnits="userSpaceOnUse">
<stop stop-color="#FBB83E"/>
<stop offset="1" stop-color="#E7581A"/>
</linearGradient>
</defs>
</svg>
