<svg width="24" height="24" viewBox="0 0 24 24" fill="none" xmlns="http://www.w3.org/2000/svg">
<path d="M22.9632 7.46594H16.6251C16.0587 7.46594 15.6003 6.80445 15.6003 5.98917V5.95782C15.6003 5.14254 16.0587 4.48106 16.6251 4.48106H22.9632C23.5344 4.48106 24 5.15299 24 5.97424C24 6.7955 23.5344 7.46743 22.9632 7.46743V7.46594ZM22.9632 13.4387H16.6251C16.0587 13.4387 15.6003 12.7772 15.6003 11.9619V11.9291C15.6003 11.1138 16.0587 10.4523 16.6251 10.4523H22.9632C23.5344 10.4523 24 11.1242 24 11.9455C24 12.7668 23.5344 13.4387 22.9632 13.4387ZM22.9896 19.4114H18.9974C18.4454 19.4114 18.0002 18.75 18.0002 17.9347V17.9018C18.0002 17.0865 18.4466 16.4251 18.9974 16.4251H22.9896C23.5452 16.4251 24 17.097 24 17.9182C24 18.7395 23.5452 19.4114 22.9896 19.4114ZM8.40057 11.9455C7.12758 11.9455 5.90672 11.3162 5.00658 10.1961C4.10644 9.07601 3.60075 7.55682 3.60075 5.97275C3.60075 4.38868 4.10644 2.86949 5.00658 1.74938C5.90672 0.62927 7.12758 0 8.40057 0C9.67356 0 10.8944 0.62927 11.7946 1.74938C12.6947 2.86949 13.2004 4.38868 13.2004 5.97275C13.2004 7.55682 12.6947 9.07601 11.7946 10.1961C10.8944 11.3162 9.67356 11.9455 8.40057 11.9455ZM1.16484 24C0.465262 24 -0.0927172 23.2265 0.0128789 22.3679C0.325429 19.8794 1.34252 17.6118 2.8806 15.9744C4.41868 14.337 6.37644 13.4377 8.40057 13.4387C10.4245 13.438 12.382 14.3375 13.9198 15.9749C15.4576 17.6123 16.4745 19.8796 16.7871 22.3679C16.8951 23.2265 16.3359 24 15.6375 24H1.16484Z" fill="#232323"/>
</svg>
