<svg width="120" height="36" viewBox="0 0 120 36" fill="none" xmlns="http://www.w3.org/2000/svg">
<path d="M32.611 19.4598L32.7769 13.8659H32.5281L28.7954 23.8075L25.0627 13.8659H24.8138L24.9797 19.4598V28.4044H21.8276V9.07516H26.141L28.823 16.1921H29.0166L31.7263 9.07516H35.7631V28.4044H32.611V19.4598ZM50.628 28.4044C49.7613 28.4044 49.0887 28.1921 48.6095 27.7675C48.1486 27.3244 47.8721 26.7152 47.78 25.9398H47.6418C47.3834 26.8259 46.8767 27.5182 46.121 28.0167C45.365 28.4967 44.4344 28.7367 43.3284 28.7367C41.8906 28.7367 40.7475 28.3582 39.8998 27.6013C39.0518 26.8444 38.6279 25.7921 38.6279 24.4444C38.6279 21.5644 40.7384 20.1244 44.9597 20.1244H47.4759V19.1829C47.4759 18.2782 47.2547 17.5952 46.8123 17.1336C46.3699 16.6721 45.651 16.4413 44.6556 16.4413C43.7522 16.4413 43.0243 16.6167 42.4713 16.9675C41.9183 17.3183 41.4482 17.7705 41.0611 18.3244L39.0426 16.6075C39.485 15.8136 40.1945 15.149 41.1717 14.6136C42.1671 14.0598 43.4481 13.7829 45.015 13.7829C46.8952 13.7829 48.3607 14.2259 49.4114 15.1121C50.4802 15.9798 51.0151 17.2813 51.0151 19.0167V25.7459H52.7017V28.4044H50.628ZM44.5174 26.2998C45.365 26.2998 46.0657 26.1059 46.6187 25.7182C47.1899 25.3121 47.4759 24.7675 47.4759 24.0844V22.1736H45.0427C43.1072 22.1736 42.1395 22.7829 42.1395 24.0013V24.5552C42.1395 25.1275 42.3512 25.5613 42.7754 25.8567C43.1993 26.1521 43.7799 26.2998 44.5174 26.2998ZM61.898 28.7367C60.3314 28.7367 58.9766 28.4967 57.8335 28.0167C56.6908 27.5182 55.7969 26.8536 55.1515 26.0229L57.2252 24.1398C57.8153 24.7859 58.488 25.2844 59.2436 25.6352C60.0178 25.9859 60.9121 26.1613 61.9256 26.1613C62.8104 26.1613 63.5203 26.0136 64.0547 25.7182C64.5895 25.4228 64.8565 24.9705 64.8565 24.3613C64.8565 23.8444 64.6725 23.4936 64.3035 23.309C63.9536 23.1244 63.4835 22.9859 62.8934 22.8936L60.5985 22.5336C60.0087 22.4413 59.4281 22.3121 58.8565 22.1459C58.3035 21.9613 57.8058 21.7121 57.3634 21.3982C56.9396 21.0844 56.5987 20.6875 56.3404 20.2075C56.0825 19.709 55.9533 19.109 55.9533 18.4075C55.9533 16.9121 56.5063 15.7675 57.6123 14.9736C58.7368 14.1798 60.2761 13.7829 62.2298 13.7829C63.6123 13.7829 64.7831 13.9767 65.7413 14.3644C66.7185 14.7521 67.5204 15.2967 68.1468 15.9982L66.2943 18.0475C65.889 17.6044 65.3451 17.2167 64.663 16.8844C63.9994 16.5336 63.1517 16.3582 62.1192 16.3582C60.3129 16.3582 59.4095 16.9213 59.4095 18.0475C59.4095 18.5644 59.594 18.9244 59.9625 19.1275C60.3314 19.3121 60.8106 19.4506 61.4003 19.5429L63.6676 19.9029C64.2759 19.9952 64.8565 20.1336 65.4095 20.3182C65.9811 20.4844 66.4788 20.7244 66.9026 21.0382C67.345 21.3521 67.6954 21.749 67.9533 22.229C68.2116 22.709 68.3404 23.2998 68.3404 24.0013C68.3404 25.4782 67.7692 26.6413 66.6261 27.4905C65.5019 28.3213 63.9259 28.7367 61.898 28.7367ZM79.5002 28.4044C78.1363 28.4044 77.1314 28.0444 76.4864 27.3244C75.8414 26.6044 75.5187 25.6721 75.5187 24.5275V16.9121H71.3712V14.1152H74.1915C74.763 14.1152 75.1683 14.0044 75.4081 13.7829C75.6478 13.5428 75.7675 13.1275 75.7675 12.5367V9.07516H79.0578V14.1152H84.8643V16.9121H79.0578V25.6075H84.8643V28.4044H79.5002ZM95.4435 28.7367C94.3004 28.7367 93.2868 28.5613 92.402 28.2105C91.5172 27.8598 90.7707 27.3613 90.1624 26.7152C89.5723 26.069 89.1208 25.2936 88.8075 24.389C88.4939 23.4659 88.3375 22.4321 88.3375 21.2875C88.3375 20.1244 88.4939 19.0813 88.8075 18.1582C89.1393 17.2352 89.5999 16.4505 90.19 15.8044C90.7798 15.1583 91.4896 14.6598 92.3191 14.309C93.1667 13.9582 94.1163 13.7829 95.167 13.7829C96.1991 13.7829 97.1301 13.9582 97.9596 14.309C98.7891 14.6413 99.4894 15.1213 100.061 15.749C100.651 16.3767 101.102 17.1336 101.416 18.0198C101.729 18.9059 101.886 19.8844 101.886 20.9552V22.1182H91.8767V22.4782C91.8767 23.5121 92.199 24.3521 92.8444 24.9982C93.4894 25.6259 94.3928 25.9398 95.5541 25.9398C96.4389 25.9398 97.1945 25.7644 97.8214 25.4136C98.4664 25.0444 99.0008 24.5644 99.4251 23.9736L101.443 25.9952C100.927 26.7521 100.172 27.3983 99.1762 27.9336C98.199 28.469 96.9547 28.7367 95.4435 28.7367ZM95.1946 16.3859C94.1992 16.3859 93.3974 16.6998 92.7891 17.3275C92.1808 17.9552 91.8767 18.7859 91.8767 19.8198V20.0136H98.3467V19.7644C98.3467 18.7306 98.0607 17.909 97.4896 17.2998C96.9366 16.6905 96.1715 16.3859 95.1946 16.3859ZM105.469 25.6075H109.008V16.9121H105.469V14.1152H112.548V18.0198H112.769C112.898 17.5213 113.073 17.0413 113.294 16.5798C113.534 16.0998 113.829 15.6844 114.179 15.3336C114.548 14.9644 114.99 14.669 115.506 14.4475C116.022 14.2259 116.64 14.1152 117.359 14.1152H118.907V17.4382H115.976C114.907 17.4382 114.068 17.7521 113.46 18.3798C112.852 19.0075 112.548 19.8106 112.548 20.789V25.6075H117.497V28.4044H105.469V25.6075Z" fill="#232323"/>
<path fill-rule="evenodd" clip-rule="evenodd" d="M10.4258 7.96098C6.15066 7.95995 3.87294 7.9594 2.78089 7.95912C2.30278 7.959 1.91863 8.34575 1.9184 8.82459L1.90918 27.8257C1.90895 28.3081 2.29701 28.7007 2.77875 28.7009C4.88845 28.7014 10.4588 28.7027 15.2861 28.7039C21.332 28.7053 22.5325 8.30587 13.6056 7.96597L13.0626 11.3985C17.7664 13.2225 17.8132 25.0613 13.4997 25.0624C10.143 25.0632 7.14823 25.0628 5.72699 25.0626C5.24541 25.0624 4.85397 24.6701 4.85397 24.1878V12.031C4.85397 11.5516 5.23972 11.1642 5.71842 11.1643C6.43838 11.1645 7.71469 11.1646 9.91905 11.1642L10.4258 7.96098Z" fill="url(#paint0_linear_240_1140)"/>
<mask id="mask0_240_1140" style="mask-type:luminance" maskUnits="userSpaceOnUse" x="1" y="7" width="20" height="22">
<path fill-rule="evenodd" clip-rule="evenodd" d="M10.4258 7.96098C6.15066 7.95995 3.87294 7.9594 2.78089 7.95912C2.30278 7.959 1.91863 8.34575 1.9184 8.82459L1.90918 27.8257C1.90895 28.3081 2.29701 28.7007 2.77875 28.7009C4.88845 28.7014 10.4588 28.7027 15.2861 28.7039C21.332 28.7053 22.5325 8.30587 13.6056 7.96597L13.0626 11.3985C17.7664 13.2225 17.8132 25.0613 13.4997 25.0624C10.143 25.0632 7.14823 25.0628 5.72699 25.0626C5.24541 25.0624 4.85397 24.6701 4.85397 24.1878V12.031C4.85397 11.5516 5.23972 11.1642 5.71842 11.1643C6.43838 11.1645 7.71469 11.1646 9.91905 11.1642L10.4258 7.96098Z" fill="white"/>
</mask>
<g mask="url(#mask0_240_1140)">
<path d="M10.4257 7.96098L10.8158 8.02285L10.8882 7.56549L10.4258 7.56537L10.4257 7.96098ZM13.6056 7.96596L13.6206 7.57068L13.2703 7.5573L13.2155 7.90409L13.6056 7.96596ZM13.0626 11.3985L12.6725 11.3366L12.6226 11.6521L12.92 11.7674L13.0626 11.3985ZM9.91903 11.1642L9.91907 11.5598L10.2564 11.5598L10.3092 11.2261L9.91903 11.1642ZM10.4258 7.56537C6.15072 7.56435 3.87303 7.56379 2.78099 7.56352L2.78076 8.35472C3.8728 8.355 6.15052 8.35555 10.4256 8.35658L10.4258 7.56537ZM2.78099 7.56352C2.0834 7.56336 1.52371 8.12848 1.52338 8.82443L2.31337 8.82478C2.3135 8.56301 2.52212 8.35468 2.78076 8.35472L2.78099 7.56352ZM1.52338 8.82443L1.51416 27.8255L2.30415 27.8258L2.31337 8.82478L1.52338 8.82443ZM1.51416 27.8255C1.51382 28.5243 2.07654 29.0963 2.77861 29.0965L2.77884 28.3053C2.51744 28.3052 2.30403 28.0919 2.30415 27.8258L1.51416 27.8255ZM2.77861 29.0965C4.88831 29.097 10.4586 29.0983 15.286 29.0995L15.2862 28.3083C10.4589 28.3071 4.88855 28.3058 2.77884 28.3053L2.77861 29.0965ZM15.286 29.0995C17.0489 29.0999 18.3548 27.6191 19.1924 25.6682C20.0424 23.6882 20.4861 21.0704 20.4556 18.4583C20.4251 15.8475 19.9205 13.1972 18.8326 11.1631C17.7396 9.11923 16.0327 7.6625 13.6206 7.57068L13.5906 8.36129C15.6419 8.43938 17.1326 9.66006 18.1362 11.5367C19.145 13.423 19.6361 15.9362 19.6657 18.4676C19.6952 20.9976 19.2631 23.5006 18.4666 25.3557C17.6576 27.2399 16.5463 28.3086 15.2862 28.3083L15.286 29.0995ZM13.2155 7.90409L12.6725 11.3366L13.4527 11.4604L13.9957 8.02788L13.2155 7.90409ZM13.4998 25.458C14.7967 25.4576 15.7101 24.5577 16.2708 23.3502C16.8326 22.1404 17.0885 20.5389 17.0576 18.9065C17.0265 17.2708 16.7068 15.5668 16.0837 14.1439C15.463 12.7269 14.5176 11.5385 13.2052 11.0296L12.92 11.7674C13.9596 12.1706 14.7839 13.146 15.3602 14.4618C15.9339 15.7717 16.2383 17.3694 16.2677 18.9216C16.2972 20.477 16.05 21.9494 15.5544 23.0166C15.0578 24.0862 14.3595 24.6665 13.4996 24.6668L13.4998 25.458ZM5.72685 25.4582C7.14813 25.4584 10.143 25.4588 13.4998 25.458L13.4996 24.6668C10.143 24.6676 7.14828 24.6672 5.72705 24.667L5.72685 25.4582ZM4.45895 24.1878C4.45895 24.8885 5.02707 25.458 5.72685 25.4582L5.72705 24.667C5.46374 24.6669 5.24894 24.4518 5.24894 24.1878L4.45895 24.1878ZM4.45895 12.031V24.1878L5.24894 24.1878V12.031L4.45895 12.031ZM5.71851 10.7687C5.02091 10.7685 4.45895 11.3338 4.45895 12.031L5.24894 12.031C5.24894 11.7694 5.45849 11.5598 5.71824 11.5599L5.71851 10.7687ZM9.91895 10.7686C7.71467 10.769 6.43843 10.7689 5.71851 10.7687L5.71824 11.5599C6.43832 11.5601 7.71467 11.5602 9.91907 11.5598L9.91895 10.7686ZM10.3092 11.2261L10.8158 8.02285L10.0356 7.89911L9.52889 11.1024L10.3092 11.2261Z" fill="#232323"/>
</g>
<mask id="mask1_240_1140" style="mask-type:luminance" maskUnits="userSpaceOnUse" x="0" y="8" width="8" height="21">
<path d="M7.43354 9.33541L2.12598 8.81593L0.289711 27.6249L5.59728 28.1444L7.43354 9.33541Z" fill="white"/>
</mask>
<g mask="url(#mask1_240_1140)">
<path d="M2.09424 9.14325L3.20742 8.9752C3.32606 8.95727 3.43673 9.03909 3.45461 9.15793C3.47249 9.27673 3.3908 9.38757 3.27216 9.40549L2.15898 9.57355L2.09424 9.14325Z" fill="#232323"/>
<path d="M2.0022 10.4902L3.40193 10.406C3.52169 10.3988 3.62461 10.4902 3.6318 10.6102C3.63898 10.7301 3.54772 10.8332 3.42795 10.8404L2.02822 10.9246L2.0022 10.4902Z" fill="#232323"/>
<path d="M2.00439 11.3556L2.93674 11.1838C3.04402 11.164 3.14698 11.2351 3.16672 11.3425C3.18645 11.4499 3.11548 11.5531 3.00821 11.5729L2.07586 11.7447L2.00439 11.3556Z" fill="#232323"/>
<path d="M1.95532 12.1903L3.02844 12.0109C3.12435 11.9949 3.21506 12.0598 3.23106 12.1558C3.24706 12.2519 3.18228 12.3427 3.08638 12.3588L2.01326 12.5381L1.95532 12.1903Z" fill="#232323"/>
<path d="M2.07886 13.069L3.5743 12.9398C3.70471 12.9285 3.81954 13.0252 3.83079 13.1559C3.84204 13.2865 3.74544 13.4015 3.61503 13.4127L2.11958 13.542L2.07886 13.069Z" fill="#232323"/>
<path d="M1.98169 13.9529L2.76521 13.8518C2.87339 13.8378 2.97239 13.9144 2.98632 14.0227C3.00026 14.131 2.92386 14.2302 2.81567 14.2441L2.03215 14.3452L1.98169 13.9529Z" fill="#232323"/>
<path d="M1.93066 14.8818L3.15416 14.8322C3.28494 14.8269 3.39525 14.9288 3.40054 15.0597C3.40583 15.1907 3.30409 15.3012 3.17331 15.3065L1.94981 15.3561L1.93066 14.8818Z" fill="#232323"/>
<path d="M2.00635 15.733L3.11953 15.5649C3.23817 15.547 3.34885 15.6288 3.36672 15.7477C3.3846 15.8665 3.30291 15.9773 3.18427 15.9952L2.07109 16.1633L2.00635 15.733Z" fill="#232323"/>
<path d="M2.07764 16.6285L3.47053 16.4665C3.58972 16.4527 3.69755 16.5382 3.71138 16.6576C3.72521 16.7769 3.63981 16.8849 3.52062 16.8988L2.12773 17.0608L2.07764 16.6285Z" fill="#232323"/>
<path d="M2.00732 17.3502L2.93968 17.1784C3.04695 17.1586 3.14992 17.2297 3.16965 17.3371C3.18938 17.4445 3.11842 17.5477 3.01114 17.5674L2.07879 17.7393L2.00732 17.3502Z" fill="#232323"/>
<path d="M2.01622 18.0723L3.30817 18.1238C3.40532 18.1277 3.48095 18.2097 3.47708 18.307C3.4732 18.4043 3.39131 18.48 3.29415 18.4762L2.0022 18.4247L2.01622 18.0723Z" fill="#232323"/>
<path d="M2.05005 18.9455L2.90126 18.872C3.03167 18.8607 3.1465 18.9575 3.15774 19.0881C3.16899 19.2187 3.07239 19.3337 2.94198 19.345L2.09077 19.4185L2.05005 18.9455Z" fill="#232323"/>
<path d="M1.97144 20.1571L3.12454 20.0083C3.23272 19.9943 3.33172 20.0708 3.34565 20.1792C3.35959 20.2875 3.28318 20.3867 3.175 20.4006L2.0219 20.5494L1.97144 20.1571Z" fill="#232323"/>
<path d="M1.89062 20.9844L3.85744 20.9047C3.98825 20.8993 4.09853 21.0013 4.10382 21.1322C4.10912 21.2632 4.00736 21.3737 3.8766 21.379L1.90977 21.4587L1.89062 20.9844Z" fill="#232323"/>
<path d="M1.94946 22.0077L3.06264 21.8397C3.18128 21.8218 3.29196 21.9036 3.30984 22.0224C3.32771 22.1412 3.24602 22.2521 3.12738 22.27L2.0142 22.438L1.94946 22.0077Z" fill="#232323"/>
<path d="M1.9939 23.1789L3.38679 23.0169C3.50598 23.003 3.61381 23.0885 3.62764 23.2079C3.64147 23.3273 3.55607 23.4353 3.43688 23.4491L2.04399 23.6111L1.9939 23.1789Z" fill="#232323"/>
<path d="M1.99413 23.9901L3.38689 24.0193C3.49594 24.0216 3.58249 24.112 3.5802 24.2212C3.57791 24.3305 3.48765 24.4171 3.37859 24.4148L1.98584 24.3856L1.99413 23.9901Z" fill="#232323"/>
<path d="M2.04663 25.0831L3.11975 24.9038C3.21566 24.8878 3.30637 24.9526 3.32237 25.0487C3.33836 25.1447 3.27359 25.2356 3.17768 25.2516L2.10457 25.431L2.04663 25.0831Z" fill="#232323"/>
<path d="M1.93433 25.9335L3.42977 25.8042C3.56018 25.793 3.67501 25.8897 3.68626 26.0203C3.6975 26.151 3.6009 26.266 3.4705 26.2772L1.97505 26.4064L1.93433 25.9335Z" fill="#232323"/>
<path d="M2.0376 26.7973L2.82112 26.6961C2.9293 26.6822 3.0283 26.7587 3.04223 26.867C3.05616 26.9754 2.97976 27.0745 2.87158 27.0885L2.08805 27.1896L2.0376 26.7973Z" fill="#232323"/>
</g>
<path d="M8.38344 14.9682L7.76807 14.8596L7.50673 16.3438L8.1221 16.4525L8.38344 14.9682Z" fill="#3D3D3D"/>
<path d="M13.1948 14.4977L12.6731 14.4056L12.4886 15.4535L13.0103 15.5456L13.1948 14.4977Z" fill="#3D3D3D"/>
<path d="M12.5854 14.1758L9.55127 13.64L8.76895 18.0831L11.8031 18.6189L12.5854 14.1758Z" fill="#3D3D3D"/>
<path d="M12.2803 17.2165L16.0201 18.7757V19.6088L13.5106 19.1423L11.7983 18.3964L12.2803 17.2165Z" fill="#3D3D3D"/>
<path d="M9.24861 18.4435L8.79258 18.293L8.31484 18.7356L5.86621 18.0418L6.18873 18.5681L7.13782 19.3143L9.139 19.6566L9.24861 18.4435Z" fill="#3D3D3D"/>
<path d="M9.24861 18.4435L8.79258 18.293L8.31484 18.7356L5.86621 18.0418L6.18873 18.5681L7.13782 19.3143L9.139 19.6566L9.24861 18.4435Z" fill="#3D3D3D"/>
<path d="M11.3787 18.4819L9.46826 18.1446L8.64853 22.8001L10.559 23.1374L11.3787 18.4819Z" fill="#3D3D3D"/>
<path d="M5.35254 21.6303L6.3678 21.0321L7.83695 20.972L8.7089 21.295L12.4236 21.8571L12.9133 21.7498L15.3261 22.1682L14.5019 23.1374L11.1933 23.2806L7.5503 22.5511L7.34723 21.7498L5.35254 21.6303Z" fill="#3D3D3D"/>
<path d="M13.5136 5.06022L11.5923 4.75548L10.1946 13.5924L12.116 13.8971L13.5136 5.06022Z" fill="#3D3D3D"/>
<path d="M12.3901 4.8331L12.926 1.56034C12.9628 1.52935 12.9938 1.50734 13.0207 1.49376C13.0488 1.47956 13.0708 1.47538 13.0894 1.4783C13.1078 1.48118 13.1261 1.49154 13.146 1.51296C13.1651 1.53363 13.1846 1.56355 13.2058 1.60399L12.6698 4.87749L12.3901 4.8331Z" fill="#232323"/>
<path d="M11.6285 4.98133L10.2576 13.4879L9.97803 13.4435L11.3788 4.91467C11.4052 4.7539 11.5596 4.64463 11.7238 4.6707L13.4385 4.9428C13.6027 4.96887 13.7145 5.12034 13.6882 5.28116L12.2728 13.7971L11.9817 13.7518L13.3928 5.26126L13.396 5.24187L13.3762 5.23871L12.5096 5.1012L11.6515 4.96503L11.6316 4.96186L11.6285 4.98133Z" fill="#232323"/>
<path d="M9.48367 13.6684L8.80187 18.349L8.4978 18.3023L9.16061 13.6035C9.18691 13.4428 9.3414 13.3335 9.50556 13.3596L10.3309 13.4905C10.4951 13.5166 10.6068 13.668 10.5805 13.8289L9.85943 18.2325C9.83309 18.3932 9.67864 18.5025 9.51444 18.4764L9.50935 18.4756L10.2759 13.7941L10.2791 13.7747L10.2593 13.7716L9.78032 13.6956L9.50666 13.6521L9.48687 13.649L9.48367 13.6684Z" fill="#232323"/>
<path d="M11.7246 18.8265L12.4911 14.1457L12.4943 14.1262L12.4744 14.1231L11.9696 14.043L11.6846 13.9977L11.6647 13.9946L11.6616 14.014L10.895 18.6955L10.8785 18.6929C10.7143 18.6668 10.6025 18.5154 10.6288 18.3545L11.3975 13.6598L12.5201 13.8379C12.6844 13.864 12.7961 14.0155 12.7698 14.1763L12.0486 18.5808C12.0234 18.7346 11.8807 18.841 11.7246 18.8265Z" fill="#232323"/>
<path d="M11.9214 5.24243L12.1498 5.27867C12.2173 5.28939 12.2739 5.3331 12.2771 5.39153C12.2786 5.41804 12.2748 5.44182 12.2651 5.46591C12.244 5.51852 12.178 5.54115 12.1119 5.53067L11.8759 5.49324C11.8136 5.48335 11.7606 5.44605 11.7534 5.39312C11.7493 5.36186 11.7538 5.33397 11.7683 5.30383C11.7928 5.25327 11.8573 5.23226 11.9214 5.24243Z" fill="#232323"/>
<path d="M12.8323 5.38699L13.0607 5.42322C13.1282 5.4339 13.1848 5.4777 13.188 5.53605C13.1895 5.56255 13.1857 5.58633 13.176 5.6105C13.1549 5.66308 13.0889 5.68571 13.0227 5.67522L12.7868 5.63776C12.7245 5.62791 12.6715 5.59056 12.6644 5.53767C12.6601 5.50638 12.6646 5.47849 12.6792 5.44834C12.7038 5.39782 12.7682 5.37682 12.8323 5.38699Z" fill="#232323"/>
<path d="M9.60207 14.6236L9.67838 14.1576C9.68763 14.1011 9.72148 14.0522 9.77223 14.0381C9.79973 14.0304 9.82319 14.0286 9.84495 14.032C9.86664 14.0355 9.88793 14.0444 9.91076 14.0601C9.95239 14.0887 9.96756 14.1438 9.95855 14.1987L9.88098 14.6724C9.87268 14.7231 9.84476 14.7677 9.80079 14.7852C9.77034 14.7974 9.7449 14.8011 9.72128 14.7974C9.69758 14.7937 9.67352 14.7824 9.64639 14.7608C9.60744 14.7299 9.59342 14.6766 9.60207 14.6236Z" fill="#232323"/>
<path d="M11.8142 14.9747L11.8905 14.5087C11.8998 14.4522 11.9336 14.4033 11.9844 14.3892C12.0119 14.3814 12.0353 14.3796 12.0571 14.3831C12.0788 14.3865 12.1 14.3955 12.1229 14.4111C12.1646 14.4397 12.1797 14.4949 12.1707 14.5498L12.0931 15.0234C12.0848 15.0742 12.0569 15.1187 12.013 15.1363C11.9824 15.1484 11.957 15.1521 11.9334 15.1484C11.9097 15.1448 11.8857 15.1334 11.8585 15.1118C11.8196 15.0809 11.8056 15.0276 11.8142 14.9747Z" fill="#232323"/>
<path d="M11.5691 16.4709L11.6454 16.0049C11.6547 15.9484 11.6886 15.8995 11.7393 15.8854C11.7668 15.8777 11.7903 15.8759 11.812 15.8793C11.8337 15.8828 11.855 15.8917 11.8778 15.9073C11.9195 15.9359 11.9346 15.9911 11.9256 16.046L11.8481 16.5197C11.8398 16.5704 11.8118 16.615 11.7679 16.6326C11.7374 16.6447 11.7119 16.6484 11.6884 16.6447C11.6647 16.6411 11.6406 16.6297 11.6134 16.6081C11.5745 16.5772 11.5605 16.5238 11.5691 16.4709Z" fill="#232323"/>
<path d="M11.3203 17.9895L11.3966 17.5235C11.4059 17.467 11.4398 17.4181 11.4905 17.4039C11.518 17.3963 11.5415 17.3945 11.5632 17.3979C11.5849 17.4014 11.6062 17.4103 11.629 17.4259C11.6707 17.4545 11.6858 17.5097 11.6769 17.5646L11.5993 18.0383C11.591 18.089 11.5631 18.1336 11.5191 18.1511C11.4886 18.1633 11.4632 18.1669 11.4396 18.1633C11.4159 18.1596 11.3918 18.1482 11.3646 18.1266C11.3257 18.0957 11.3117 18.0424 11.3203 17.9895Z" fill="#232323"/>
<path d="M9.33427 16.1163L9.41054 15.6502C9.41978 15.5938 9.45367 15.5448 9.50443 15.5307C9.53188 15.523 9.55535 15.5212 9.57711 15.5247C9.59879 15.5281 9.62008 15.537 9.64288 15.5527C9.68455 15.5813 9.69972 15.6364 9.69071 15.6913L9.61313 16.165C9.60484 16.2157 9.57691 16.2603 9.53295 16.2779C9.50249 16.29 9.4771 16.2937 9.45344 16.29C9.42974 16.2864 9.40572 16.275 9.37854 16.2534C9.3396 16.2225 9.32558 16.1691 9.33427 16.1163Z" fill="#232323"/>
<path d="M9.10842 17.6385L9.18473 17.1724C9.19397 17.116 9.22782 17.067 9.27858 17.0529C9.30607 17.0452 9.3295 17.0434 9.35126 17.0469C9.37299 17.0503 9.39424 17.0592 9.41707 17.0749C9.4587 17.1035 9.47387 17.1587 9.46486 17.2135L9.38728 17.6872C9.37899 17.7379 9.35114 17.7825 9.3071 17.8001C9.27665 17.8122 9.25125 17.8159 9.22759 17.8122C9.20389 17.8086 9.17987 17.7972 9.1527 17.7756C9.11379 17.7447 9.09977 17.6914 9.10842 17.6385Z" fill="#232323"/>
<path d="M12.1901 7.52906L13.0295 7.66226L12.9774 7.98076L12.1394 7.84776C12.0649 7.83593 11.9971 7.79728 11.9734 7.73375C11.963 7.7059 11.9597 7.68157 11.9634 7.65838C11.967 7.63524 11.9779 7.61154 11.9988 7.58543C12.0409 7.53294 12.1164 7.51739 12.1901 7.52906Z" fill="#232323"/>
<path d="M12.2946 8.57547L12.8534 8.66413L12.8012 8.98263L12.2439 8.89417C12.1548 8.88005 12.0748 8.82696 12.0673 8.74911C12.0643 8.71809 12.0688 8.68893 12.083 8.65792C12.1154 8.58711 12.2065 8.56151 12.2946 8.57547Z" fill="#232323"/>
<path d="M11.8914 9.56951L12.7008 9.69797L12.6487 10.0164L11.8406 9.88821C11.7647 9.87618 11.6958 9.83631 11.6734 9.77123C11.6643 9.74469 11.6615 9.72123 11.6651 9.69876C11.6686 9.67633 11.6788 9.65338 11.698 9.6283C11.7393 9.57402 11.8163 9.5576 11.8914 9.56951Z" fill="#232323"/>
<path d="M11.948 10.6649L12.4837 10.75L12.4316 11.0685L11.8973 10.9836C11.8532 10.9767 11.8098 10.9595 11.777 10.9339C11.7444 10.9085 11.723 10.8754 11.72 10.8357C11.7178 10.8066 11.7222 10.7791 11.7348 10.7499C11.7661 10.6775 11.8587 10.6507 11.948 10.6649Z" fill="#232323"/>
<path d="M11.5051 11.6066L12.3445 11.7398L12.2923 12.0583L11.4543 11.9254C11.3798 11.9135 11.312 11.8749 11.2884 11.8113C11.278 11.7834 11.2746 11.7591 11.2783 11.736C11.2819 11.7128 11.2929 11.6891 11.3138 11.663C11.3559 11.6106 11.4314 11.5949 11.5051 11.6066Z" fill="#232323"/>
<path d="M11.6037 12.6584L12.1625 12.747L12.1103 13.0655L11.5529 12.9771C11.4639 12.9629 11.3839 12.9099 11.3764 12.832C11.3734 12.801 11.3779 12.7718 11.3921 12.7409C11.4244 12.67 11.5156 12.6444 11.6037 12.6584Z" fill="#232323"/>
<path d="M11.2055 13.6524L11.4346 13.6888L11.3825 14.0072L11.1546 13.9711C11.1015 13.9627 11.0505 13.9386 11.0152 13.9045C10.9801 13.8706 10.9612 13.8276 10.969 13.7798C10.9692 13.7785 10.9694 13.7772 10.9697 13.7759C10.9781 13.7283 11.0096 13.6936 11.0532 13.6724C11.0973 13.6511 11.1528 13.644 11.2055 13.6524Z" fill="#232323"/>
<path d="M10.8405 15.7291L11.1091 15.7669L11.0501 16.0844L10.7828 16.0468C10.7207 16.0381 10.6607 16.0137 10.619 15.9794C10.5777 15.9453 10.5553 15.9024 10.5642 15.8547C10.5644 15.8534 10.5646 15.8521 10.5649 15.8509C10.5745 15.8034 10.6111 15.769 10.6622 15.7481C10.7137 15.7271 10.7787 15.7205 10.8405 15.7291Z" fill="#232323"/>
<path d="M10.5085 17.7462L10.7376 17.7825L10.6854 18.101L10.4575 18.0649C10.4046 18.0565 10.3535 18.0323 10.3181 17.9982C10.2831 17.9643 10.2642 17.9214 10.272 17.8735C10.2722 17.8723 10.2724 17.871 10.2727 17.8697C10.2811 17.8221 10.3126 17.7874 10.3563 17.7662C10.4003 17.7448 10.4558 17.7378 10.5085 17.7462Z" fill="#232323"/>
<path d="M11.1103 14.6963L11.254 14.716L11.1969 15.0142L11.0542 14.9947C10.9946 14.9866 10.9396 14.9649 10.9019 14.9343C10.8647 14.9041 10.8446 14.8655 10.8522 14.8211C10.8597 14.777 10.894 14.742 10.9423 14.7197C10.9907 14.6973 11.0522 14.6884 11.1103 14.6963Z" fill="#232323"/>
<path d="M10.787 16.758L10.9326 16.7778L10.8748 17.0759L10.7303 17.0563C10.6698 17.0481 10.614 17.0265 10.5758 16.9959C10.5381 16.9657 10.5176 16.927 10.5253 16.8827C10.533 16.8386 10.5676 16.8037 10.6166 16.7813C10.6658 16.759 10.728 16.75 10.787 16.758Z" fill="#232323"/>
<path d="M8.70145 18.1414L9.60654 18.1889L9.57791 18.4834L8.67285 18.4358L8.70145 18.1414Z" fill="#232323"/>
<path d="M11.7723 18.5538L10.9361 18.4222L10.8953 18.6962L11.7275 18.8276L11.7723 18.5538Z" fill="#232323"/>
<path fill-rule="evenodd" clip-rule="evenodd" d="M12.7077 17.0864C12.6869 17.0778 12.6653 17.0717 12.6431 17.0682L12.2035 16.9985L11.9109 18.785L12.9573 18.9913C13.0501 19.0095 13.1299 19.0669 13.1756 19.148L13.1938 19.1804C13.2353 19.254 13.3087 19.3051 13.3932 19.3191L16.1165 19.7722C16.1968 19.7856 16.2788 19.761 16.3377 19.706C16.383 19.6636 16.3999 19.5995 16.3802 19.5411C16.2259 19.084 16.0793 18.8029 15.7247 18.3709C15.6961 18.3359 15.6588 18.3087 15.6166 18.2913L12.7077 17.0864ZM12.7563 17.4492C12.7076 17.4286 12.6564 17.414 12.6041 17.4057L12.27 17.3527L12.0817 18.5028L13.1689 18.7041C13.2551 18.7201 13.3308 18.7698 13.3787 18.8418L13.4149 18.8962C13.4644 18.9707 13.5436 19.0212 13.6331 19.0354L15.8217 19.3827C15.8826 19.3924 15.9312 19.3339 15.9081 19.2778C15.8223 19.0705 15.7413 18.9207 15.5983 18.7219C15.5494 18.6541 15.4813 18.602 15.4034 18.569L12.7563 17.4492Z" fill="#232323"/>
<mask id="mask2_240_1140" style="mask-type:luminance" maskUnits="userSpaceOnUse" x="11" y="16" width="6" height="4">
<path fill-rule="evenodd" clip-rule="evenodd" d="M12.7077 17.0864C12.6869 17.0778 12.6653 17.0717 12.6431 17.0682L12.2035 16.9985L11.9109 18.785L12.9573 18.9913C13.0501 19.0095 13.1299 19.0669 13.1756 19.148L13.1938 19.1804C13.2353 19.254 13.3087 19.3051 13.3932 19.3191L16.1165 19.7722C16.1968 19.7856 16.2788 19.761 16.3377 19.706C16.383 19.6636 16.3999 19.5995 16.3802 19.5411C16.2259 19.084 16.0793 18.8029 15.7247 18.3709C15.6961 18.3359 15.6588 18.3087 15.6166 18.2913L12.7077 17.0864ZM12.7563 17.4492C12.7076 17.4286 12.6564 17.414 12.6041 17.4057L12.27 17.3527L12.0817 18.5028L13.1689 18.7041C13.2551 18.7201 13.3308 18.7698 13.3787 18.8418L13.4149 18.8962C13.4644 18.9707 13.5436 19.0212 13.6331 19.0354L15.8217 19.3827C15.8826 19.3924 15.9312 19.3339 15.9081 19.2778C15.8223 19.0705 15.7413 18.9207 15.5983 18.7219C15.5494 18.6541 15.4813 18.602 15.4034 18.569L12.7563 17.4492Z" fill="white"/>
</mask>
<g mask="url(#mask2_240_1140)">
<path d="M12.2036 16.9984L12.2099 16.9596L12.1703 16.9534L12.1639 16.9921L12.2036 16.9984ZM11.911 18.785L11.8714 18.7787L11.8652 18.8161L11.9032 18.8235L11.911 18.785ZM12.2701 17.3527L12.2765 17.3139L12.2369 17.3075L12.2305 17.3464L12.2701 17.3527ZM12.0819 18.5028L12.0422 18.4965L12.036 18.5343L12.0745 18.5414L12.0819 18.5028ZM12.6368 17.107C12.6559 17.1101 12.6745 17.1153 12.6922 17.1226L12.7234 17.0502C12.6997 17.0404 12.6749 17.0334 12.6495 17.0294L12.6368 17.107ZM12.1972 17.0372L12.6368 17.107L12.6495 17.0294L12.2099 16.9596L12.1972 17.0372ZM11.9507 18.7913L12.2432 17.0047L12.1639 16.9921L11.8714 18.7787L11.9507 18.7913ZM12.9653 18.9527L11.9189 18.7464L11.9032 18.8235L12.9496 19.0298L12.9653 18.9527ZM13.2109 19.1291C13.1594 19.0378 13.0696 18.9733 12.9653 18.9527L12.9496 19.0298C13.0307 19.0458 13.1006 19.096 13.1406 19.167L13.2109 19.1291ZM13.2291 19.1615L13.2109 19.1291L13.1406 19.167L13.1588 19.1994L13.2291 19.1615ZM13.4 19.2804C13.3276 19.2683 13.2646 19.2245 13.2291 19.1615L13.1588 19.1994C13.2062 19.2835 13.2901 19.3418 13.3867 19.3579L13.4 19.2804ZM16.1233 19.7334L13.4 19.2804L13.3867 19.3579L16.1099 19.811L16.1233 19.7334ZM16.3101 19.6775C16.2603 19.724 16.1911 19.7447 16.1233 19.7334L16.1099 19.811C16.2028 19.8264 16.2975 19.7981 16.3656 19.7345L16.3101 19.6775ZM16.3422 19.5534C16.357 19.5971 16.3445 19.6454 16.3101 19.6775L16.3656 19.7345C16.4219 19.6818 16.4432 19.6019 16.4184 19.5288L16.3422 19.5534ZM15.6935 18.3955C16.0451 18.8238 16.1894 19.1006 16.3422 19.5534L16.4184 19.5288C16.2627 19.0673 16.1138 18.782 15.7561 18.3463L15.6935 18.3955ZM15.6012 18.3275C15.6373 18.3425 15.6692 18.3658 15.6935 18.3955L15.7561 18.3463C15.7232 18.3062 15.6804 18.2749 15.6324 18.255L15.6012 18.3275ZM12.6922 17.1226L15.6012 18.3275L15.6324 18.255L12.7234 17.0502L12.6922 17.1226ZM12.5979 17.4445C12.6469 17.4523 12.6949 17.466 12.7405 17.4854L12.7723 17.4131C12.7205 17.3912 12.6662 17.3757 12.6106 17.3669L12.5979 17.4445ZM12.2638 17.3915L12.5979 17.4445L12.6106 17.3669L12.2765 17.3139L12.2638 17.3915ZM12.1215 18.5091L12.3098 17.359L12.2305 17.3464L12.0422 18.4965L12.1215 18.5091ZM13.1764 18.6655L12.0893 18.4642L12.0745 18.5414L13.1616 18.7428L13.1764 18.6655ZM13.4125 18.8204C13.3586 18.7394 13.2733 18.6834 13.1764 18.6655L13.1616 18.7428C13.237 18.7567 13.3033 18.8003 13.3452 18.8633L13.4125 18.8204ZM13.4487 18.8748L13.4125 18.8204L13.3452 18.8633L13.3814 18.9176L13.4487 18.8748ZM13.6396 18.9966C13.5613 18.9841 13.4919 18.9399 13.4487 18.8748L13.3814 18.9176C13.4371 19.0014 13.5262 19.0582 13.6269 19.0742L13.6396 18.9966ZM15.8282 19.3439L13.6396 18.9966L13.6269 19.0742L15.8154 19.4215L15.8282 19.3439ZM15.8711 19.2925C15.8821 19.3194 15.859 19.3488 15.8282 19.3439L15.8154 19.4215C15.9064 19.436 15.9807 19.3483 15.9454 19.2631L15.8711 19.2925ZM15.5656 18.7446C15.7068 18.9408 15.7864 19.0879 15.8711 19.2925L15.9454 19.2631C15.8586 19.0531 15.7761 18.9006 15.6312 18.6993L15.5656 18.7446ZM15.3877 18.6052C15.4593 18.6354 15.5213 18.6831 15.5656 18.7446L15.6312 18.6993C15.5777 18.6251 15.5035 18.5685 15.4195 18.533L15.3877 18.6052ZM12.7405 17.4854L15.3877 18.6052L15.4195 18.533L12.7723 17.4131L12.7405 17.4854Z" fill="#232323"/>
</g>
<path d="M12.7496 14.1412L12.8028 14.1569C12.8788 14.1793 12.9521 14.2094 13.0217 14.2466C13.0735 14.2743 13.1218 14.3086 13.1616 14.3513C13.1828 14.3742 13.2003 14.3948 13.221 14.421C13.2552 14.4651 13.2756 14.4961 13.2974 14.5311C13.3265 14.5779 13.3509 14.6277 13.3651 14.6806C13.3788 14.7315 13.3853 14.7754 13.3843 14.8376C13.3885 14.9357 13.3845 14.995 13.3632 15.1092C13.3366 15.2267 13.3146 15.2862 13.2605 15.3793C13.2091 15.4462 13.1748 15.4838 13.1058 15.5381L13.0018 15.6064C12.9407 15.6465 12.8718 15.6738 12.7993 15.6864C12.7126 15.7015 12.6239 15.7022 12.537 15.6884L12.4973 15.6821L12.5448 15.3918L12.6245 15.4044C12.6843 15.4139 12.7455 15.4073 12.8017 15.3853C12.8277 15.3752 12.852 15.3614 12.8738 15.3443L12.8996 15.3242C12.9493 15.2853 12.9902 15.2367 13.0197 15.1815C13.0348 15.153 13.0452 15.1224 13.0504 15.0906L13.0609 15.0268L13.0818 14.8986C13.0873 14.8653 13.0868 14.8312 13.0803 14.7981L13.075 14.7708C13.0681 14.736 13.0547 14.7027 13.0355 14.6726C13.0116 14.6351 12.9826 14.6009 12.9495 14.5708L12.9461 14.5677C12.9207 14.5446 12.8922 14.5249 12.8613 14.5091L12.8106 14.4831L12.7003 14.4426L12.7496 14.1412Z" fill="#232323"/>
<path d="M8.87521 15.6965L8.48901 15.6408L8.44085 15.9753L8.82704 16.0311L8.87521 15.6965Z" fill="#232323"/>
<path fill-rule="evenodd" clip-rule="evenodd" d="M8.1186 14.6673C7.83112 14.6232 7.56236 14.8208 7.51828 15.1087L7.3538 16.183C7.30976 16.4709 7.50706 16.74 7.7945 16.7842C8.08194 16.8283 8.3507 16.6306 8.39478 16.3427L8.55925 15.2684C8.60334 14.9805 8.40604 14.7113 8.1186 14.6673ZM8.07704 15.0075C7.96842 14.9908 7.86687 15.0655 7.8502 15.1743L7.69236 16.2055C7.67569 16.3143 7.75022 16.4159 7.85885 16.4326C7.96747 16.4493 8.06906 16.3746 8.08569 16.2658L8.24357 15.2346C8.2602 15.1258 8.18567 15.0241 8.07704 15.0075Z" fill="#232323"/>
<path fill-rule="evenodd" clip-rule="evenodd" d="M9.51458 18.4692L8.52291 18.2516C8.44181 18.4465 8.22591 18.5476 8.0245 18.4849L5.98395 17.85C5.80209 17.7934 5.65009 17.997 5.75572 18.1557C6.41655 19.1486 7.51325 19.7633 8.70389 19.8082L9.29722 19.8306L9.51458 18.4692ZM9.14668 18.5302L8.75307 18.4654C8.69619 18.7593 8.39718 18.9387 8.1116 18.8503L6.23994 18.2708C6.89173 19.1385 7.95194 19.6031 9.03024 19.4906L9.14668 18.5302Z" fill="#232323"/>
<path fill-rule="evenodd" clip-rule="evenodd" d="M9.72672 18.4389L9.41965 18.3759L9.19564 19.7977L8.83884 19.7843L8.68717 20.9305C8.67615 21.0138 8.58668 21.0616 8.51143 21.0244C8.23604 20.8884 7.93505 20.812 7.62818 20.8005L7.58038 20.7987C6.7072 20.7657 5.84986 21.0386 5.15586 21.5704L5.01168 21.6809C4.90124 21.7655 4.9627 21.9422 5.10174 21.9398L6.84498 21.9095C7.02182 21.9065 7.16027 22.0612 7.13779 22.237L7.09647 22.5605C7.07985 22.6908 7.1703 22.8104 7.29998 22.8297L9.40582 23.1427C10.7411 23.3411 12.095 23.3831 13.44 23.2678L14.1182 23.2096C14.5178 23.1753 14.8904 22.9938 15.164 22.7002L15.5577 22.2777C15.6654 22.1622 15.601 21.9731 15.4453 21.9475L12.8111 21.5154C12.6825 21.4943 12.5517 21.5382 12.4618 21.6327C12.3876 21.7106 12.2795 21.7463 12.1736 21.728L11.2609 21.5698C11.0478 21.5328 10.8944 21.3397 11.0086 21.1557C11.0393 21.1063 11.0503 21.0703 11.0595 21.0128L11.3871 18.9709L11.4442 18.779L11.1222 18.7253L11.1124 18.7233C11.13 18.7499 11.1397 18.782 11.1384 18.816C11.1367 18.861 11.0974 18.8952 11.0527 18.8906L10.6901 18.8534C10.5627 18.8404 10.384 18.8516 10.3779 18.9798C10.373 19.0836 10.5025 19.1399 10.6051 19.156L10.9971 19.2175C11.0393 19.2241 11.0687 19.2632 11.0632 19.3057L10.9918 19.8617C10.989 19.8829 10.9699 19.8981 10.9486 19.896L10.1826 19.8176C10.0925 19.8083 9.98994 19.8115 9.95368 19.8946C9.90312 20.0106 10.0661 20.1071 10.1916 20.1222L10.887 20.2059C10.9089 20.2086 10.9243 20.2286 10.9215 20.2504L10.8509 20.7845C10.8441 20.8363 10.813 20.8812 10.782 20.926C10.7492 20.9736 10.7164 21.0209 10.7127 21.0762L10.6428 21.6835C10.6502 21.7608 10.6757 21.7888 10.7542 21.8153L12.2897 22.0411C12.4893 22.0705 12.6916 22.0083 12.8404 21.8718L15.1049 22.2333C15.1584 22.2419 15.1818 22.3059 15.1464 22.347C14.8456 22.6964 14.4202 22.9142 13.9612 22.9537L12.8433 23.05C11.9501 23.1269 11.0508 23.092 10.1662 22.946L8.04024 22.5952C7.75493 22.5481 7.554 22.2889 7.57928 22.0003L7.59006 21.8768C7.60444 21.7127 7.47342 21.5724 7.30894 21.5758L5.8125 21.6068L5.89813 21.5552C6.37367 21.2689 6.91367 21.1075 7.46809 21.0859C7.81426 21.0723 8.15811 21.148 8.46672 21.3056L8.51779 21.3317C8.7717 21.4301 9.05194 21.2707 9.09765 21.0019L9.47416 18.7872C9.50272 18.6194 9.59349 18.4977 9.72672 18.4389Z" fill="#232323"/>
<defs>
<linearGradient id="paint0_linear_240_1140" x1="11.1577" y1="7.77402" x2="9.04391" y2="29.3704" gradientUnits="userSpaceOnUse">
<stop stop-color="#FBB83E"/>
<stop offset="1" stop-color="#E7581A"/>
</linearGradient>
</defs>
</svg>
