<svg width="258" height="42" viewBox="0 0 258 42" fill="none" xmlns="http://www.w3.org/2000/svg">
<g filter="url(#filter0_d_193_18733)">
<path fill-rule="evenodd" clip-rule="evenodd" d="M15.926 19.3775L12.5674 18.6616C12.5666 18.7232 12.5602 18.7855 12.5469 18.8481L11.0225 26.0398C10.915 26.547 10.4174 26.8711 9.91165 26.7633L7.55158 26.2602L7.24972 27.6847L4.5204 27.103C4.36794 27.0705 4.20976 27.123 4.10701 27.2406C4.00384 27.3582 3.97278 27.5223 4.02473 27.6695L4.86094 30.0393C4.91106 30.1813 5.03107 30.2866 5.17751 30.3178L6.62607 30.6266L6.3885 31.7474C6.33903 31.9808 6.4876 32.2102 6.72029 32.2598L12.4941 33.4905C12.7267 33.5401 12.9556 33.3911 13.0051 33.1578L14.1678 27.6705L12.6242 27.3415C12.1183 27.2336 11.7951 26.7346 11.9026 26.2274L12.9995 21.0526C13.107 20.5453 13.6047 20.2213 14.1106 20.3291L15.6545 20.6582L15.926 19.3775ZM21.1763 31.8601C21.1398 32.0324 21.0011 32.1684 20.8224 32.1966L13.4725 33.364C13.4831 33.3313 13.4926 33.2977 13.4999 33.2632L14.2056 29.9327L20.8445 31.3478C21.0475 31.3911 21.1909 31.5736 21.1852 31.7816C21.185 31.8084 21.1817 31.8345 21.1763 31.8601ZM21.9178 28.3619C21.9121 28.3888 21.9037 28.4153 21.893 28.4416C21.8121 28.6318 21.6084 28.7378 21.4073 28.695L12.7294 26.8452C12.4966 26.7956 12.348 26.5663 12.3975 26.3329L13.4943 21.1581C13.5438 20.9247 13.7726 20.7757 14.0054 20.8253L16.1064 21.2732C16.3391 21.3228 16.4878 21.5523 16.4384 21.7856L15.9699 23.9957L21.7381 27.9148C21.8853 28.0148 21.9536 28.1929 21.9178 28.3619ZM7.64752 19.6377L7.58503 19.9325L7.89273 19.9981L8.32714 17.9486C8.3766 17.7153 8.60538 17.5664 8.83803 17.616L11.7204 18.2304C11.9529 18.2799 12.1015 18.5093 12.052 18.7426L10.5277 25.9343C10.4782 26.1677 10.2495 26.3167 10.0168 26.2671L4.9274 25.1822C4.75772 25.1461 4.62611 25.0109 4.59371 24.84C4.56198 24.6689 4.63476 24.4952 4.77968 24.3992L7.31595 22.7193L7.71362 20.8431L7.40591 20.7775L7.34334 21.0727C7.29388 21.3061 7.06519 21.4551 6.8325 21.4055C6.59974 21.3559 6.45125 21.1265 6.50071 20.8931L6.80489 19.4581C6.85434 19.2248 7.08304 19.0757 7.3158 19.1253C7.54849 19.1749 7.69701 19.4042 7.64752 19.6377ZM19.5558 2.25232L19.2366 3.75848L15.5598 2.97476C15.4294 2.94696 15.3015 3.0305 15.2738 3.16128C15.2461 3.29169 15.3291 3.42024 15.4595 3.44804L19.1363 4.23176L18.9447 5.13539L16.3122 4.57425C16.1819 4.54648 16.0539 4.62969 16.0262 4.76048C15.9985 4.89115 16.0816 5.01946 16.2119 5.04724L18.8445 5.60838L18.6529 6.51219L16.0204 5.95106C15.89 5.92328 15.762 6.00687 15.7343 6.13758C15.7067 6.26806 15.7897 6.39657 15.92 6.42434L18.5526 6.98548L18.361 7.88937L15.7284 7.32823C15.5981 7.30046 15.4702 7.38367 15.4425 7.51446C15.4148 7.64516 15.4979 7.77344 15.6282 7.80122L18.2607 8.36235L18.0692 9.26598L14.3924 8.48226C14.262 8.45446 14.1341 8.538 14.1064 8.66879C14.0787 8.79927 14.1617 8.92775 14.2921 8.95555L17.9689 9.73927L17.7773 10.6431L15.1448 10.0819C15.0145 10.0542 14.8865 10.1375 14.8588 10.2682C14.8311 10.399 14.9142 10.5272 15.0445 10.5549L17.6771 11.1161L17.4855 12.0197L14.853 11.4586C14.7227 11.4308 14.5947 11.5144 14.567 11.6451C14.5393 11.7756 14.6224 11.9041 14.7527 11.9318L17.3852 12.493L17.1936 13.3969L14.5611 12.8357C14.4308 12.808 14.3028 12.8912 14.2751 13.022C14.2474 13.1527 14.3305 13.281 14.4608 13.3088L17.0934 13.8699L16.9018 14.7738L13.225 13.9901C13.0946 13.9623 12.9667 14.0455 12.939 14.1763C12.9113 14.307 12.9943 14.4353 13.1247 14.4631L16.8015 15.2468L16.61 16.1504L13.9774 15.5893C13.8471 15.5615 13.7192 15.6447 13.6915 15.7755C13.6638 15.9062 13.7469 16.0345 13.8772 16.0622L16.5097 16.6234L16.3181 17.5275L13.6855 16.9664C13.5552 16.9386 13.4273 17.0219 13.3996 17.1526C13.3719 17.2832 13.455 17.4116 13.5853 17.4394L16.2178 18.0005L16.0262 18.9044L12.4112 18.1338C12.2803 17.936 12.0752 17.7873 11.8256 17.7341L9.46542 17.231L12.9392 0.842279C12.9886 0.609052 13.2174 0.459922 13.4501 0.50952L19.224 1.74023C19.4566 1.78962 19.6053 2.0189 19.5558 2.25232Z" fill="#CE5905"/>
<path d="M28.1597 32.6765C27.9036 32.6765 27.694 32.5948 27.531 32.4313C27.3912 32.2445 27.3447 32.0226 27.3912 31.7657L32.2119 9.06616C32.2585 8.80927 32.3865 8.59909 32.5961 8.43561C32.829 8.24879 33.0735 8.15537 33.3297 8.15537H42.2374C43.7278 8.15537 45.1251 8.36555 46.4293 8.78591C47.7567 9.20628 48.8978 9.82514 49.8526 10.6425C50.8074 11.4365 51.4944 12.4291 51.9136 13.6201C52.3561 14.8111 52.4376 16.189 52.1581 17.7536C51.9951 18.7578 51.8321 19.6453 51.6691 20.4159C51.5061 21.1866 51.2965 22.0623 51.0403 23.0432C50.4814 25.2384 49.6896 27.0483 48.6649 28.4729C47.6402 29.8974 46.3012 30.96 44.6477 31.6606C43.0176 32.3379 40.9799 32.6765 38.5346 32.6765H28.1597ZM35.9846 26.7214H38.9538C39.7223 26.7214 40.3976 26.5929 40.9798 26.336C41.5853 26.0791 42.086 25.6821 42.4819 25.145C42.9011 24.5845 43.2155 23.8722 43.4251 23.0082C43.6114 22.3309 43.7628 21.7237 43.8792 21.1866C43.9957 20.6495 44.1005 20.1123 44.1936 19.5752C44.3101 19.0381 44.4265 18.4426 44.5429 17.7887C44.7525 16.5042 44.5779 15.5701 44.0189 14.9863C43.4833 14.4024 42.6333 14.1105 41.4689 14.1105H38.6743L35.9846 26.7214Z" fill="white"/>
<path d="M53.1908 32.6765C52.9347 32.6765 52.7367 32.5948 52.597 32.4313C52.4572 32.2445 52.4107 32.0226 52.4572 31.7657L55.9155 15.3716C55.9621 15.1147 56.0902 14.9045 56.2998 14.741C56.5327 14.5542 56.7772 14.4608 57.0334 14.4608H62.0985C62.3547 14.4608 62.541 14.5542 62.6574 14.741C62.7972 14.9045 62.8437 15.1147 62.7972 15.3716L62.5526 16.6677C63.1348 16.0138 63.8218 15.4884 64.6136 15.0913C65.4287 14.671 66.4767 14.4608 67.7575 14.4608H69.9233C70.1795 14.4608 70.3774 14.5542 70.5172 14.741C70.6569 14.9045 70.7035 15.1147 70.6569 15.3716L69.6788 19.8905C69.6322 20.1474 69.4925 20.3692 69.2596 20.5561C69.05 20.7429 68.8288 20.8363 68.5959 20.8363H64.6486C63.8102 20.8363 63.1348 21.0581 62.6225 21.5019C62.1102 21.9222 61.7608 22.5528 61.5745 23.3935L59.7581 31.7657C59.7115 32.0226 59.5834 32.2445 59.3738 32.4313C59.1642 32.5948 58.9313 32.6765 58.6752 32.6765H53.1908Z" fill="white"/>
<path d="M76.3615 33.0268C75.2902 33.0268 74.3238 32.8633 73.4621 32.5364C72.6237 32.2094 71.9251 31.7073 71.3662 31.0301C70.8306 30.3528 70.4696 29.5004 70.2833 28.4729C70.097 27.4453 70.1203 26.2426 70.3532 24.8648C70.4463 24.351 70.5278 23.9073 70.5977 23.5336C70.6908 23.16 70.7956 22.7279 70.9121 22.2375C71.2381 20.9297 71.6806 19.7737 72.2395 18.7695C72.7984 17.742 73.4621 16.8896 74.2306 16.2123C74.9991 15.5351 75.8608 15.0213 76.8156 14.671C77.7937 14.2973 78.8533 14.1105 79.9944 14.1105C81.3684 14.1105 82.4164 14.2973 83.1383 14.671C83.8835 15.0213 84.4658 15.4767 84.8849 16.0372L85.0596 15.3716C85.1062 15.1147 85.2343 14.9045 85.4438 14.741C85.6534 14.5542 85.8747 14.4608 86.1076 14.4608H91.033C91.2892 14.4608 91.4871 14.5542 91.6268 14.741C91.7666 14.9045 91.8131 15.1147 91.7666 15.3716L88.3083 31.7657C88.2617 32.0226 88.1336 32.2445 87.924 32.4313C87.7144 32.5948 87.4816 32.6765 87.2254 32.6765H82.3C82.0438 32.6765 81.8342 32.5948 81.6712 32.4313C81.5314 32.2445 81.4849 32.0226 81.5314 31.7657L81.741 30.7849C81.0424 31.4621 80.2855 32.0109 79.4704 32.4313C78.6554 32.8283 77.619 33.0268 76.3615 33.0268ZM79.5054 27.5621C80.1109 27.5621 80.6116 27.4336 81.0075 27.1768C81.4267 26.9199 81.7643 26.5812 82.0205 26.1609C82.2767 25.7405 82.4746 25.2734 82.6143 24.7597C82.7541 24.2459 82.8589 23.8022 82.9287 23.4285C83.0219 23.0549 83.1034 22.6228 83.1733 22.1324C83.2431 21.642 83.2315 21.2099 83.1383 20.8363C83.0685 20.4626 82.8822 20.159 82.5794 19.9255C82.2767 19.692 81.8458 19.5752 81.2869 19.5752C80.7047 19.5752 80.2157 19.7037 79.8198 19.9605C79.4239 20.1941 79.0978 20.5327 78.8417 20.9764C78.6088 21.3968 78.4108 21.8872 78.2478 22.4477C78.1547 22.798 78.0615 23.1716 77.9684 23.5686C77.8752 23.9657 77.8054 24.3393 77.7588 24.6896C77.6889 25.2501 77.6773 25.7522 77.7238 26.1959C77.7704 26.6163 77.9334 26.9549 78.2129 27.2118C78.4923 27.4453 78.9232 27.5621 79.5054 27.5621Z" fill="white"/>
<path d="M94.8259 32.6765C94.5697 32.6765 94.3717 32.5948 94.232 32.4313C94.0923 32.2445 94.0457 32.0226 94.0923 31.7657L96.6423 19.8204H94.0923C93.8361 19.8204 93.6382 19.7387 93.4984 19.5752C93.3587 19.3884 93.3121 19.1665 93.3587 18.9096L94.0923 15.3716C94.1389 15.1147 94.267 14.9045 94.4765 14.741C94.7094 14.5542 94.9539 14.4608 95.2101 14.4608H97.7602L97.9348 13.6201C98.3307 11.8452 98.9479 10.4674 99.7862 9.48652C100.625 8.48232 101.661 7.78172 102.895 7.38471C104.153 6.96435 105.573 6.75417 107.157 6.75417H110.755C111.011 6.75417 111.197 6.84758 111.314 7.03441C111.454 7.19788 111.5 7.40806 111.454 7.66495L110.685 11.203C110.638 11.4599 110.51 11.6817 110.301 11.8686C110.091 12.032 109.858 12.1138 109.602 12.1138H107.017C106.388 12.1138 105.888 12.2656 105.515 12.5692C105.166 12.8494 104.933 13.2581 104.816 13.7952L104.677 14.4608H108.764C109.02 14.4608 109.206 14.5542 109.323 14.741C109.462 14.9045 109.509 15.1147 109.462 15.3716L108.729 18.9096C108.682 19.1665 108.543 19.3884 108.31 19.5752C108.1 19.7387 107.879 19.8204 107.646 19.8204H103.524L100.974 31.7657C100.927 32.0226 100.799 32.2445 100.59 32.4313C100.38 32.5948 100.147 32.6765 99.891 32.6765H94.8259Z" fill="white"/>
<path d="M118.539 32.6765C116.885 32.6765 115.476 32.443 114.312 31.9759C113.171 31.5088 112.356 30.7498 111.866 29.6989C111.377 28.6247 111.319 27.2118 111.692 25.4603L112.914 19.8204H110.155C109.899 19.8204 109.701 19.7387 109.561 19.5752C109.421 19.3884 109.375 19.1665 109.421 18.9096L110.155 15.3716C110.201 15.1147 110.329 14.9045 110.539 14.741C110.772 14.5542 111.016 14.4608 111.273 14.4608H114.032L115.255 8.71586C115.301 8.45897 115.43 8.24879 115.639 8.08531C115.849 7.89848 116.082 7.80507 116.338 7.80507H121.403C121.659 7.80507 121.857 7.89848 121.997 8.08531C122.16 8.24879 122.218 8.45897 122.171 8.71586L120.949 14.4608H125.315C125.572 14.4608 125.758 14.5542 125.874 14.741C126.014 14.9045 126.061 15.1147 126.014 15.3716L125.315 18.9096C125.269 19.1665 125.129 19.3884 124.896 19.5752C124.687 19.7387 124.454 19.8204 124.198 19.8204H119.796L118.713 24.8648C118.62 25.3085 118.585 25.6938 118.608 26.0208C118.655 26.3477 118.783 26.6046 118.993 26.7914C119.202 26.9549 119.528 27.0366 119.971 27.0366H122.94C123.196 27.0366 123.394 27.13 123.534 27.3169C123.674 27.4803 123.72 27.6905 123.674 27.9474L122.835 31.7657C122.789 32.0226 122.661 32.2445 122.451 32.4313C122.241 32.5948 122.02 32.6765 121.787 32.6765H118.539Z" fill="white"/>
<path d="M126.611 32.6765C126.355 32.6765 126.145 32.5948 125.982 32.4313C125.843 32.2445 125.796 32.0226 125.843 31.7657L130.663 9.06616C130.71 8.80927 130.838 8.59909 131.048 8.43561C131.28 8.24879 131.525 8.15537 131.781 8.15537H136.427C136.846 8.15537 137.137 8.27214 137.3 8.50567C137.487 8.73921 137.591 8.90268 137.615 8.9961L141.178 18.7345L148.828 8.9961C148.921 8.90268 149.096 8.73921 149.352 8.50567C149.608 8.27214 149.946 8.15537 150.365 8.15537H155.011C155.267 8.15537 155.465 8.24879 155.605 8.43561C155.745 8.59909 155.791 8.80927 155.745 9.06616L150.924 31.7657C150.877 32.0226 150.749 32.2445 150.54 32.4313C150.33 32.5948 150.097 32.6765 149.841 32.6765H144.566C144.31 32.6765 144.112 32.5948 143.972 32.4313C143.833 32.2445 143.786 32.0226 143.833 31.7657L146.208 20.521L141.981 25.9507C141.818 26.1375 141.62 26.3244 141.387 26.5112C141.155 26.698 140.875 26.7914 140.549 26.7914H138.418C138.092 26.7914 137.848 26.698 137.685 26.5112C137.545 26.3244 137.44 26.1375 137.37 25.9507L135.344 20.3459L132.934 31.7657C132.887 32.0226 132.759 32.2445 132.55 32.4313C132.34 32.5948 132.107 32.6765 131.851 32.6765H126.611Z" fill="white"/>
<path d="M161.816 33.0268C160.744 33.0268 159.778 32.8633 158.916 32.5364C158.078 32.2094 157.379 31.7073 156.82 31.0301C156.285 30.3528 155.924 29.5004 155.737 28.4729C155.551 27.4453 155.574 26.2426 155.807 24.8648C155.9 24.351 155.982 23.9073 156.052 23.5336C156.145 23.16 156.25 22.7279 156.366 22.2375C156.692 20.9297 157.135 19.7737 157.694 18.7695C158.253 17.742 158.916 16.8896 159.685 16.2123C160.453 15.5351 161.315 15.0213 162.27 14.671C163.248 14.2973 164.307 14.1105 165.449 14.1105C166.823 14.1105 167.871 14.2973 168.592 14.671C169.338 15.0213 169.92 15.4767 170.339 16.0372L170.514 15.3716C170.56 15.1147 170.688 14.9045 170.898 14.741C171.108 14.5542 171.329 14.4608 171.562 14.4608H176.487C176.743 14.4608 176.941 14.5542 177.081 14.741C177.221 14.9045 177.267 15.1147 177.221 15.3716L173.762 31.7657C173.716 32.0226 173.588 32.2445 173.378 32.4313C173.169 32.5948 172.936 32.6765 172.68 32.6765H167.754C167.498 32.6765 167.288 32.5948 167.125 32.4313C166.986 32.2445 166.939 32.0226 166.986 31.7657L167.195 30.7849C166.497 31.4621 165.74 32.0109 164.925 32.4313C164.11 32.8283 163.073 33.0268 161.816 33.0268ZM164.96 27.5621C165.565 27.5621 166.066 27.4336 166.462 27.1768C166.881 26.9199 167.218 26.5812 167.475 26.1609C167.731 25.7405 167.929 25.2734 168.068 24.7597C168.208 24.2459 168.313 23.8022 168.383 23.4285C168.476 23.0549 168.558 22.6228 168.627 22.1324C168.697 21.642 168.686 21.2099 168.592 20.8363C168.523 20.4626 168.336 20.159 168.034 19.9255C167.731 19.692 167.3 19.5752 166.741 19.5752C166.159 19.5752 165.67 19.7037 165.274 19.9605C164.878 20.1941 164.552 20.5327 164.296 20.9764C164.063 21.3968 163.865 21.8872 163.702 22.4477C163.609 22.798 163.516 23.1716 163.423 23.5686C163.329 23.9657 163.26 24.3393 163.213 24.6896C163.143 25.2501 163.131 25.7522 163.178 26.1959C163.225 26.6163 163.388 26.9549 163.667 27.2118C163.947 27.4453 164.377 27.5621 164.96 27.5621Z" fill="white"/>
<path d="M185.59 33.0268C184.006 33.0268 182.69 32.8633 181.642 32.5364C180.594 32.1861 179.768 31.754 179.162 31.2403C178.58 30.7265 178.172 30.201 177.94 29.6639C177.73 29.1034 177.66 28.613 177.73 28.1926C177.777 27.9357 177.905 27.7256 178.114 27.5621C178.324 27.3753 178.533 27.2818 178.743 27.2818H183.773C183.82 27.2818 183.855 27.2935 183.878 27.3169C183.925 27.3169 183.971 27.3402 184.018 27.3869C184.297 27.4803 184.553 27.6321 184.786 27.8423C185.019 28.0525 185.287 28.2393 185.59 28.4028C185.892 28.5663 186.265 28.648 186.708 28.648C187.127 28.648 187.511 28.5663 187.86 28.4028C188.21 28.216 188.419 27.9591 188.489 27.6321C188.559 27.3519 188.524 27.1067 188.384 26.8965C188.268 26.6863 187.942 26.4878 187.406 26.301C186.871 26.0908 186.021 25.869 184.856 25.6354C183.762 25.4019 182.795 25.0633 181.957 24.6196C181.118 24.1525 180.501 23.5336 180.105 22.763C179.709 21.9923 179.64 21.0465 179.896 19.9255C180.082 18.968 180.583 18.0456 181.398 17.1581C182.213 16.2707 183.307 15.5467 184.681 14.9863C186.055 14.4024 187.651 14.1105 189.467 14.1105C190.841 14.1105 192.017 14.274 192.995 14.6009C193.997 14.9279 194.812 15.3366 195.441 15.827C196.069 16.3174 196.512 16.8429 196.768 17.4033C197.047 17.9638 197.141 18.4659 197.047 18.9096C197.024 19.1665 196.919 19.3884 196.733 19.5752C196.547 19.7387 196.349 19.8204 196.139 19.8204H191.528C191.458 19.8204 191.388 19.8204 191.319 19.8204C191.249 19.7971 191.191 19.762 191.144 19.7153C190.841 19.6453 190.573 19.5168 190.34 19.33C190.108 19.1198 189.851 18.933 189.572 18.7695C189.316 18.5827 188.955 18.4893 188.489 18.4893C188.093 18.4893 187.756 18.5827 187.476 18.7695C187.197 18.9563 187.022 19.2016 186.952 19.5051C186.882 19.762 186.906 19.9956 187.022 20.2057C187.162 20.4159 187.499 20.6144 188.035 20.8013C188.571 20.9881 189.444 21.1866 190.655 21.3968C192.238 21.6537 193.449 22.0857 194.288 22.6929C195.149 23.2767 195.708 23.9657 195.965 24.7597C196.221 25.5537 196.267 26.3477 196.104 27.1417C195.848 28.3327 195.266 29.372 194.358 30.2594C193.473 31.1468 192.285 31.8358 190.795 32.3262C189.304 32.7933 187.569 33.0268 185.59 33.0268Z" fill="white"/>
<path d="M207.575 32.6765C205.921 32.6765 204.512 32.443 203.348 31.9759C202.207 31.5088 201.392 30.7498 200.903 29.6989C200.414 28.6247 200.355 27.2118 200.728 25.4603L201.951 19.8204H199.191C198.935 19.8204 198.737 19.7387 198.597 19.5752C198.457 19.3884 198.411 19.1665 198.457 18.9096L199.191 15.3716C199.237 15.1147 199.366 14.9045 199.575 14.741C199.808 14.5542 200.053 14.4608 200.309 14.4608H203.068L204.291 8.71586C204.338 8.45897 204.466 8.24879 204.675 8.08531C204.885 7.89848 205.118 7.80507 205.374 7.80507H210.439C210.695 7.80507 210.893 7.89848 211.033 8.08531C211.196 8.24879 211.254 8.45897 211.208 8.71586L209.985 14.4608H214.351C214.608 14.4608 214.794 14.5542 214.91 14.741C215.05 14.9045 215.097 15.1147 215.05 15.3716L214.351 18.9096C214.305 19.1665 214.165 19.3884 213.932 19.5752C213.723 19.7387 213.49 19.8204 213.234 19.8204H208.832L207.749 24.8648C207.656 25.3085 207.621 25.6938 207.644 26.0208C207.691 26.3477 207.819 26.6046 208.029 26.7914C208.238 26.9549 208.564 27.0366 209.007 27.0366H211.976C212.232 27.0366 212.43 27.13 212.57 27.3169C212.71 27.4803 212.756 27.6905 212.71 27.9474L211.871 31.7657C211.825 32.0226 211.697 32.2445 211.487 32.4313C211.277 32.5948 211.056 32.6765 210.823 32.6765H207.575Z" fill="white"/>
<path d="M223.682 33.0268C221.749 33.0268 220.13 32.6998 218.826 32.0459C217.545 31.3687 216.66 30.3528 216.171 28.9983C215.682 27.6438 215.647 25.9273 216.066 23.8489C216.09 23.7555 216.113 23.6387 216.136 23.4986C216.16 23.3351 216.183 23.2183 216.206 23.1483C216.672 21.2099 217.44 19.5752 218.512 18.2441C219.583 16.8896 220.899 15.862 222.459 15.1614C224.019 14.4608 225.754 14.1105 227.664 14.1105C229.806 14.1105 231.483 14.5425 232.694 15.4066C233.928 16.2473 234.732 17.38 235.104 18.8045C235.5 20.2057 235.524 21.7821 235.174 23.5336L235 24.5145C234.953 24.748 234.813 24.9582 234.58 25.145C234.371 25.3318 234.138 25.4252 233.882 25.4252H223.088C223.088 25.4252 223.076 25.4486 223.053 25.4953C223.053 25.542 223.053 25.5887 223.053 25.6354C222.936 26.1959 222.901 26.698 222.948 27.1417C223.018 27.5621 223.181 27.9007 223.437 28.1576C223.717 28.3911 224.089 28.5079 224.555 28.5079C224.858 28.5079 225.125 28.4612 225.358 28.3678C225.591 28.2744 225.801 28.1576 225.987 28.0175C226.173 27.854 226.348 27.7022 226.511 27.5621C226.767 27.3519 226.965 27.2235 227.105 27.1768C227.268 27.1067 227.478 27.0717 227.734 27.0717H233.218C233.451 27.0717 233.626 27.1417 233.742 27.2818C233.859 27.422 233.882 27.5971 233.812 27.8073C233.695 28.2277 233.393 28.7414 232.904 29.3486C232.415 29.9325 231.728 30.5046 230.843 31.0651C229.981 31.6256 228.945 32.0927 227.734 32.4663C226.523 32.84 225.172 33.0268 223.682 33.0268ZM223.926 21.5019H228.293V21.4318C228.432 20.8013 228.456 20.2641 228.363 19.8204C228.293 19.3767 228.118 19.0498 227.839 18.8396C227.559 18.606 227.186 18.4893 226.721 18.4893C226.255 18.4893 225.836 18.606 225.463 18.8396C225.091 19.0498 224.776 19.3767 224.52 19.8204C224.287 20.2641 224.089 20.8013 223.926 21.4318V21.5019Z" fill="white"/>
<path d="M236.516 32.6765C236.26 32.6765 236.062 32.5948 235.923 32.4313C235.783 32.2445 235.736 32.0226 235.783 31.7657L239.241 15.3716C239.288 15.1147 239.416 14.9045 239.625 14.741C239.858 14.5542 240.103 14.4608 240.359 14.4608H245.424C245.68 14.4608 245.867 14.5542 245.983 14.741C246.123 14.9045 246.169 15.1147 246.123 15.3716L245.878 16.6677C246.46 16.0138 247.147 15.4884 247.939 15.0913C248.754 14.671 249.802 14.4608 251.083 14.4608H253.249C253.505 14.4608 253.703 14.5542 253.843 14.741C253.983 14.9045 254.029 15.1147 253.983 15.3716L253.004 19.8905C252.958 20.1474 252.818 20.3692 252.585 20.5561C252.376 20.7429 252.154 20.8363 251.922 20.8363H247.974C247.136 20.8363 246.46 21.0581 245.948 21.5019C245.436 21.9222 245.086 22.5528 244.9 23.3935L243.084 31.7657C243.037 32.0226 242.909 32.2445 242.699 32.4313C242.49 32.5948 242.257 32.6765 242.001 32.6765H236.516Z" fill="white"/>
</g>
<defs>
<filter id="filter0_d_193_18733" x="0" y="0.5" width="258" height="41" filterUnits="userSpaceOnUse" color-interpolation-filters="sRGB">
<feFlood flood-opacity="0" result="BackgroundImageFix"/>
<feColorMatrix in="SourceAlpha" type="matrix" values="0 0 0 0 0 0 0 0 0 0 0 0 0 0 0 0 0 0 127 0" result="hardAlpha"/>
<feOffset dy="4"/>
<feGaussianBlur stdDeviation="2"/>
<feComposite in2="hardAlpha" operator="out"/>
<feColorMatrix type="matrix" values="0 0 0 0 0 0 0 0 0 0 0 0 0 0 0 0 0 0 0.25 0"/>
<feBlend mode="normal" in2="BackgroundImageFix" result="effect1_dropShadow_193_18733"/>
<feBlend mode="normal" in="SourceGraphic" in2="effect1_dropShadow_193_18733" result="shape"/>
</filter>
</defs>
</svg>
