<svg width="250" height="34" viewBox="0 0 250 34" fill="none" xmlns="http://www.w3.org/2000/svg">
<path fill-rule="evenodd" clip-rule="evenodd" d="M11.926 19.3775L8.56742 18.6616C8.56664 18.7232 8.56017 18.7855 8.54691 18.8481L7.02254 26.0398C6.91502 26.547 6.41745 26.8711 5.91165 26.7633L3.55158 26.2602L3.24972 27.6847L0.520402 27.103C0.367935 27.0705 0.209763 27.123 0.107014 27.2406C0.00383679 27.3582 -0.0272188 27.5223 0.0247254 27.6695L0.860937 30.0393C0.911061 30.1813 1.03107 30.2866 1.17751 30.3178L2.62607 30.6266L2.3885 31.7474C2.33903 31.9808 2.4876 32.2102 2.72029 32.2598L8.49415 33.4905C8.72672 33.5401 8.95559 33.3911 9.00506 33.1578L10.1678 27.6705L8.62419 27.3415C8.11831 27.2336 7.79512 26.7346 7.90264 26.2274L8.9995 21.0526C9.10703 20.5453 9.60467 20.2213 10.1106 20.3291L11.6545 20.6582L11.926 19.3775ZM17.1763 31.8601C17.1398 32.0324 17.0011 32.1684 16.8224 32.1966L9.47247 33.364C9.48308 33.3313 9.49263 33.2977 9.49993 33.2632L10.2056 29.9327L16.8445 31.3478C17.0475 31.3911 17.1909 31.5736 17.1852 31.7816C17.185 31.8084 17.1817 31.8345 17.1763 31.8601ZM17.9178 28.3619C17.9121 28.3888 17.9037 28.4153 17.893 28.4416C17.8121 28.6318 17.6084 28.7378 17.4073 28.695L8.72937 26.8452C8.49657 26.7956 8.348 26.5663 8.39747 26.3329L9.49433 21.1581C9.54379 20.9247 9.77256 20.7757 10.0054 20.8253L12.1064 21.2732C12.3391 21.3228 12.4878 21.5523 12.4384 21.7856L11.9699 23.9957L17.7381 27.9148C17.8853 28.0148 17.9536 28.1929 17.9178 28.3619ZM3.64752 19.6377L3.58503 19.9325L3.89273 19.9981L4.32714 17.9486C4.3766 17.7153 4.60538 17.5664 4.83803 17.616L7.72041 18.2304C7.95288 18.2799 8.10149 18.5093 8.05204 18.7426L6.52767 25.9343C6.4782 26.1677 6.24951 26.3167 6.01683 26.2671L0.927404 25.1822C0.757718 25.1461 0.626112 25.0109 0.593705 24.84C0.561977 24.6689 0.634761 24.4952 0.779682 24.3992L3.31595 22.7193L3.71362 20.8431L3.40591 20.7775L3.34334 21.0727C3.29388 21.3061 3.06519 21.4551 2.8325 21.4055C2.59974 21.3559 2.45125 21.1265 2.50071 20.8931L2.80489 19.4581C2.85434 19.2248 3.08304 19.0757 3.3158 19.1253C3.54849 19.1749 3.69701 19.4042 3.64752 19.6377ZM15.5558 2.25232L15.2366 3.75848L11.5598 2.97476C11.4294 2.94696 11.3015 3.0305 11.2738 3.16128C11.2461 3.29169 11.3291 3.42024 11.4595 3.44804L15.1363 4.23176L14.9447 5.13539L12.3122 4.57425C12.1819 4.54648 12.0539 4.62969 12.0262 4.76048C11.9985 4.89115 12.0816 5.01946 12.2119 5.04724L14.8445 5.60838L14.6529 6.51219L12.0204 5.95106C11.89 5.92328 11.762 6.00687 11.7343 6.13758C11.7067 6.26806 11.7897 6.39657 11.92 6.42434L14.5526 6.98548L14.361 7.88937L11.7284 7.32823C11.5981 7.30046 11.4702 7.38367 11.4425 7.51446C11.4148 7.64516 11.4979 7.77344 11.6282 7.80122L14.2607 8.36235L14.0692 9.26598L10.3924 8.48226C10.262 8.45446 10.1341 8.538 10.1064 8.66879C10.0787 8.79927 10.1617 8.92775 10.2921 8.95555L13.9689 9.73927L13.7773 10.6431L11.1448 10.0819C11.0145 10.0542 10.8865 10.1375 10.8588 10.2682C10.8311 10.399 10.9142 10.5272 11.0445 10.5549L13.6771 11.1161L13.4855 12.0197L10.853 11.4586C10.7227 11.4308 10.5947 11.5144 10.567 11.6451C10.5393 11.7756 10.6224 11.9041 10.7527 11.9318L13.3852 12.493L13.1936 13.3969L10.5611 12.8357C10.4308 12.808 10.3028 12.8912 10.2751 13.022C10.2474 13.1527 10.3305 13.281 10.4608 13.3088L13.0934 13.8699L12.9018 14.7738L9.22497 13.9901C9.09455 13.9623 8.96673 14.0455 8.93901 14.1763C8.9113 14.307 8.9943 14.4353 9.12471 14.4631L12.8015 15.2468L12.61 16.1504L9.97742 15.5893C9.84712 15.5615 9.71919 15.6447 9.69147 15.7755C9.66376 15.9062 9.74686 16.0345 9.87717 16.0622L12.5097 16.6234L12.3181 17.5275L9.68553 16.9664C9.55523 16.9386 9.42728 17.0219 9.39957 17.1526C9.37189 17.2832 9.45497 17.4116 9.58528 17.4394L12.2178 18.0005L12.0262 18.9044L8.41124 18.1338C8.28028 17.936 8.07525 17.7873 7.8256 17.7341L5.46542 17.231L8.93921 0.842279C8.98865 0.609052 9.21745 0.459922 9.45013 0.50952L15.224 1.74023C15.4566 1.78962 15.6053 2.0189 15.5558 2.25232Z" fill="#CE5905"/>
<path d="M24.1597 32.6765C23.9036 32.6765 23.694 32.5948 23.531 32.4313C23.3912 32.2445 23.3447 32.0226 23.3912 31.7657L28.2119 9.06616C28.2585 8.80927 28.3865 8.59909 28.5961 8.43561C28.829 8.24879 29.0735 8.15537 29.3297 8.15537H38.2374C39.7278 8.15537 41.1251 8.36555 42.4293 8.78591C43.7567 9.20628 44.8978 9.82514 45.8526 10.6425C46.8074 11.4365 47.4944 12.4291 47.9136 13.6201C48.3561 14.8111 48.4376 16.189 48.1581 17.7536C47.9951 18.7578 47.8321 19.6453 47.6691 20.4159C47.5061 21.1866 47.2965 22.0623 47.0403 23.0432C46.4814 25.2384 45.6896 27.0483 44.6649 28.4729C43.6402 29.8974 42.3012 30.96 40.6477 31.6606C39.0176 32.3379 36.9799 32.6765 34.5346 32.6765H24.1597ZM31.9846 26.7214H34.9538C35.7223 26.7214 36.3976 26.5929 36.9798 26.336C37.5853 26.0791 38.086 25.6821 38.4819 25.145C38.9011 24.5845 39.2155 23.8722 39.4251 23.0082C39.6114 22.3309 39.7628 21.7237 39.8792 21.1866C39.9957 20.6495 40.1005 20.1123 40.1936 19.5752C40.3101 19.0381 40.4265 18.4426 40.5429 17.7887C40.7525 16.5042 40.5779 15.5701 40.0189 14.9863C39.4833 14.4024 38.6333 14.1105 37.4689 14.1105H34.6743L31.9846 26.7214Z" fill="#232323"/>
<path d="M49.1908 32.6765C48.9347 32.6765 48.7367 32.5948 48.597 32.4313C48.4572 32.2445 48.4107 32.0226 48.4572 31.7657L51.9155 15.3716C51.9621 15.1147 52.0902 14.9045 52.2998 14.741C52.5327 14.5542 52.7772 14.4608 53.0334 14.4608H58.0985C58.3547 14.4608 58.541 14.5542 58.6574 14.741C58.7972 14.9045 58.8437 15.1147 58.7972 15.3716L58.5526 16.6677C59.1348 16.0138 59.8218 15.4884 60.6136 15.0913C61.4287 14.671 62.4767 14.4608 63.7575 14.4608H65.9233C66.1795 14.4608 66.3774 14.5542 66.5172 14.741C66.6569 14.9045 66.7035 15.1147 66.6569 15.3716L65.6788 19.8905C65.6322 20.1474 65.4925 20.3692 65.2596 20.5561C65.05 20.7429 64.8288 20.8363 64.5959 20.8363H60.6486C59.8102 20.8363 59.1348 21.0581 58.6225 21.5019C58.1102 21.9222 57.7608 22.5528 57.5745 23.3935L55.7581 31.7657C55.7115 32.0226 55.5834 32.2445 55.3738 32.4313C55.1642 32.5948 54.9313 32.6765 54.6752 32.6765H49.1908Z" fill="#232323"/>
<path d="M72.3615 33.0268C71.2902 33.0268 70.3238 32.8633 69.4621 32.5364C68.6237 32.2094 67.9251 31.7073 67.3662 31.0301C66.8306 30.3528 66.4696 29.5004 66.2833 28.4729C66.097 27.4453 66.1203 26.2426 66.3532 24.8648C66.4463 24.351 66.5278 23.9073 66.5977 23.5336C66.6908 23.16 66.7956 22.7279 66.9121 22.2375C67.2381 20.9297 67.6806 19.7737 68.2395 18.7695C68.7984 17.742 69.4621 16.8896 70.2306 16.2123C70.9991 15.5351 71.8608 15.0213 72.8156 14.671C73.7937 14.2973 74.8533 14.1105 75.9944 14.1105C77.3684 14.1105 78.4164 14.2973 79.1383 14.671C79.8835 15.0213 80.4658 15.4767 80.8849 16.0372L81.0596 15.3716C81.1062 15.1147 81.2343 14.9045 81.4438 14.741C81.6534 14.5542 81.8747 14.4608 82.1076 14.4608H87.033C87.2892 14.4608 87.4871 14.5542 87.6268 14.741C87.7666 14.9045 87.8131 15.1147 87.7666 15.3716L84.3083 31.7657C84.2617 32.0226 84.1336 32.2445 83.924 32.4313C83.7144 32.5948 83.4816 32.6765 83.2254 32.6765H78.3C78.0438 32.6765 77.8342 32.5948 77.6712 32.4313C77.5314 32.2445 77.4849 32.0226 77.5314 31.7657L77.741 30.7849C77.0424 31.4621 76.2855 32.0109 75.4704 32.4313C74.6554 32.8283 73.619 33.0268 72.3615 33.0268ZM75.5054 27.5621C76.1109 27.5621 76.6116 27.4336 77.0075 27.1768C77.4267 26.9199 77.7643 26.5812 78.0205 26.1609C78.2767 25.7405 78.4746 25.2734 78.6143 24.7597C78.7541 24.2459 78.8589 23.8022 78.9287 23.4285C79.0219 23.0549 79.1034 22.6228 79.1733 22.1324C79.2431 21.642 79.2315 21.2099 79.1383 20.8363C79.0685 20.4626 78.8822 20.159 78.5794 19.9255C78.2767 19.692 77.8458 19.5752 77.2869 19.5752C76.7047 19.5752 76.2157 19.7037 75.8198 19.9605C75.4239 20.1941 75.0978 20.5327 74.8417 20.9764C74.6088 21.3968 74.4108 21.8872 74.2478 22.4477C74.1547 22.798 74.0615 23.1716 73.9684 23.5686C73.8752 23.9657 73.8054 24.3393 73.7588 24.6896C73.6889 25.2501 73.6773 25.7522 73.7238 26.1959C73.7704 26.6163 73.9334 26.9549 74.2129 27.2118C74.4923 27.4453 74.9232 27.5621 75.5054 27.5621Z" fill="#232323"/>
<path d="M90.8259 32.6765C90.5697 32.6765 90.3717 32.5948 90.232 32.4313C90.0923 32.2445 90.0457 32.0226 90.0923 31.7657L92.6423 19.8204H90.0923C89.8361 19.8204 89.6382 19.7387 89.4984 19.5752C89.3587 19.3884 89.3121 19.1665 89.3587 18.9096L90.0923 15.3716C90.1389 15.1147 90.267 14.9045 90.4765 14.741C90.7094 14.5542 90.9539 14.4608 91.2101 14.4608H93.7602L93.9348 13.6201C94.3307 11.8452 94.9479 10.4674 95.7862 9.48652C96.6246 8.48232 97.6609 7.78172 98.8952 7.38471C100.153 6.96435 101.573 6.75417 103.157 6.75417H106.755C107.011 6.75417 107.197 6.84758 107.314 7.03441C107.454 7.19788 107.5 7.40806 107.454 7.66495L106.685 11.203C106.638 11.4599 106.51 11.6817 106.301 11.8686C106.091 12.032 105.858 12.1138 105.602 12.1138H103.017C102.388 12.1138 101.888 12.2656 101.515 12.5692C101.166 12.8494 100.933 13.2581 100.816 13.7952L100.677 14.4608H104.764C105.02 14.4608 105.206 14.5542 105.323 14.741C105.462 14.9045 105.509 15.1147 105.462 15.3716L104.729 18.9096C104.682 19.1665 104.543 19.3884 104.31 19.5752C104.1 19.7387 103.879 19.8204 103.646 19.8204H99.524L96.9739 31.7657C96.9273 32.0226 96.7993 32.2445 96.5897 32.4313C96.3801 32.5948 96.1472 32.6765 95.891 32.6765H90.8259Z" fill="#232323"/>
<path d="M114.539 32.6765C112.885 32.6765 111.476 32.443 110.312 31.9759C109.171 31.5088 108.356 30.7498 107.866 29.6989C107.377 28.6247 107.319 27.2118 107.692 25.4603L108.914 19.8204H106.155C105.899 19.8204 105.701 19.7387 105.561 19.5752C105.421 19.3884 105.375 19.1665 105.421 18.9096L106.155 15.3716C106.201 15.1147 106.329 14.9045 106.539 14.741C106.772 14.5542 107.016 14.4608 107.273 14.4608H110.032L111.255 8.71586C111.301 8.45897 111.43 8.24879 111.639 8.08531C111.849 7.89848 112.082 7.80507 112.338 7.80507H117.403C117.659 7.80507 117.857 7.89848 117.997 8.08531C118.16 8.24879 118.218 8.45897 118.171 8.71586L116.949 14.4608H121.315C121.572 14.4608 121.758 14.5542 121.874 14.741C122.014 14.9045 122.061 15.1147 122.014 15.3716L121.315 18.9096C121.269 19.1665 121.129 19.3884 120.896 19.5752C120.687 19.7387 120.454 19.8204 120.198 19.8204H115.796L114.713 24.8648C114.62 25.3085 114.585 25.6938 114.608 26.0208C114.655 26.3477 114.783 26.6046 114.993 26.7914C115.202 26.9549 115.528 27.0366 115.971 27.0366H118.94C119.196 27.0366 119.394 27.13 119.534 27.3169C119.674 27.4803 119.72 27.6905 119.674 27.9474L118.835 31.7657C118.789 32.0226 118.661 32.2445 118.451 32.4313C118.241 32.5948 118.02 32.6765 117.787 32.6765H114.539Z" fill="#232323"/>
<path d="M122.611 32.6765C122.355 32.6765 122.145 32.5948 121.982 32.4313C121.843 32.2445 121.796 32.0226 121.843 31.7657L126.663 9.06616C126.71 8.80927 126.838 8.59909 127.048 8.43561C127.28 8.24879 127.525 8.15537 127.781 8.15537H132.427C132.846 8.15537 133.137 8.27214 133.3 8.50567C133.487 8.73921 133.591 8.90268 133.615 8.9961L137.178 18.7345L144.828 8.9961C144.921 8.90268 145.096 8.73921 145.352 8.50567C145.608 8.27214 145.946 8.15537 146.365 8.15537H151.011C151.267 8.15537 151.465 8.24879 151.605 8.43561C151.745 8.59909 151.791 8.80927 151.745 9.06616L146.924 31.7657C146.877 32.0226 146.749 32.2445 146.54 32.4313C146.33 32.5948 146.097 32.6765 145.841 32.6765H140.566C140.31 32.6765 140.112 32.5948 139.972 32.4313C139.833 32.2445 139.786 32.0226 139.833 31.7657L142.208 20.521L137.981 25.9507C137.818 26.1375 137.62 26.3244 137.387 26.5112C137.155 26.698 136.875 26.7914 136.549 26.7914H134.418C134.092 26.7914 133.848 26.698 133.685 26.5112C133.545 26.3244 133.44 26.1375 133.37 25.9507L131.344 20.3459L128.934 31.7657C128.887 32.0226 128.759 32.2445 128.55 32.4313C128.34 32.5948 128.107 32.6765 127.851 32.6765H122.611Z" fill="#232323"/>
<path d="M157.816 33.0268C156.744 33.0268 155.778 32.8633 154.916 32.5364C154.078 32.2094 153.379 31.7073 152.82 31.0301C152.285 30.3528 151.924 29.5004 151.737 28.4729C151.551 27.4453 151.574 26.2426 151.807 24.8648C151.9 24.351 151.982 23.9073 152.052 23.5336C152.145 23.16 152.25 22.7279 152.366 22.2375C152.692 20.9297 153.135 19.7737 153.694 18.7695C154.253 17.742 154.916 16.8896 155.685 16.2123C156.453 15.5351 157.315 15.0213 158.27 14.671C159.248 14.2973 160.307 14.1105 161.449 14.1105C162.823 14.1105 163.871 14.2973 164.592 14.671C165.338 15.0213 165.92 15.4767 166.339 16.0372L166.514 15.3716C166.56 15.1147 166.688 14.9045 166.898 14.741C167.108 14.5542 167.329 14.4608 167.562 14.4608H172.487C172.743 14.4608 172.941 14.5542 173.081 14.741C173.221 14.9045 173.267 15.1147 173.221 15.3716L169.762 31.7657C169.716 32.0226 169.588 32.2445 169.378 32.4313C169.169 32.5948 168.936 32.6765 168.68 32.6765H163.754C163.498 32.6765 163.288 32.5948 163.125 32.4313C162.986 32.2445 162.939 32.0226 162.986 31.7657L163.195 30.7849C162.497 31.4621 161.74 32.0109 160.925 32.4313C160.11 32.8283 159.073 33.0268 157.816 33.0268ZM160.96 27.5621C161.565 27.5621 162.066 27.4336 162.462 27.1768C162.881 26.9199 163.218 26.5812 163.475 26.1609C163.731 25.7405 163.929 25.2734 164.068 24.7597C164.208 24.2459 164.313 23.8022 164.383 23.4285C164.476 23.0549 164.558 22.6228 164.627 22.1324C164.697 21.642 164.686 21.2099 164.592 20.8363C164.523 20.4626 164.336 20.159 164.034 19.9255C163.731 19.692 163.3 19.5752 162.741 19.5752C162.159 19.5752 161.67 19.7037 161.274 19.9605C160.878 20.1941 160.552 20.5327 160.296 20.9764C160.063 21.3968 159.865 21.8872 159.702 22.4477C159.609 22.798 159.516 23.1716 159.423 23.5686C159.329 23.9657 159.26 24.3393 159.213 24.6896C159.143 25.2501 159.131 25.7522 159.178 26.1959C159.225 26.6163 159.388 26.9549 159.667 27.2118C159.947 27.4453 160.377 27.5621 160.96 27.5621Z" fill="#232323"/>
<path d="M181.59 33.0268C180.006 33.0268 178.69 32.8633 177.642 32.5364C176.594 32.1861 175.768 31.754 175.162 31.2403C174.58 30.7265 174.172 30.201 173.94 29.6639C173.73 29.1034 173.66 28.613 173.73 28.1926C173.777 27.9357 173.905 27.7256 174.114 27.5621C174.324 27.3753 174.533 27.2818 174.743 27.2818H179.773C179.82 27.2818 179.855 27.2935 179.878 27.3169C179.925 27.3169 179.971 27.3402 180.018 27.3869C180.297 27.4803 180.553 27.6321 180.786 27.8423C181.019 28.0525 181.287 28.2393 181.59 28.4028C181.892 28.5663 182.265 28.648 182.708 28.648C183.127 28.648 183.511 28.5663 183.86 28.4028C184.21 28.216 184.419 27.9591 184.489 27.6321C184.559 27.3519 184.524 27.1067 184.384 26.8965C184.268 26.6863 183.942 26.4878 183.406 26.301C182.871 26.0908 182.021 25.869 180.856 25.6354C179.762 25.4019 178.795 25.0633 177.957 24.6196C177.118 24.1525 176.501 23.5336 176.105 22.763C175.709 21.9923 175.64 21.0465 175.896 19.9255C176.082 18.968 176.583 18.0456 177.398 17.1581C178.213 16.2707 179.307 15.5467 180.681 14.9863C182.055 14.4024 183.651 14.1105 185.467 14.1105C186.841 14.1105 188.017 14.274 188.995 14.6009C189.997 14.9279 190.812 15.3366 191.441 15.827C192.069 16.3174 192.512 16.8429 192.768 17.4033C193.047 17.9638 193.141 18.4659 193.047 18.9096C193.024 19.1665 192.919 19.3884 192.733 19.5752C192.547 19.7387 192.349 19.8204 192.139 19.8204H187.528C187.458 19.8204 187.388 19.8204 187.319 19.8204C187.249 19.7971 187.191 19.762 187.144 19.7153C186.841 19.6453 186.573 19.5168 186.34 19.33C186.108 19.1198 185.851 18.933 185.572 18.7695C185.316 18.5827 184.955 18.4893 184.489 18.4893C184.093 18.4893 183.756 18.5827 183.476 18.7695C183.197 18.9563 183.022 19.2016 182.952 19.5051C182.882 19.762 182.906 19.9956 183.022 20.2057C183.162 20.4159 183.499 20.6144 184.035 20.8013C184.571 20.9881 185.444 21.1866 186.655 21.3968C188.238 21.6537 189.449 22.0857 190.288 22.6929C191.149 23.2767 191.708 23.9657 191.965 24.7597C192.221 25.5537 192.267 26.3477 192.104 27.1417C191.848 28.3327 191.266 29.372 190.358 30.2594C189.473 31.1468 188.285 31.8358 186.795 32.3262C185.304 32.7933 183.569 33.0268 181.59 33.0268Z" fill="#232323"/>
<path d="M203.575 32.6765C201.921 32.6765 200.512 32.443 199.348 31.9759C198.207 31.5088 197.392 30.7498 196.903 29.6989C196.414 28.6247 196.355 27.2118 196.728 25.4603L197.951 19.8204H195.191C194.935 19.8204 194.737 19.7387 194.597 19.5752C194.457 19.3884 194.411 19.1665 194.457 18.9096L195.191 15.3716C195.237 15.1147 195.366 14.9045 195.575 14.741C195.808 14.5542 196.053 14.4608 196.309 14.4608H199.068L200.291 8.71586C200.338 8.45897 200.466 8.24879 200.675 8.08531C200.885 7.89848 201.118 7.80507 201.374 7.80507H206.439C206.695 7.80507 206.893 7.89848 207.033 8.08531C207.196 8.24879 207.254 8.45897 207.208 8.71586L205.985 14.4608H210.351C210.608 14.4608 210.794 14.5542 210.91 14.741C211.05 14.9045 211.097 15.1147 211.05 15.3716L210.351 18.9096C210.305 19.1665 210.165 19.3884 209.932 19.5752C209.723 19.7387 209.49 19.8204 209.234 19.8204H204.832L203.749 24.8648C203.656 25.3085 203.621 25.6938 203.644 26.0208C203.691 26.3477 203.819 26.6046 204.029 26.7914C204.238 26.9549 204.564 27.0366 205.007 27.0366H207.976C208.232 27.0366 208.43 27.13 208.57 27.3169C208.71 27.4803 208.756 27.6905 208.71 27.9474L207.871 31.7657C207.825 32.0226 207.697 32.2445 207.487 32.4313C207.277 32.5948 207.056 32.6765 206.823 32.6765H203.575Z" fill="#232323"/>
<path d="M219.682 33.0268C217.749 33.0268 216.13 32.6998 214.826 32.0459C213.545 31.3687 212.66 30.3528 212.171 28.9983C211.682 27.6438 211.647 25.9273 212.066 23.8489C212.09 23.7555 212.113 23.6387 212.136 23.4986C212.16 23.3351 212.183 23.2183 212.206 23.1483C212.672 21.2099 213.44 19.5752 214.512 18.2441C215.583 16.8896 216.899 15.862 218.459 15.1614C220.019 14.4608 221.754 14.1105 223.664 14.1105C225.806 14.1105 227.483 14.5425 228.694 15.4066C229.928 16.2473 230.732 17.38 231.104 18.8045C231.5 20.2057 231.524 21.7821 231.174 23.5336L231 24.5145C230.953 24.748 230.813 24.9582 230.58 25.145C230.371 25.3318 230.138 25.4252 229.882 25.4252H219.088C219.088 25.4252 219.076 25.4486 219.053 25.4953C219.053 25.542 219.053 25.5887 219.053 25.6354C218.936 26.1959 218.901 26.698 218.948 27.1417C219.018 27.5621 219.181 27.9007 219.437 28.1576C219.717 28.3911 220.089 28.5079 220.555 28.5079C220.858 28.5079 221.125 28.4612 221.358 28.3678C221.591 28.2744 221.801 28.1576 221.987 28.0175C222.173 27.854 222.348 27.7022 222.511 27.5621C222.767 27.3519 222.965 27.2235 223.105 27.1768C223.268 27.1067 223.478 27.0717 223.734 27.0717H229.218C229.451 27.0717 229.626 27.1417 229.742 27.2818C229.859 27.422 229.882 27.5971 229.812 27.8073C229.695 28.2277 229.393 28.7414 228.904 29.3486C228.415 29.9325 227.728 30.5046 226.843 31.0651C225.981 31.6256 224.945 32.0927 223.734 32.4663C222.523 32.84 221.172 33.0268 219.682 33.0268ZM219.926 21.5019H224.293V21.4318C224.432 20.8013 224.456 20.2641 224.363 19.8204C224.293 19.3767 224.118 19.0498 223.839 18.8396C223.559 18.606 223.186 18.4893 222.721 18.4893C222.255 18.4893 221.836 18.606 221.463 18.8396C221.091 19.0498 220.776 19.3767 220.52 19.8204C220.287 20.2641 220.089 20.8013 219.926 21.4318V21.5019Z" fill="#232323"/>
<path d="M232.516 32.6765C232.26 32.6765 232.062 32.5948 231.923 32.4313C231.783 32.2445 231.736 32.0226 231.783 31.7657L235.241 15.3716C235.288 15.1147 235.416 14.9045 235.625 14.741C235.858 14.5542 236.103 14.4608 236.359 14.4608H241.424C241.68 14.4608 241.867 14.5542 241.983 14.741C242.123 14.9045 242.169 15.1147 242.123 15.3716L241.878 16.6677C242.46 16.0138 243.147 15.4884 243.939 15.0913C244.754 14.671 245.802 14.4608 247.083 14.4608H249.249C249.505 14.4608 249.703 14.5542 249.843 14.741C249.983 14.9045 250.029 15.1147 249.983 15.3716L249.004 19.8905C248.958 20.1474 248.818 20.3692 248.585 20.5561C248.376 20.7429 248.154 20.8363 247.922 20.8363H243.974C243.136 20.8363 242.46 21.0581 241.948 21.5019C241.436 21.9222 241.086 22.5528 240.9 23.3935L239.084 31.7657C239.037 32.0226 238.909 32.2445 238.699 32.4313C238.49 32.5948 238.257 32.6765 238.001 32.6765H232.516Z" fill="#232323"/>
</svg>
