<svg width="108" height="22" viewBox="0 0 108 22" fill="none" xmlns="http://www.w3.org/2000/svg">
<g filter="url(#filter0_d_193_18741)">
<path fill-rule="evenodd" clip-rule="evenodd" d="M8.77038 7.94832L7.42697 7.66277C7.42666 7.68735 7.42407 7.7122 7.41877 7.73715L6.80901 10.6058C6.76601 10.8081 6.56698 10.9374 6.36466 10.8944L5.42063 10.6937L5.29989 11.2619L4.20816 11.0299C4.14717 11.0169 4.08391 11.0379 4.04281 11.0848C4.00153 11.1317 3.98911 11.1971 4.00989 11.2558L4.34437 12.2011C4.36442 12.2577 4.41243 12.2998 4.471 12.3122L5.05043 12.4354L4.9554 12.8825C4.93561 12.9755 4.99504 13.067 5.08812 13.0868L7.39766 13.5777C7.49069 13.5975 7.58224 13.5381 7.60202 13.445L8.06714 11.2563L7.44968 11.125C7.24733 11.082 7.11805 10.8829 7.16105 10.6806L7.5998 8.6165C7.64281 8.41413 7.84187 8.28489 8.04422 8.3279L8.6618 8.45917L8.77038 7.94832ZM10.8705 12.9274C10.8559 12.9961 10.8005 13.0504 10.729 13.0616L7.78899 13.5273C7.79323 13.5142 7.79705 13.5008 7.79997 13.4871L8.08223 12.1586L10.7378 12.7231C10.819 12.7403 10.8764 12.8131 10.8741 12.8961C10.874 12.9068 10.8727 12.9172 10.8705 12.9274ZM11.1671 11.532C11.1648 11.5428 11.1615 11.5534 11.1572 11.5638C11.1248 11.6397 11.0434 11.682 10.9629 11.6649L7.49175 10.9271C7.39863 10.9073 7.3392 10.8158 7.35899 10.7227L7.79773 8.65857C7.81752 8.56549 7.90903 8.50605 8.00215 8.52585L8.84254 8.70448C8.93565 8.72427 8.99513 8.8158 8.97535 8.90888L8.78796 9.79044L11.0952 11.3537C11.1541 11.3936 11.1814 11.4646 11.1671 11.532ZM5.45901 8.05211L5.43401 8.16971L5.55709 8.19587L5.73086 7.37837C5.75064 7.28531 5.84215 7.22592 5.93521 7.2457L7.08817 7.49077C7.18115 7.51053 7.2406 7.60201 7.22082 7.69507L6.61107 10.5637C6.59128 10.6568 6.49981 10.7162 6.40673 10.6964L4.37096 10.2637C4.30309 10.2493 4.25044 10.1954 4.23748 10.1272C4.22479 10.059 4.2539 9.98967 4.31187 9.95138L5.32638 9.2813L5.48545 8.53294L5.36237 8.50678L5.33734 8.62453C5.31755 8.7176 5.22608 8.77704 5.133 8.75725C5.0399 8.73746 4.9805 8.64596 5.00029 8.55289L5.12196 7.98047C5.14174 7.88741 5.23322 7.82796 5.32632 7.84775C5.4194 7.86754 5.4788 7.95898 5.45901 8.05211ZM10.2223 1.11742L10.0946 1.7182L8.62392 1.40559C8.57175 1.3945 8.5206 1.42782 8.50951 1.47999C8.49845 1.53201 8.53162 1.58329 8.58379 1.59438L10.0545 1.90699L9.97789 2.26743L8.92487 2.0436C8.87275 2.03252 8.82158 2.06571 8.81049 2.11788C8.79941 2.17 8.83265 2.22119 8.88477 2.23226L9.93779 2.45609L9.86116 2.81661L8.80814 2.59278C8.75602 2.5817 8.70482 2.61504 8.69373 2.66718C8.68267 2.71923 8.71589 2.77048 8.76802 2.78156L9.82104 3.00539L9.7444 3.36593L8.69138 3.14211C8.63926 3.13103 8.58808 3.16422 8.577 3.21639C8.56591 3.26853 8.59915 3.31969 8.65128 3.33077L9.7043 3.5546L9.62768 3.91504L8.15697 3.60243C8.1048 3.59134 8.05364 3.62466 8.04256 3.67683C8.03149 3.72888 8.06467 3.78012 8.11684 3.79121L9.58756 4.10382L9.51093 4.46434L8.45791 4.24051C8.40578 4.22943 8.3546 4.26267 8.34352 4.31479C8.33243 4.36696 8.36568 4.4181 8.4178 4.42918L9.47082 4.653L9.39421 5.01344L8.34119 4.78962C8.28907 4.77854 8.23786 4.81188 8.22678 4.86402C8.21572 4.91607 8.24894 4.96732 8.30106 4.9784L9.35408 5.20223L9.27745 5.56277L8.22443 5.33895C8.1723 5.32787 8.12113 5.36106 8.11004 5.41323C8.09896 5.46537 8.1322 5.51655 8.18432 5.52763L9.23734 5.75145L9.16071 6.112L7.68999 5.79939C7.63782 5.7883 7.58669 5.8215 7.5756 5.87367C7.56452 5.92581 7.59772 5.97696 7.64989 5.98805L9.1206 6.30066L9.04399 6.6611L7.99097 6.43728C7.93885 6.4262 7.88767 6.45939 7.87659 6.51156C7.8655 6.56369 7.89875 6.61486 7.95087 6.62594L9.00389 6.84977L8.92723 7.2104L7.87421 6.98658C7.82209 6.9755 7.77091 7.00872 7.75983 7.06086C7.74876 7.11295 7.78199 7.16416 7.83411 7.17524L8.88713 7.39907L8.81049 7.75961L7.3645 7.45225C7.31211 7.37334 7.2301 7.31404 7.13024 7.29282L6.18617 7.09215L7.57569 0.554985C7.59546 0.461956 7.68698 0.402471 7.78005 0.422254L10.0896 0.913163C10.1826 0.932862 10.2421 1.02432 10.2223 1.11742Z" fill="#CE5905"/>
<path d="M13.6639 13.253C13.5614 13.253 13.4776 13.2204 13.4124 13.1552C13.3565 13.0807 13.3379 12.9922 13.3565 12.8898L15.2848 3.83533C15.3034 3.73287 15.3546 3.64903 15.4385 3.58382C15.5316 3.5093 15.6294 3.47204 15.7319 3.47204H19.295C19.8911 3.47204 20.4501 3.55588 20.9717 3.72355C21.5027 3.89122 21.9591 4.13808 22.341 4.46411C22.723 4.78083 22.9978 5.17673 23.1654 5.65181C23.3424 6.12688 23.375 6.67648 23.2633 7.3006C23.1981 7.70116 23.1328 8.05514 23.0676 8.36254C23.0024 8.66994 22.9186 9.01927 22.8161 9.41051C22.5926 10.2861 22.2758 11.0081 21.866 11.5763C21.4561 12.1445 20.9205 12.5684 20.2591 12.8478C19.607 13.118 18.7919 13.253 17.8138 13.253H13.6639ZM16.7938 10.8777H17.9815C18.2889 10.8777 18.5591 10.8264 18.7919 10.724C19.0341 10.6215 19.2344 10.4631 19.3928 10.2489C19.5604 10.0253 19.6862 9.7412 19.77 9.39653C19.8446 9.12639 19.9051 8.8842 19.9517 8.66995C19.9983 8.4557 20.0402 8.24144 20.0774 8.02719C20.124 7.81294 20.1706 7.5754 20.2172 7.31458C20.301 6.80224 20.2311 6.42963 20.0076 6.19675C19.7933 5.96387 19.4533 5.84743 18.9876 5.84743H17.8697L16.7938 10.8777Z" fill="white"/>
<path d="M23.6763 13.253C23.5739 13.253 23.4947 13.2204 23.4388 13.1552C23.3829 13.0807 23.3643 12.9922 23.3829 12.8898L24.7662 6.35045C24.7848 6.24798 24.8361 6.16414 24.9199 6.09894C25.0131 6.02442 25.1109 5.98715 25.2133 5.98715H27.2394C27.3419 5.98715 27.4164 6.02442 27.463 6.09894C27.5189 6.16414 27.5375 6.24798 27.5189 6.35045L27.4211 6.86745C27.6539 6.60662 27.9287 6.39703 28.2455 6.23867C28.5715 6.07099 28.9907 5.98715 29.503 5.98715H30.3693C30.4718 5.98715 30.551 6.02442 30.6069 6.09894C30.6628 6.16414 30.6814 6.24798 30.6628 6.35045L30.2715 8.15295C30.2529 8.25542 30.197 8.34391 30.1038 8.41843C30.02 8.49296 29.9315 8.53022 29.8384 8.53022H28.2594C27.9241 8.53022 27.6539 8.61871 27.449 8.7957C27.2441 8.96338 27.1043 9.21489 27.0298 9.55024L26.3032 12.8898C26.2846 12.9922 26.2334 13.0807 26.1495 13.1552C26.0657 13.2204 25.9725 13.253 25.8701 13.253H23.6763Z" fill="white"/>
<path d="M32.9446 13.3928C32.5161 13.3928 32.1295 13.3276 31.7848 13.1972C31.4495 13.0667 31.17 12.8665 30.9465 12.5963C30.7322 12.3262 30.5878 11.9862 30.5133 11.5763C30.4388 11.1664 30.4481 10.6867 30.5413 10.1371C30.5785 9.93216 30.6111 9.75517 30.6391 9.60613C30.6763 9.45708 30.7183 9.28475 30.7648 9.08913C30.8952 8.56748 31.0722 8.10637 31.2958 7.70582C31.5194 7.29595 31.7848 6.95594 32.0923 6.6858C32.3997 6.41566 32.7443 6.21072 33.1262 6.07099C33.5175 5.92195 33.9413 5.84743 34.3978 5.84743C34.9474 5.84743 35.3666 5.92195 35.6553 6.07099C35.9534 6.21072 36.1863 6.39237 36.354 6.61593L36.4238 6.35045C36.4425 6.24798 36.4937 6.16414 36.5775 6.09894C36.6614 6.02442 36.7499 5.98715 36.843 5.98715H38.8132C38.9157 5.98715 38.9948 6.02442 39.0507 6.09894C39.1066 6.16414 39.1253 6.24798 39.1066 6.35045L37.7233 12.8898C37.7047 12.9922 37.6535 13.0807 37.5696 13.1552C37.4858 13.2204 37.3926 13.253 37.2902 13.253H35.32C35.2175 13.253 35.1337 13.2204 35.0685 13.1552C35.0126 13.0807 34.994 12.9922 35.0126 12.8898L35.0964 12.4985C34.817 12.7687 34.5142 12.9876 34.1882 13.1552C33.8621 13.3136 33.4476 13.3928 32.9446 13.3928ZM34.2022 11.213C34.4444 11.213 34.6446 11.1618 34.803 11.0593C34.9707 10.9568 35.1057 10.8218 35.2082 10.6541C35.3107 10.4864 35.3898 10.3001 35.4457 10.0952C35.5016 9.89024 35.5436 9.71325 35.5715 9.56421C35.6088 9.41516 35.6414 9.24283 35.6693 9.04721C35.6973 8.85159 35.6926 8.67926 35.6553 8.53022C35.6274 8.38117 35.5529 8.26007 35.4318 8.16692C35.3107 8.07377 35.1383 8.02719 34.9148 8.02719C34.6819 8.02719 34.4863 8.07843 34.3279 8.1809C34.1696 8.27405 34.0391 8.40912 33.9367 8.58611C33.8435 8.75378 33.7643 8.9494 33.6991 9.17297C33.6619 9.3127 33.6246 9.46174 33.5873 9.6201C33.5501 9.77846 33.5221 9.9275 33.5035 10.0672C33.4756 10.2908 33.4709 10.4911 33.4895 10.6681C33.5082 10.8357 33.5734 10.9708 33.6852 11.0733C33.7969 11.1664 33.9693 11.213 34.2022 11.213Z" fill="white"/>
<path d="M40.3303 13.253C40.2279 13.253 40.1487 13.2204 40.0928 13.1552C40.0369 13.0807 40.0183 12.9922 40.0369 12.8898L41.0569 8.125H40.0369C39.9345 8.125 39.8553 8.0924 39.7994 8.02719C39.7435 7.95267 39.7249 7.86418 39.7435 7.76171L40.0369 6.35045C40.0555 6.24798 40.1068 6.16414 40.1906 6.09894C40.2838 6.02442 40.3816 5.98715 40.484 5.98715H41.5041L41.5739 5.65181C41.7323 4.94385 41.9791 4.39425 42.3145 4.00301C42.6498 3.60245 43.0644 3.32299 43.5581 3.16464C44.0611 2.99696 44.6293 2.91313 45.2628 2.91313H46.702C46.8044 2.91313 46.879 2.95039 46.9255 3.02491C46.9814 3.09011 47.0001 3.17395 46.9814 3.27642L46.674 4.68768C46.6554 4.79015 46.6042 4.87864 46.5203 4.95316C46.4365 5.01837 46.3433 5.05097 46.2409 5.05097H45.2069C44.9554 5.05097 44.7551 5.11152 44.606 5.23262C44.4663 5.3444 44.3732 5.50742 44.3266 5.72167L44.2707 5.98715H45.9055C46.008 5.98715 46.0825 6.02442 46.1291 6.09894C46.185 6.16414 46.2036 6.24798 46.185 6.35045L45.8915 7.76171C45.8729 7.86418 45.817 7.95267 45.7239 8.02719C45.64 8.0924 45.5515 8.125 45.4584 8.125H43.8096L42.7896 12.8898C42.7709 12.9922 42.7197 13.0807 42.6359 13.1552C42.552 13.2204 42.4589 13.253 42.3564 13.253H40.3303Z" fill="white"/>
<path d="M49.8154 13.253C49.154 13.253 48.5905 13.1599 48.1247 12.9736C47.6682 12.7873 47.3422 12.4845 47.1466 12.0654C46.951 11.6369 46.9277 11.0733 47.0767 10.3746L47.5658 8.125H46.4619C46.3595 8.125 46.2803 8.0924 46.2244 8.02719C46.1685 7.95267 46.1499 7.86418 46.1685 7.76171L46.4619 6.35045C46.4806 6.24798 46.5318 6.16414 46.6156 6.09894C46.7088 6.02442 46.8066 5.98715 46.9091 5.98715H48.0129L48.502 3.69561C48.5206 3.59314 48.5718 3.5093 48.6557 3.44409C48.7395 3.36957 48.8327 3.33231 48.9351 3.33231H50.9612C51.0637 3.33231 51.1428 3.36957 51.1987 3.44409C51.2639 3.5093 51.2872 3.59314 51.2686 3.69561L50.7795 5.98715H52.5261C52.6286 5.98715 52.7031 6.02442 52.7497 6.09894C52.8056 6.16414 52.8242 6.24798 52.8056 6.35045L52.5261 7.76171C52.5075 7.86418 52.4516 7.95267 52.3585 8.02719C52.2746 8.0924 52.1815 8.125 52.079 8.125H50.3184L49.8853 10.1371C49.848 10.3141 49.834 10.4678 49.8434 10.5982C49.862 10.7286 49.9132 10.8311 49.9971 10.9056C50.0809 10.9708 50.2113 11.0034 50.3883 11.0034H51.576C51.6785 11.0034 51.7576 11.0407 51.8135 11.1152C51.8694 11.1804 51.8881 11.2642 51.8694 11.3667L51.5341 12.8898C51.5154 12.9922 51.4642 13.0807 51.3804 13.1552C51.2965 13.2204 51.208 13.253 51.1149 13.253H49.8154Z" fill="white"/>
<path d="M53.0445 13.253C52.942 13.253 52.8582 13.2204 52.7929 13.1552C52.7371 13.0807 52.7184 12.9922 52.737 12.8898L54.6653 3.83533C54.6839 3.73287 54.7352 3.64903 54.819 3.58382C54.9122 3.5093 55.01 3.47204 55.1124 3.47204H56.9708C57.1385 3.47204 57.2549 3.51862 57.3202 3.61177C57.3947 3.70492 57.4366 3.77013 57.4459 3.80739L58.8711 7.69184L61.9312 3.80739C61.9685 3.77013 62.0383 3.70492 62.1408 3.61177C62.2433 3.51862 62.3783 3.47204 62.546 3.47204H64.4044C64.5069 3.47204 64.586 3.5093 64.6419 3.58382C64.6978 3.64903 64.7165 3.73287 64.6978 3.83533L62.7696 12.8898C62.7509 12.9922 62.6997 13.0807 62.6159 13.1552C62.532 13.2204 62.4389 13.253 62.3364 13.253H60.2265C60.124 13.253 60.0449 13.2204 59.989 13.1552C59.9331 13.0807 59.9144 12.9922 59.9331 12.8898L60.8832 8.40446L59.1925 10.5703C59.1273 10.6448 59.0481 10.7193 58.955 10.7938C58.8618 10.8683 58.75 10.9056 58.6196 10.9056H57.7673C57.6369 10.9056 57.5391 10.8683 57.4739 10.7938C57.418 10.7193 57.376 10.6448 57.3481 10.5703L56.5377 8.3346L55.5735 12.8898C55.5549 12.9922 55.5037 13.0807 55.4198 13.1552C55.336 13.2204 55.2429 13.253 55.1404 13.253H53.0445Z" fill="white"/>
<path d="M67.1263 13.3928C66.6978 13.3928 66.3112 13.3276 65.9665 13.1972C65.6312 13.0667 65.3517 12.8665 65.1281 12.5963C64.9139 12.3262 64.7695 11.9862 64.695 11.5763C64.6205 11.1664 64.6298 10.6867 64.7229 10.1371C64.7602 9.93216 64.7928 9.75517 64.8207 9.60613C64.858 9.45708 64.8999 9.28475 64.9465 9.08913C65.0769 8.56748 65.2539 8.10637 65.4775 7.70582C65.701 7.29595 65.9665 6.95594 66.2739 6.6858C66.5813 6.41566 66.926 6.21072 67.3079 6.07099C67.6992 5.92195 68.123 5.84743 68.5794 5.84743C69.129 5.84743 69.5482 5.92195 69.837 6.07099C70.1351 6.21072 70.368 6.39237 70.5356 6.61593L70.6055 6.35045C70.6241 6.24798 70.6754 6.16414 70.7592 6.09894C70.843 6.02442 70.9315 5.98715 71.0247 5.98715H72.9949C73.0973 5.98715 73.1765 6.02442 73.2324 6.09894C73.2883 6.16414 73.3069 6.24798 73.2883 6.35045L71.905 12.8898C71.8864 12.9922 71.8351 13.0807 71.7513 13.1552C71.6674 13.2204 71.5743 13.253 71.4718 13.253H69.5016C69.3992 13.253 69.3153 13.2204 69.2501 13.1552C69.1943 13.0807 69.1756 12.9922 69.1942 12.8898L69.2781 12.4985C68.9986 12.7687 68.6959 12.9876 68.3699 13.1552C68.0438 13.3136 67.6293 13.3928 67.1263 13.3928ZM68.3838 11.213C68.626 11.213 68.8263 11.1618 68.9847 11.0593C69.1523 10.9568 69.2874 10.8218 69.3899 10.6541C69.4923 10.4864 69.5715 10.3001 69.6274 10.0952C69.6833 9.89024 69.7252 9.71325 69.7532 9.56421C69.7904 9.41516 69.823 9.24283 69.851 9.04721C69.8789 8.85159 69.8743 8.67926 69.837 8.53022C69.8091 8.38117 69.7345 8.26007 69.6134 8.16692C69.4923 8.07377 69.32 8.02719 69.0964 8.02719C68.8636 8.02719 68.6679 8.07843 68.5096 8.1809C68.3512 8.27405 68.2208 8.40912 68.1183 8.58611C68.0252 8.75378 67.946 8.9494 67.8808 9.17297C67.8435 9.3127 67.8063 9.46174 67.769 9.6201C67.7318 9.77846 67.7038 9.9275 67.6852 10.0672C67.6572 10.2908 67.6526 10.4911 67.6712 10.6681C67.6898 10.8357 67.755 10.9708 67.8668 11.0733C67.9786 11.1664 68.1509 11.213 68.3838 11.213Z" fill="white"/>
<path d="M76.6359 13.3928C76.0024 13.3928 75.4761 13.3276 75.057 13.1972C74.6378 13.0574 74.3071 12.8851 74.0649 12.6802C73.832 12.4752 73.669 12.2656 73.5758 12.0514C73.492 11.8278 73.4641 11.6322 73.492 11.4645C73.5106 11.3621 73.5619 11.2782 73.6457 11.213C73.7295 11.1385 73.8134 11.1012 73.8972 11.1012H75.9093C75.9279 11.1012 75.9419 11.1059 75.9512 11.1152C75.9699 11.1152 75.9885 11.1245 76.0071 11.1431C76.1189 11.1804 76.2214 11.241 76.3145 11.3248C76.4077 11.4086 76.5148 11.4831 76.6359 11.5484C76.757 11.6136 76.906 11.6462 77.083 11.6462C77.2507 11.6462 77.4044 11.6136 77.5441 11.5484C77.6839 11.4738 77.7677 11.3714 77.7956 11.241C77.8236 11.1292 77.8096 11.0314 77.7537 10.9475C77.7071 10.8637 77.5767 10.7845 77.3625 10.71C77.1482 10.6261 76.8082 10.5377 76.3425 10.4445C75.9046 10.3513 75.5181 10.2163 75.1827 10.0393C74.8474 9.85298 74.6005 9.60613 74.4422 9.29872C74.2838 8.99132 74.2558 8.61405 74.3583 8.16692C74.4328 7.785 74.6331 7.41704 74.9591 7.06307C75.2852 6.70909 75.723 6.42031 76.2726 6.19675C76.8222 5.96387 77.4603 5.84743 78.1869 5.84743C78.7365 5.84743 79.2069 5.91263 79.5981 6.04305C79.9987 6.17346 80.3247 6.33648 80.5762 6.5321C80.8278 6.72772 81.0047 6.93731 81.1072 7.16088C81.219 7.38444 81.2562 7.58472 81.219 7.76171C81.2097 7.86418 81.1678 7.95267 81.0932 8.02719C81.0187 8.0924 80.9395 8.125 80.8557 8.125H79.0113C78.9833 8.125 78.9554 8.125 78.9274 8.125C78.8995 8.11569 78.8762 8.10172 78.8576 8.08309C78.7365 8.05514 78.6294 8.0039 78.5362 7.92938C78.4431 7.84555 78.3406 7.77102 78.2288 7.70582C78.1263 7.6313 77.9819 7.59403 77.7956 7.59403C77.6373 7.59403 77.5022 7.6313 77.3904 7.70582C77.2786 7.78034 77.2088 7.87815 77.1808 7.99925C77.1529 8.10172 77.1622 8.19487 77.2088 8.2787C77.2647 8.36254 77.3997 8.44172 77.614 8.51624C77.8282 8.59076 78.1776 8.66994 78.662 8.75378C79.2954 8.85625 79.7798 9.02858 80.1151 9.27078C80.4598 9.50366 80.6834 9.77846 80.7858 10.0952C80.8883 10.4119 80.9069 10.7286 80.8417 11.0453C80.7393 11.5204 80.5064 11.9349 80.1431 12.2889C79.7891 12.6429 79.314 12.9177 78.7178 13.1133C78.1217 13.2996 77.4277 13.3928 76.6359 13.3928Z" fill="white"/>
<path d="M85.4298 13.253C84.7685 13.253 84.2049 13.1599 83.7391 12.9736C83.2827 12.7873 82.9566 12.4845 82.761 12.0654C82.5654 11.6369 82.5421 11.0733 82.6912 10.3746L83.1802 8.125H82.0764C81.9739 8.125 81.8947 8.0924 81.8388 8.02719C81.7829 7.95267 81.7643 7.86418 81.7829 7.76171L82.0764 6.35045C82.095 6.24798 82.1462 6.16414 82.2301 6.09894C82.3232 6.02442 82.421 5.98715 82.5235 5.98715H83.6273L84.1164 3.69561C84.135 3.59314 84.1863 3.5093 84.2701 3.44409C84.3539 3.36957 84.4471 3.33231 84.5496 3.33231H86.5756C86.6781 3.33231 86.7573 3.36957 86.8132 3.44409C86.8784 3.5093 86.9016 3.59314 86.883 3.69561L86.394 5.98715H88.1406C88.243 5.98715 88.3176 6.02442 88.3642 6.09894C88.42 6.16414 88.4387 6.24798 88.42 6.35045L88.1406 7.76171C88.1219 7.86418 88.0661 7.95267 87.9729 8.02719C87.8891 8.0924 87.7959 8.125 87.6934 8.125H85.9329L85.4997 10.1371C85.4624 10.3141 85.4485 10.4678 85.4578 10.5982C85.4764 10.7286 85.5277 10.8311 85.6115 10.9056C85.6953 10.9708 85.8257 11.0034 86.0027 11.0034H87.1904C87.2929 11.0034 87.3721 11.0407 87.428 11.1152C87.4839 11.1804 87.5025 11.2642 87.4838 11.3667L87.1485 12.8898C87.1299 12.9922 87.0786 13.0807 86.9948 13.1552C86.911 13.2204 86.8225 13.253 86.7293 13.253H85.4298Z" fill="white"/>
<path d="M91.8727 13.3928C91.0995 13.3928 90.4521 13.2624 89.9304 13.0015C89.4181 12.7314 89.0641 12.3262 88.8685 11.7859C88.6729 11.2456 88.6589 10.5609 88.8266 9.73188C88.8359 9.69462 88.8452 9.64805 88.8545 9.59215C88.8638 9.52695 88.8731 9.48037 88.8825 9.45243C89.0688 8.67926 89.3762 8.02719 89.8047 7.49622C90.2332 6.95594 90.7595 6.54607 91.3836 6.26661C92.0077 5.98715 92.7017 5.84743 93.4656 5.84743C94.3226 5.84743 94.9933 6.01976 95.4776 6.36442C95.9714 6.69977 96.2927 7.15156 96.4418 7.71979C96.6001 8.2787 96.6094 8.90748 96.4697 9.60613L96.3998 9.99737C96.3812 10.0905 96.3253 10.1744 96.2322 10.2489C96.1483 10.3234 96.0552 10.3607 95.9527 10.3607H91.6351C91.6351 10.3607 91.6304 10.37 91.6211 10.3886C91.6211 10.4072 91.6211 10.4259 91.6211 10.4445C91.5746 10.6681 91.5606 10.8683 91.5792 11.0453C91.6072 11.213 91.6724 11.3481 91.7748 11.4505C91.8866 11.5437 92.0357 11.5903 92.222 11.5903C92.3431 11.5903 92.4502 11.5716 92.5433 11.5344C92.6365 11.4971 92.7203 11.4505 92.7949 11.3947C92.8694 11.3294 92.9392 11.2689 93.0044 11.213C93.1069 11.1292 93.1861 11.0779 93.242 11.0593C93.3072 11.0314 93.391 11.0174 93.4935 11.0174H95.6872C95.7804 11.0174 95.8503 11.0453 95.8968 11.1012C95.9434 11.1571 95.9527 11.227 95.9248 11.3108C95.8782 11.4785 95.7571 11.6834 95.5615 11.9256C95.3659 12.1585 95.0911 12.3867 94.7371 12.6103C94.3924 12.8339 93.9779 13.0202 93.4935 13.1692C93.0091 13.3183 92.4688 13.3928 91.8727 13.3928ZM91.9705 8.7957H93.7171V8.76776C93.7729 8.51624 93.7823 8.30199 93.745 8.125C93.7171 7.94801 93.6472 7.8176 93.5354 7.73376C93.4236 7.64061 93.2746 7.59403 93.0883 7.59403C92.902 7.59403 92.7343 7.64061 92.5853 7.73376C92.4362 7.8176 92.3105 7.94801 92.208 8.125C92.1148 8.30199 92.0357 8.51624 91.9705 8.76776V8.7957Z" fill="white"/>
<path d="M97.0066 13.253C96.9041 13.253 96.8249 13.2204 96.769 13.1552C96.7132 13.0807 96.6945 12.9922 96.7132 12.8898L98.0965 6.35045C98.1151 6.24798 98.1663 6.16414 98.2502 6.09894C98.3433 6.02442 98.4411 5.98715 98.5436 5.98715H100.57C100.672 5.98715 100.747 6.02442 100.793 6.09894C100.849 6.16414 100.868 6.24798 100.849 6.35045L100.751 6.86745C100.984 6.60662 101.259 6.39703 101.576 6.23867C101.902 6.07099 102.321 5.98715 102.833 5.98715H103.7C103.802 5.98715 103.881 6.02442 103.937 6.09894C103.993 6.16414 104.012 6.24798 103.993 6.35045L103.602 8.15295C103.583 8.25542 103.527 8.34391 103.434 8.41843C103.35 8.49296 103.262 8.53022 103.169 8.53022H101.59C101.254 8.53022 100.984 8.61871 100.779 8.7957C100.574 8.96338 100.435 9.21489 100.36 9.55024L99.6335 12.8898C99.6149 12.9922 99.5636 13.0807 99.4798 13.1552C99.3959 13.2204 99.3028 13.253 99.2003 13.253H97.0066Z" fill="white"/>
</g>
<defs>
<filter id="filter0_d_193_18741" x="0" y="0.418457" width="108" height="21.1631" filterUnits="userSpaceOnUse" color-interpolation-filters="sRGB">
<feFlood flood-opacity="0" result="BackgroundImageFix"/>
<feColorMatrix in="SourceAlpha" type="matrix" values="0 0 0 0 0 0 0 0 0 0 0 0 0 0 0 0 0 0 127 0" result="hardAlpha"/>
<feOffset dy="4"/>
<feGaussianBlur stdDeviation="2"/>
<feComposite in2="hardAlpha" operator="out"/>
<feColorMatrix type="matrix" values="0 0 0 0 0 0 0 0 0 0 0 0 0 0 0 0 0 0 0.25 0"/>
<feBlend mode="normal" in2="BackgroundImageFix" result="effect1_dropShadow_193_18741"/>
<feBlend mode="normal" in="SourceGraphic" in2="effect1_dropShadow_193_18741" result="shape"/>
</filter>
</defs>
</svg>
